<svg width="533" height="720" viewBox="0 0 533 720" fill="none" xmlns="http://www.w3.org/2000/svg">
<mask id="mask0_85_71" style="mask-type:alpha" maskUnits="userSpaceOnUse" x="0" y="0" width="533" height="720">
<rect width="533" height="720" fill="#0000A7"/>
</mask>
<g mask="url(#mask0_85_71)">
<path d="M31.1152 -3.01335C31.1152 18.519 48.5626 35.9733 70.0864 35.9733V-42C48.5626 -42 31.1152 -24.5457 31.1152 -3.01335Z" fill="#1313BA"/>
<path d="M31.1157 -3.01335C31.1157 -24.5457 13.6684 -42 -7.85547 -42V35.9695C13.6684 35.9695 31.1157 18.5152 31.1157 -3.01335Z" fill="#1313BA"/>
<path d="M264.931 -3.01335C264.931 18.519 282.379 35.9733 303.902 35.9733V-42C282.379 -42 264.931 -24.5457 264.931 -3.01335Z" fill="#1313BA"/>
<path d="M225.964 35.9733C247.487 35.9733 264.935 18.5184 264.935 -3.01335C264.935 -24.5451 247.487 -42 225.964 -42C204.441 -42 186.993 -24.5451 186.993 -3.01335C186.993 18.5184 204.441 35.9733 225.964 35.9733Z" fill="#1313BA"/>
<path d="M225.964 35.9695C204.44 35.9695 186.993 53.4238 186.993 74.9561C186.993 96.4885 204.44 113.943 225.964 113.943V35.9695Z" fill="#1313BA"/>
<path d="M148.025 35.9695C169.549 35.9695 186.997 18.5152 186.997 -3.01714C186.993 -24.5457 169.546 -42 148.025 -42H70.0831C70.0831 -20.4676 87.5305 -3.01335 109.054 -3.01335C130.578 -3.01335 148.022 -20.4676 148.025 -41.9962V35.9695C148.025 14.4371 130.578 -3.01714 109.054 -3.01714C87.5305 -3.01714 70.0831 14.4371 70.0831 35.9695H-7.85547C-7.85547 57.5019 9.59188 74.9562 31.1157 74.9562C52.6395 74.9562 70.0869 57.5019 70.0869 35.9733C70.0869 57.5057 87.5342 74.9562 109.058 74.9562C130.574 74.9562 148.022 57.5019 148.025 35.9695V113.939C148.025 92.4104 130.578 74.9562 109.054 74.9562C87.5305 74.9562 70.0831 92.4104 70.0831 113.939C70.0831 92.4066 52.6358 74.9562 31.1119 74.9562C9.59188 74.9562 -7.85547 92.4104 -7.85547 113.943H148.025C169.549 113.943 186.997 96.4885 186.997 74.9562C186.993 53.4238 169.546 35.9695 148.025 35.9695Z" fill="#1313BA"/>
<path d="M264.931 74.9561C286.455 74.9561 303.902 57.5019 303.902 35.9695H225.964C225.964 57.5019 243.411 74.9561 264.931 74.9561Z" fill="#1313BA"/>
<path d="M31.1152 152.926C31.1152 174.458 48.5626 191.912 70.0864 191.912V113.943C48.5626 113.943 31.1152 131.397 31.1152 152.926Z" fill="#1313BA"/>
<path d="M31.1157 152.926C31.1157 131.393 13.6684 113.939 -7.85547 113.939V191.912C13.6684 191.912 31.1157 174.458 31.1157 152.926Z" fill="#1313BA"/>
<path d="M109.054 191.912C130.577 191.912 148.025 174.457 148.025 152.926C148.025 131.394 130.577 113.939 109.054 113.939C87.5305 113.939 70.0825 131.394 70.0825 152.926C70.0825 174.457 87.5305 191.912 109.054 191.912Z" fill="#1313BA"/>
<path d="M58.6696 336.432C73.8886 321.207 73.8886 296.523 58.6696 281.298C43.4505 266.072 18.7756 266.072 3.55652 281.298C-11.6625 296.523 -11.6625 321.207 3.55652 336.432C18.7756 351.658 43.4505 351.658 58.6696 336.432Z" fill="#1313BA"/>
<path d="M186.993 152.926C165.469 152.926 148.021 170.38 148.021 191.912H225.964C225.964 170.38 208.517 152.926 186.993 152.926Z" fill="#1313BA"/>
<path d="M303.902 113.943C282.379 113.943 264.931 131.397 264.931 152.93C264.931 174.458 282.379 191.912 303.899 191.916H225.964C225.964 213.449 243.411 230.903 264.935 230.903C286.459 230.903 303.906 213.449 303.906 191.916V113.943H303.902Z" fill="#1313BA"/>
<path d="M264.931 152.926C264.931 131.393 247.484 113.943 225.964 113.939H303.903C303.903 92.4067 286.455 74.9524 264.931 74.9524C243.408 74.9524 225.96 92.4067 225.96 113.939H148.025C148.025 135.471 165.473 152.926 186.997 152.926C208.52 152.926 225.964 135.471 225.968 113.943V191.912C247.484 191.912 264.931 174.458 264.931 152.926Z" fill="#1313BA"/>
<path d="M31.1157 230.895C9.59188 230.895 -7.85547 248.349 -7.85547 269.882H70.0831C91.6069 269.882 109.054 252.427 109.054 230.895C109.054 209.363 91.6069 191.908 70.0831 191.908H-7.85547C-7.85547 213.441 9.59188 230.895 31.1157 230.895C52.6358 230.895 70.0831 213.441 70.0869 191.912V269.878C70.0831 248.349 52.6358 230.895 31.1157 230.895Z" fill="#1313BA"/>
<path d="M148.025 269.882C169.548 269.882 186.996 252.427 186.996 230.895C186.996 209.363 169.548 191.908 148.025 191.908C126.502 191.908 109.054 209.363 109.054 230.895C109.054 252.427 126.502 269.882 148.025 269.882Z" fill="#1313BA"/>
<path d="M186.993 230.895C186.993 252.428 204.44 269.882 225.964 269.882V191.912C204.44 191.912 186.993 209.367 186.993 230.895Z" fill="#1313BA"/>
<path d="M225.964 269.882H303.902C303.902 248.35 286.455 230.895 264.931 230.895C243.411 230.895 225.964 248.35 225.964 269.882Z" fill="#1313BA"/>
<path d="M186.993 308.868C186.993 330.401 204.44 347.855 225.964 347.855V269.882C204.44 269.882 186.993 287.336 186.993 308.868Z" fill="#1313BA"/>
<path d="M148.025 269.882H70.0825C70.0825 291.414 87.5299 308.868 109.054 308.868C130.574 308.868 148.021 291.414 148.025 269.882V347.851C148.025 326.323 130.578 308.868 109.054 308.868C87.5299 308.868 70.0825 326.323 70.0825 347.855H148.021C169.545 347.855 186.992 330.401 186.992 308.868C186.992 287.336 169.545 269.882 148.025 269.882Z" fill="#1313BA"/>
<path d="M264.931 308.869C286.455 308.869 303.902 291.414 303.902 269.882H225.964C225.964 291.414 243.411 308.869 264.931 308.869Z" fill="#1313BA"/>
<path d="M264.931 308.869C243.407 308.869 225.96 326.323 225.96 347.855H303.899C303.902 326.323 286.455 308.869 264.931 308.869Z" fill="#1313BA"/>
<path d="M31.1152 386.987C31.1152 408.519 48.5626 425.973 70.0864 425.973V348C48.5626 348 31.1152 365.454 31.1152 386.987Z" fill="#1313BA"/>
<path d="M31.1157 386.987C31.1157 365.454 13.6684 348 -7.85547 348V425.97C13.6684 425.97 31.1157 408.515 31.1157 386.987Z" fill="#1313BA"/>
<path d="M264.931 386.987C264.931 408.519 282.379 425.973 303.902 425.973V348C282.379 348 264.931 365.454 264.931 386.987Z" fill="#1313BA"/>
<path d="M225.964 425.973C247.487 425.973 264.935 408.518 264.935 386.987C264.935 365.455 247.487 348 225.964 348C204.441 348 186.993 365.455 186.993 386.987C186.993 408.518 204.441 425.973 225.964 425.973Z" fill="#1313BA"/>
<path d="M225.964 425.969C204.44 425.969 186.993 443.424 186.993 464.956C186.993 486.489 204.44 503.943 225.964 503.943V425.969Z" fill="#1313BA"/>
<path d="M148.025 425.97C169.549 425.97 186.997 408.515 186.997 386.983C186.993 365.454 169.546 348 148.025 348H70.0831C70.0831 369.532 87.5305 386.987 109.054 386.987C130.578 386.987 148.022 369.532 148.025 348.004V425.97C148.025 404.437 130.578 386.983 109.054 386.983C87.5305 386.983 70.0831 404.437 70.0831 425.97H-7.85547C-7.85547 447.502 9.59188 464.956 31.1157 464.956C52.6395 464.956 70.0869 447.502 70.0869 425.973C70.0869 447.506 87.5342 464.956 109.058 464.956C130.574 464.956 148.022 447.502 148.025 425.97V503.939C148.025 482.41 130.578 464.956 109.054 464.956C87.5305 464.956 70.0831 482.41 70.0831 503.939C70.0831 482.407 52.6358 464.956 31.1119 464.956C9.59188 464.956 -7.85547 482.41 -7.85547 503.943H148.025C169.549 503.943 186.997 486.489 186.997 464.956C186.993 443.424 169.546 425.97 148.025 425.97Z" fill="#1313BA"/>
<path d="M264.931 464.956C286.455 464.956 303.902 447.502 303.902 425.969H225.964C225.964 447.502 243.411 464.956 264.931 464.956Z" fill="#1313BA"/>
<path d="M31.1152 542.926C31.1152 564.458 48.5626 581.912 70.0864 581.912V503.943C48.5626 503.943 31.1152 521.397 31.1152 542.926Z" fill="#1313BA"/>
<path d="M31.1157 542.926C31.1157 521.393 13.6684 503.939 -7.85547 503.939V581.912C13.6684 581.912 31.1157 564.458 31.1157 542.926Z" fill="#1313BA"/>
<path d="M109.054 581.912C130.577 581.912 148.025 564.457 148.025 542.926C148.025 521.394 130.577 503.939 109.054 503.939C87.5305 503.939 70.0825 521.394 70.0825 542.926C70.0825 564.457 87.5305 581.912 109.054 581.912Z" fill="#1313BA"/>
<path d="M58.6696 726.432C73.8886 711.207 73.8886 686.523 58.6696 671.298C43.4505 656.072 18.7756 656.072 3.55652 671.298C-11.6625 686.523 -11.6625 711.207 3.55652 726.432C18.7756 741.658 43.4505 741.658 58.6696 726.432Z" fill="#1313BA"/>
<path d="M186.993 542.926C165.469 542.926 148.021 560.38 148.021 581.912H225.964C225.964 560.38 208.517 542.926 186.993 542.926Z" fill="#1313BA"/>
<path d="M303.902 503.943C282.379 503.943 264.931 521.397 264.931 542.93C264.931 564.458 282.379 581.912 303.899 581.916H225.964C225.964 603.449 243.411 620.903 264.935 620.903C286.459 620.903 303.906 603.449 303.906 581.916V503.943H303.902Z" fill="#1313BA"/>
<path d="M264.931 542.926C264.931 521.393 247.484 503.943 225.964 503.939H303.903C303.903 482.407 286.455 464.952 264.931 464.952C243.408 464.952 225.96 482.407 225.96 503.939H148.025C148.025 525.471 165.473 542.926 186.997 542.926C208.52 542.926 225.964 525.471 225.968 503.943V581.912C247.484 581.912 264.931 564.458 264.931 542.926Z" fill="#1313BA"/>
<path d="M31.1157 620.895C9.59188 620.895 -7.85547 638.349 -7.85547 659.882H70.0831C91.6069 659.882 109.054 642.427 109.054 620.895C109.054 599.363 91.6069 581.908 70.0831 581.908H-7.85547C-7.85547 603.441 9.59188 620.895 31.1157 620.895C52.6358 620.895 70.0831 603.441 70.0869 581.912V659.878C70.0831 638.349 52.6358 620.895 31.1157 620.895Z" fill="#1313BA"/>
<path d="M148.025 659.882C169.548 659.882 186.996 642.427 186.996 620.895C186.996 599.363 169.548 581.908 148.025 581.908C126.502 581.908 109.054 599.363 109.054 620.895C109.054 642.427 126.502 659.882 148.025 659.882Z" fill="#1313BA"/>
<path d="M186.993 620.895C186.993 642.428 204.44 659.882 225.964 659.882V581.912C204.44 581.912 186.993 599.367 186.993 620.895Z" fill="#1313BA"/>
<path d="M225.964 659.882H303.902C303.902 638.35 286.455 620.895 264.931 620.895C243.411 620.895 225.964 638.35 225.964 659.882Z" fill="#1313BA"/>
<path d="M186.993 698.868C186.993 720.401 204.44 737.855 225.964 737.855V659.882C204.44 659.882 186.993 677.336 186.993 698.868Z" fill="#1313BA"/>
<path d="M148.025 659.882H70.0825C70.0825 681.414 87.5299 698.868 109.054 698.868C130.574 698.868 148.021 681.414 148.025 659.882V737.851C148.025 716.323 130.578 698.868 109.054 698.868C87.5299 698.868 70.0825 716.323 70.0825 737.855H148.021C169.545 737.855 186.992 720.401 186.992 698.868C186.992 677.336 169.545 659.882 148.025 659.882Z" fill="#1313BA"/>
<path d="M264.931 698.869C286.455 698.869 303.902 681.414 303.902 659.882H225.964C225.964 681.414 243.411 698.869 264.931 698.869Z" fill="#1313BA"/>
<path d="M264.931 698.869C243.407 698.869 225.96 716.323 225.96 737.855H303.899C303.902 716.323 286.455 698.869 264.931 698.869Z" fill="#1313BA"/>
<path d="M339.115 -3.01335C339.115 18.519 356.563 35.9733 378.086 35.9733V-42C356.563 -42 339.115 -24.5457 339.115 -3.01335Z" fill="#1313BA"/>
<path d="M339.116 -3.01335C339.116 -24.5457 321.668 -42 300.145 -42V35.9695C321.668 35.9695 339.116 18.5152 339.116 -3.01335Z" fill="#1313BA"/>
<path d="M533.964 35.9733C555.487 35.9733 572.935 18.5184 572.935 -3.01335C572.935 -24.5451 555.487 -42 533.964 -42C512.441 -42 494.993 -24.5451 494.993 -3.01335C494.993 18.5184 512.441 35.9733 533.964 35.9733Z" fill="#1313BA"/>
<path d="M533.964 35.9695C512.44 35.9695 494.993 53.4238 494.993 74.9561C494.993 96.4885 512.44 113.943 533.964 113.943V35.9695Z" fill="#1313BA"/>
<path d="M456.025 35.9695C477.549 35.9695 494.997 18.5152 494.997 -3.01714C494.993 -24.5457 477.546 -42 456.025 -42H378.083C378.083 -20.4676 395.53 -3.01335 417.054 -3.01335C438.578 -3.01335 456.022 -20.4676 456.025 -41.9962V35.9695C456.025 14.4371 438.578 -3.01714 417.054 -3.01714C395.53 -3.01714 378.083 14.4371 378.083 35.9695H300.145C300.145 57.5019 317.592 74.9562 339.116 74.9562C360.64 74.9562 378.087 57.5019 378.087 35.9733C378.087 57.5057 395.534 74.9562 417.058 74.9562C438.574 74.9562 456.022 57.5019 456.025 35.9695V113.939C456.025 92.4104 438.578 74.9562 417.054 74.9562C395.53 74.9562 378.083 92.4104 378.083 113.939C378.083 92.4066 360.636 74.9562 339.112 74.9562C317.592 74.9562 300.145 92.4104 300.145 113.943H456.025C477.549 113.943 494.997 96.4885 494.997 74.9562C494.993 53.4238 477.546 35.9695 456.025 35.9695Z" fill="#1313BA"/>
<path d="M339.115 152.926C339.115 174.458 356.563 191.912 378.086 191.912V113.943C356.563 113.943 339.115 131.397 339.115 152.926Z" fill="#1313BA"/>
<path d="M339.116 152.926C339.116 131.393 321.668 113.939 300.145 113.939V191.912C321.668 191.912 339.116 174.458 339.116 152.926Z" fill="#1313BA"/>
<path d="M417.054 191.912C438.577 191.912 456.025 174.457 456.025 152.926C456.025 131.394 438.577 113.939 417.054 113.939C395.531 113.939 378.083 131.394 378.083 152.926C378.083 174.457 395.531 191.912 417.054 191.912Z" fill="#1313BA"/>
<path d="M366.67 336.432C381.889 321.207 381.889 296.523 366.67 281.298C351.451 266.072 326.776 266.072 311.557 281.298C296.337 296.523 296.337 321.207 311.557 336.432C326.776 351.658 351.451 351.658 366.67 336.432Z" fill="#1313BA"/>
<path d="M494.993 152.926C473.469 152.926 456.021 170.38 456.021 191.912H533.964C533.964 170.38 516.517 152.926 494.993 152.926Z" fill="#1313BA"/>
<path d="M572.931 152.926C572.931 131.393 555.484 113.943 533.964 113.939H611.903C611.903 92.4067 594.455 74.9524 572.931 74.9524C551.408 74.9524 533.96 92.4067 533.96 113.939H456.025C456.025 135.471 473.473 152.926 494.997 152.926C516.52 152.926 533.964 135.471 533.968 113.943V191.912C555.484 191.912 572.931 174.458 572.931 152.926Z" fill="#1313BA"/>
<path d="M339.116 230.895C317.592 230.895 300.145 248.349 300.145 269.882H378.083C399.607 269.882 417.054 252.427 417.054 230.895C417.054 209.363 399.607 191.908 378.083 191.908H300.145C300.145 213.441 317.592 230.895 339.116 230.895C360.636 230.895 378.083 213.441 378.087 191.912V269.878C378.083 248.349 360.636 230.895 339.116 230.895Z" fill="#1313BA"/>
<path d="M456.025 269.882C477.548 269.882 494.996 252.427 494.996 230.895C494.996 209.363 477.548 191.908 456.025 191.908C434.502 191.908 417.054 209.363 417.054 230.895C417.054 252.427 434.502 269.882 456.025 269.882Z" fill="#1313BA"/>
<path d="M494.993 230.895C494.993 252.428 512.44 269.882 533.964 269.882V191.912C512.44 191.912 494.993 209.367 494.993 230.895Z" fill="#1313BA"/>
<path d="M494.993 308.868C494.993 330.401 512.44 347.855 533.964 347.855V269.882C512.44 269.882 494.993 287.336 494.993 308.868Z" fill="#1313BA"/>
<path d="M456.025 269.882H378.083C378.083 291.414 395.53 308.868 417.054 308.868C438.574 308.868 456.021 291.414 456.025 269.882V347.851C456.025 326.323 438.578 308.868 417.054 308.868C395.53 308.868 378.083 326.323 378.083 347.855H456.021C477.545 347.855 494.992 330.401 494.992 308.868C494.992 287.336 477.545 269.882 456.025 269.882Z" fill="#1313BA"/>
<path d="M339.115 386.987C339.115 408.519 356.563 425.973 378.086 425.973V348C356.563 348 339.115 365.454 339.115 386.987Z" fill="#1313BA"/>
<path d="M339.116 386.987C339.116 365.454 321.668 348 300.145 348V425.97C321.668 425.97 339.116 408.515 339.116 386.987Z" fill="#1313BA"/>
<path d="M533.964 425.973C555.487 425.973 572.935 408.518 572.935 386.987C572.935 365.455 555.487 348 533.964 348C512.441 348 494.993 365.455 494.993 386.987C494.993 408.518 512.441 425.973 533.964 425.973Z" fill="#1313BA"/>
<path d="M533.964 425.969C512.44 425.969 494.993 443.424 494.993 464.956C494.993 486.489 512.44 503.943 533.964 503.943V425.969Z" fill="#1313BA"/>
<path d="M456.025 425.97C477.549 425.97 494.997 408.515 494.997 386.983C494.993 365.454 477.546 348 456.025 348H378.083C378.083 369.532 395.53 386.987 417.054 386.987C438.578 386.987 456.022 369.532 456.025 348.004V425.97C456.025 404.437 438.578 386.983 417.054 386.983C395.53 386.983 378.083 404.437 378.083 425.97H300.145C300.145 447.502 317.592 464.956 339.116 464.956C360.64 464.956 378.087 447.502 378.087 425.973C378.087 447.506 395.534 464.956 417.058 464.956C438.574 464.956 456.022 447.502 456.025 425.97V503.939C456.025 482.41 438.578 464.956 417.054 464.956C395.53 464.956 378.083 482.41 378.083 503.939C378.083 482.407 360.636 464.956 339.112 464.956C317.592 464.956 300.145 482.41 300.145 503.943H456.025C477.549 503.943 494.997 486.489 494.997 464.956C494.993 443.424 477.546 425.97 456.025 425.97Z" fill="#1313BA"/>
<path d="M339.115 542.926C339.115 564.458 356.563 581.912 378.086 581.912V503.943C356.563 503.943 339.115 521.397 339.115 542.926Z" fill="#1313BA"/>
<path d="M339.116 542.926C339.116 521.393 321.668 503.939 300.145 503.939V581.912C321.668 581.912 339.116 564.458 339.116 542.926Z" fill="#1313BA"/>
<path d="M417.054 581.912C438.577 581.912 456.025 564.457 456.025 542.926C456.025 521.394 438.577 503.939 417.054 503.939C395.531 503.939 378.083 521.394 378.083 542.926C378.083 564.457 395.531 581.912 417.054 581.912Z" fill="#1313BA"/>
<path d="M366.67 726.432C381.889 711.207 381.889 686.523 366.67 671.298C351.451 656.072 326.776 656.072 311.557 671.298C296.337 686.523 296.337 711.207 311.557 726.432C326.776 741.658 351.451 741.658 366.67 726.432Z" fill="#1313BA"/>
<path d="M494.993 542.926C473.469 542.926 456.021 560.38 456.021 581.912H533.964C533.964 560.38 516.517 542.926 494.993 542.926Z" fill="#1313BA"/>
<path d="M572.931 542.926C572.931 521.393 555.484 503.943 533.964 503.939H611.903C611.903 482.407 594.455 464.952 572.931 464.952C551.408 464.952 533.96 482.407 533.96 503.939H456.025C456.025 525.471 473.473 542.926 494.997 542.926C516.52 542.926 533.964 525.471 533.968 503.943V581.912C555.484 581.912 572.931 564.458 572.931 542.926Z" fill="#1313BA"/>
<path d="M339.116 620.895C317.592 620.895 300.145 638.349 300.145 659.882H378.083C399.607 659.882 417.054 642.427 417.054 620.895C417.054 599.363 399.607 581.908 378.083 581.908H300.145C300.145 603.441 317.592 620.895 339.116 620.895C360.636 620.895 378.083 603.441 378.087 581.912V659.878C378.083 638.349 360.636 620.895 339.116 620.895Z" fill="#1313BA"/>
<path d="M456.025 659.882C477.548 659.882 494.996 642.427 494.996 620.895C494.996 599.363 477.548 581.908 456.025 581.908C434.502 581.908 417.054 599.363 417.054 620.895C417.054 642.427 434.502 659.882 456.025 659.882Z" fill="#1313BA"/>
<path d="M494.993 620.895C494.993 642.428 512.44 659.882 533.964 659.882V581.912C512.44 581.912 494.993 599.367 494.993 620.895Z" fill="#1313BA"/>
<path d="M494.993 698.868C494.993 720.401 512.44 737.855 533.964 737.855V659.882C512.44 659.882 494.993 677.336 494.993 698.868Z" fill="#1313BA"/>
<path d="M456.025 659.882H378.083C378.083 681.414 395.53 698.868 417.054 698.868C438.574 698.868 456.021 681.414 456.025 659.882V737.851C456.025 716.323 438.578 698.868 417.054 698.868C395.53 698.868 378.083 716.323 378.083 737.855H456.021C477.545 737.855 494.992 720.401 494.992 698.868C494.992 677.336 477.545 659.882 456.025 659.882Z" fill="#1313BA"/>
</g>
</svg>
