<svg width="88" height="88" viewBox="0 0 88 88" fill="none" xmlns="http://www.w3.org/2000/svg">
<path d="M75.062 32.8566C77.5993 39.9135 77.6573 47.6241 75.2266 54.7183C72.7959 61.8126 68.0214 67.8674 61.6895 71.8854C55.3576 75.9033 47.846 77.6449 40.3921 76.8231C32.9381 76.0014 25.9863 72.6653 20.6818 67.3644C15.3773 62.0636 12.0364 55.1141 11.2095 47.6607C10.3826 40.2073 12.119 32.6946 16.1326 26.3599C20.1462 20.0253 26.1977 15.2466 33.2902 12.8109C40.3828 10.3753 48.0934 10.428 55.1521 12.9604C55.6126 9.21054 57.2548 5.70463 59.8408 2.95039C50.4307 -0.680893 40.0587 -0.968892 30.4616 2.13461C20.8645 5.23812 12.6251 11.5447 7.12302 19.9983C1.62094 28.4518 -0.809693 38.5391 0.238143 48.571C1.28598 58.6028 5.74866 67.9701 12.8789 75.1042C20.0091 82.2383 29.374 86.7061 39.4052 87.7594C49.4365 88.8127 59.5251 86.3876 67.9817 80.8901C76.4383 75.3926 82.7493 67.1566 85.858 57.5612C88.9668 47.9658 88.6844 37.5937 85.0583 28.1816C82.3059 30.76 78.8054 32.3971 75.062 32.8566Z" fill="#ADC0E0"/>
<path d="M40.8104 45.8368L31.1854 37.1605L23.8154 45.383L37.5654 57.758C38.5823 58.6549 39.8946 59.1446 41.2504 59.133H41.5529C42.2803 59.0943 42.9928 58.9115 43.649 58.5952C44.3052 58.2789 44.892 57.8354 45.3754 57.2905L67.3754 32.5405L59.1254 25.2393L40.8104 45.8368Z" fill="#97EA70"/>
<path d="M72.8765 22.0078C76.6734 22.0078 79.7515 18.9298 79.7515 15.1328C79.7515 11.3359 76.6734 8.25781 72.8765 8.25781C69.0795 8.25781 66.0015 11.3359 66.0015 15.1328C66.0015 18.9298 69.0795 22.0078 72.8765 22.0078Z" fill="#0048C1"/>
</svg>
