<svg width="142" height="185" viewBox="0 0 142 185" fill="none" xmlns="http://www.w3.org/2000/svg">
<path d="M62.6572 69.9747C63.3028 65.3757 66.7454 61.592 71.8327 59.7924C79.317 57.1302 87.0553 59.1608 94.1135 65.4919C96.7509 67.8577 98.8475 70.4337 100.298 72.4555C98.7317 66.9345 97.4002 57.1368 105.273 51.7435C108.5 49.5274 112.247 49.2549 115.22 50.8407C117.882 52.259 119.863 55.0207 119.837 58.2057C119.81 61.2057 118.141 69.4188 103.83 76.7763L102.396 77.5082C80.8584 88.4115 71.0802 83.3075 67.6753 80.8767C64.12 78.3332 62.081 74.0724 62.6572 69.9747ZM117.728 57.9938C117.753 55.4201 116.5 53.2088 114.376 52.0752C112.285 50.9592 109.724 51.0474 107.32 52.2759C106.921 52.4779 106.525 52.7133 106.138 52.9802C97.2689 59.0563 101.395 71.4472 102.668 74.6614C116.164 67.5618 117.697 60.6588 117.728 57.9938ZM68.3392 79.2229C71.4797 81.4585 80.8627 85.5419 100.585 75.7249C98.3134 72.0623 87.2813 55.9091 72.3172 61.2254C71.6781 61.4513 71.0712 61.7156 70.4925 62.0058C66.9987 63.7874 64.7046 66.7327 64.2217 70.1575C63.7369 73.6447 65.2743 77.0333 68.3392 79.2229Z" fill="#7F6FE5"/>
<path d="M42.4522 106.357L161.087 45.9268L179.104 81.2975L60.4695 141.728L42.4522 106.357Z" fill="#7F88E5"/>
<path d="M68.1092 137.833L171.463 85.1865L209.544 159.946L106.19 212.593L68.1092 137.833Z" fill="#F7D244"/>
<path d="M87.8405 83.2394L116.558 68.6113L134.575 103.982L105.858 118.61L87.8405 83.2394Z" fill="#7F6FE5"/>
<path d="M109.591 116.705L130.852 105.875L168.933 180.634L147.672 191.465L109.591 116.705Z" fill="#F4C645"/>
<path d="M145.501 45.0911C142.608 45.9584 139.559 44.3162 138.692 41.4231C137.825 38.53 139.467 35.4817 142.36 34.6143C145.253 33.747 148.301 35.3892 149.169 38.2823C150.036 41.1754 148.394 44.2238 145.501 45.0911Z" fill="#CC554C"/>
<path d="M54.8922 173.97C51.9991 174.837 48.9508 173.195 48.0835 170.302C47.2161 167.409 48.8583 164.361 51.7514 163.493C54.6445 162.626 57.6928 164.268 58.5602 167.161C59.4275 170.054 57.7853 173.103 54.8922 173.97Z" fill="#93278F"/>
<path d="M49.379 85.0471C46.4859 85.9144 43.4376 84.2722 42.5702 81.3792C41.7029 78.4861 43.3451 75.4377 46.2382 74.5704C49.1313 73.7031 52.1797 75.3453 53.047 78.2384C53.9143 81.1314 52.2721 84.1798 49.379 85.0471Z" fill="#FBB03B"/>
<path d="M87.02 46.5246C87.02 46.5246 84.15 45.0313 85.0994 41.5833C86.0426 38.1372 83.7159 36.9683 83.7159 36.9683L86.1399 36.2416C86.1399 36.2416 88.4685 37.4168 87.5234 40.8566C86.5803 44.3027 89.4439 45.7979 89.4439 45.7979L87.02 46.5246Z" fill="#22B573"/>
<path d="M132.319 49.6471L133.324 48.1243L130.16 46.0398C129.494 45.6015 129.123 44.8686 129.151 44.071C129.188 43.2777 129.623 42.5777 130.319 42.1976C131.592 41.5003 132.384 40.2268 132.436 38.7769C132.489 37.327 131.793 35.9915 130.571 35.2119L128.114 33.6293C127.451 33.2036 127.07 32.4807 127.081 31.695C127.099 30.9074 127.511 30.2005 128.189 29.8053L129.402 29.0916C130.539 28.4213 131.269 27.2832 131.396 25.9686C131.524 24.6541 131.023 23.3974 130.035 22.5271L125.75 18.7614L124.547 20.1305L128.833 23.8962C129.382 24.3767 129.652 25.0712 129.588 25.797C129.518 26.5248 129.116 27.1531 128.492 27.5187L127.278 28.2324C126.046 28.9518 125.298 30.2328 125.271 31.6544C125.244 33.076 125.94 34.3906 127.138 35.1571L129.595 36.7397C130.268 37.1761 130.653 37.9115 130.625 38.7092C130.596 39.5068 130.157 40.215 129.455 40.597C128.186 41.2862 127.401 42.5578 127.338 43.997C127.276 45.4361 127.963 46.7672 129.161 47.5607L132.319 49.6471Z" fill="#C7529B"/>
<path d="M43.9191 140.451C44.1122 140.441 44.3023 140.417 44.4947 140.375L48.2127 139.63L47.8527 137.84L44.1347 138.585C43.3571 138.744 42.5691 138.485 42.0316 137.896C41.4941 137.307 41.3147 136.504 41.5374 135.744C41.9529 134.357 41.6104 132.888 40.6298 131.819C39.644 130.755 38.2152 130.297 36.7926 130.603L33.9341 131.208C33.1606 131.372 32.3847 131.129 31.8398 130.562C31.3 129.992 31.096 129.199 31.2951 128.442L31.6558 127.081C31.9922 125.806 31.7069 124.484 30.8706 123.461C30.0343 122.438 28.7982 121.895 27.4824 121.975L21.7911 122.314L21.8992 124.134L27.5906 123.796C28.3168 123.752 29.0018 124.05 29.4626 124.616C29.9233 125.182 30.0839 125.908 29.8915 126.61L29.5307 127.971C29.1637 129.345 29.5331 130.785 30.5181 131.817C31.5032 132.849 32.9158 133.286 34.3136 132.991L37.1721 132.385C37.9601 132.218 38.744 132.472 39.2867 133.057C39.8294 133.642 40.0169 134.456 39.789 135.22C39.3787 136.603 39.7131 138.061 40.6804 139.124C41.5278 140.055 42.7071 140.524 43.9191 140.451Z" fill="#DF4F00"/>
</svg>
