<svg width="260" height="68" viewBox="0 0 260 68" fill="none" xmlns="http://www.w3.org/2000/svg">
<g clip-path="url(#clip0_84_137)">
<path fill-rule="evenodd" clip-rule="evenodd" d="M80.4866 25.5374V26.9919C80.9551 26.479 81.4697 26.058 82.015 25.7058C83.4436 24.8102 85.095 24.4581 86.7771 24.4581H87.5605V25.2389V27.2675V28.0483H86.7771C85.0182 28.0483 83.3284 28.6224 82.1533 29.8855C81.1394 30.9878 80.4866 32.626 80.4866 34.9072V46.6425V47.4233H79.7031H77.5832H76.7998V46.6425V25.5374V24.7566H77.5832H79.7031H80.4866V25.5374ZM107.638 27.8875V25.5374V24.7566H108.421H110.58H111.363V25.5374V46.6425V47.4233H110.58H108.421H107.638V46.6425V44.2924C106.885 45.1268 106.002 45.8387 105.011 46.4052C103.367 47.3467 101.44 47.8826 99.312 47.8826C96.063 47.8826 93.106 46.5812 90.9707 44.4378C88.8662 42.3327 87.5605 39.4084 87.5605 36.0938C87.5605 32.7791 88.8662 29.8549 90.9707 27.7421C93.106 25.591 96.0707 24.2973 99.312 24.2973C101.44 24.2973 103.367 24.8332 105.011 25.7747C106.002 26.3412 106.877 27.0531 107.638 27.8875ZM93.659 41.9269C95.1337 43.3967 97.1768 44.3 99.481 44.3C101.778 44.3 103.813 43.4044 105.272 41.9346C106.739 40.4572 107.63 38.398 107.63 36.0938C107.63 33.7896 106.739 31.7304 105.272 30.253C103.813 28.7832 101.778 27.8875 99.481 27.8875C97.1768 27.8875 95.1337 28.7908 93.659 30.2606C92.1843 31.738 91.2856 33.7973 91.2856 36.0938C91.2856 38.398 92.1843 40.4495 93.659 41.9269ZM119.912 20.4851C119.466 20.9291 118.844 21.2123 118.16 21.2123C117.477 21.2123 116.862 20.9367 116.409 20.4851C115.964 20.0411 115.68 19.421 115.68 18.7397C115.68 18.0814 115.964 17.4613 116.417 17.0173C116.862 16.581 117.477 16.3054 118.153 16.3054C118.829 16.3054 119.443 16.581 119.889 17.0173C120.349 17.4613 120.634 18.0737 120.634 18.7397C120.641 19.421 120.365 20.0411 119.912 20.4851ZM119.22 47.4309H117.101H116.317V46.6501V25.5374V24.7566H117.101H119.22H120.004V25.5374V46.6425V47.4233H119.22V47.4309ZM130.519 25.5374C131.955 24.6877 133.629 24.2973 135.442 24.2973C138.176 24.2973 140.412 25.2083 141.986 26.8235C143.561 28.4464 144.444 30.7505 144.444 33.5217V46.6501V47.4309H143.66H141.502H140.719V46.6501V33.5217C140.719 31.761 140.219 30.3219 139.275 29.3497C138.368 28.4157 137.017 27.8875 135.273 27.8875C133.322 27.8875 131.602 28.5382 130.411 29.8855C129.313 31.1333 128.645 32.9935 128.645 35.5043V46.6501V47.4309H127.861H125.741H124.958V46.6501V25.5374V24.7566H125.741H127.861H128.645V25.5374V27.0531C129.213 26.4407 129.835 25.9432 130.519 25.5374ZM157.294 42.325L163.991 25.2619L164.183 24.7643H164.713H167.002H168.154L167.732 25.8283L158.584 48.8778C157.708 51.0824 156.395 52.9349 154.79 54.1827C153.223 55.3999 151.387 56.0352 149.406 55.8745L148.684 55.8132V55.0937V53.111V52.2613L149.536 52.3378C150.673 52.4374 151.694 52.0852 152.562 51.3963C153.576 50.6001 154.413 49.3677 155.051 47.8749L155.389 47.0405L145.788 25.8589L145.289 24.7566H146.502H148.791H149.298L149.505 25.2159L157.294 42.325ZM187.863 27.9411V17.0939V16.3131H188.646H190.766H191.55V17.0939V46.6425V47.4233H190.766H188.646H187.863V46.6425V44.2464C187.126 45.0885 186.258 45.8081 185.282 46.3822C183.639 47.3544 181.695 47.8979 179.537 47.8979C176.273 47.8979 173.316 46.6042 171.188 44.4608C169.084 42.348 167.786 39.4161 167.786 36.1014C167.786 32.7868 169.084 29.8549 171.188 27.7421C173.323 25.5987 176.273 24.305 179.537 24.305C181.695 24.305 183.639 24.8485 185.282 25.8207C186.258 26.3795 187.126 27.0991 187.863 27.9411ZM173.846 41.9269C175.32 43.3967 177.363 44.3 179.668 44.3C181.972 44.3 184.015 43.3967 185.49 41.9269C186.964 40.4495 187.863 38.3903 187.863 36.0938C187.863 33.7896 186.964 31.738 185.49 30.2606C184.015 28.7908 181.972 27.8875 179.668 27.8875C177.363 27.8875 175.32 28.7908 173.846 30.2606C172.371 31.738 171.472 33.7973 171.472 36.0938C171.472 38.398 172.371 40.4495 173.846 41.9269ZM215.145 27.8875V25.5374V24.7566H215.928H218.087H218.87V25.5374V46.6425V47.4233H218.087H215.928H215.145V46.6425V44.2924C214.392 45.1268 213.509 45.8387 212.518 46.4052C210.874 47.3467 208.947 47.8826 206.819 47.8826C203.57 47.8826 200.613 46.5812 198.478 44.4378C196.373 42.325 195.068 39.4008 195.068 36.0861C195.068 32.7715 196.373 29.8472 198.478 27.7344C200.613 25.5834 203.578 24.2897 206.819 24.2897C208.947 24.2897 210.874 24.8255 212.518 25.7671C213.509 26.3412 214.384 27.0531 215.145 27.8875ZM201.166 41.9269C202.633 43.3967 204.684 44.3 206.988 44.3C209.285 44.3 211.32 43.4044 212.779 41.9346C214.246 40.4572 215.137 38.398 215.137 36.0938C215.137 33.7896 214.246 31.7304 212.779 30.253C211.32 28.7832 209.285 27.8875 206.988 27.8875C204.684 27.8875 202.641 28.7908 201.166 30.2606C199.691 31.738 198.793 33.7973 198.793 36.0938C198.793 38.398 199.691 40.4495 201.166 41.9269ZM232.688 42.325L239.385 25.2619L239.577 24.7643H240.107H242.396H243.548L243.126 25.8283L233.978 48.8778C233.102 51.0824 231.789 52.9349 230.184 54.1827C228.617 55.3999 226.781 56.0352 224.8 55.8745L224.078 55.8132V55.0937V53.111V52.2613L224.93 52.3378C226.067 52.4374 227.088 52.0852 227.956 51.3963C228.97 50.6001 229.807 49.3677 230.445 47.8749L230.783 47.0405L221.182 25.8589L220.683 24.7566H221.896H224.185H224.692L224.899 25.2159L232.688 42.325ZM248.256 28.8291C247.581 29.3573 247.166 30.1075 247.166 31.0644C247.166 33.07 249.608 33.6977 252.243 34.3637C255.96 35.313 260 36.3464 260 41.1079C260 43.0982 259.117 44.8282 257.581 46.0377C256.122 47.1936 254.063 47.8826 251.636 47.8826C249.455 47.8826 247.619 47.385 246.167 46.543C244.57 45.609 243.448 44.2617 242.857 42.6925L242.627 42.08L243.195 41.7509L245.015 40.6945L245.845 40.2122L246.152 41.1232C246.475 42.0877 247.135 42.8838 248.049 43.4273C248.986 43.9862 250.207 44.3 251.636 44.3C253.042 44.3 254.309 43.9862 255.177 43.3584C255.883 42.8456 256.321 42.0954 256.321 41.1079C256.321 39.041 253.833 38.398 251.167 37.709C247.465 36.7521 243.487 35.7263 243.487 31.0567C243.487 29.12 244.339 27.3823 245.822 26.1498C247.212 24.9939 249.163 24.282 251.475 24.282C253.31 24.282 254.939 24.7183 256.275 25.5068C257.673 26.3259 258.741 27.5124 259.394 28.9669L259.678 29.6099L259.063 29.9621L257.281 30.9725L256.506 31.4165L256.168 30.5898C255.814 29.7171 255.208 29.0664 254.455 28.6224C253.602 28.1172 252.558 27.8722 251.467 27.8722C250.2 27.8799 249.055 28.2091 248.256 28.8291Z" fill="white"/>
<path d="M208.463 14.6748C208.463 13.5878 209.461 12.9754 210.644 12.9754C211.643 12.9754 212.587 13.4117 212.971 14.3533L213.732 13.9169C213.24 12.8146 212.119 12.1104 210.644 12.1104C208.793 12.1104 207.556 13.251 207.556 14.6825C207.556 17.9435 213.056 16.5273 213.056 18.9923C213.056 20.1329 211.988 20.6917 210.713 20.6917C209.354 20.6917 208.371 20.0793 208.04 19.0994L207.257 19.5511C207.695 20.707 208.893 21.5567 210.705 21.5567C212.649 21.5567 213.954 20.4697 213.954 18.9846C213.962 15.6776 208.463 17.1015 208.463 14.6748ZM223.878 12.3094V14.3533C223.118 12.9983 221.72 12.1104 219.976 12.1104C217.395 12.1104 215.276 14.1543 215.276 16.8335C215.276 19.5128 217.403 21.5567 219.976 21.5567C221.72 21.5567 223.118 20.6687 223.878 19.3138V21.3577H224.807V12.3094H223.878ZM220.045 20.684C217.887 20.684 216.197 18.9846 216.197 16.8259C216.197 14.6748 217.887 12.9677 220.045 12.9677C222.203 12.9677 223.878 14.6671 223.878 16.8259C223.878 18.9846 222.211 20.684 220.045 20.684ZM234.262 12.3094L230.829 20.4161L227.419 12.3094H226.436L230.284 21.3577H231.39L235.222 12.3094H234.262ZM240.599 12.1104C237.818 12.1104 235.898 14.1696 235.898 16.8335C235.898 19.5664 237.88 21.5567 240.676 21.5567C242.473 21.5567 243.886 20.7453 244.631 19.5128L243.832 19.0458C243.302 20.0027 242.181 20.6917 240.691 20.6917C238.625 20.6917 237.058 19.3521 236.843 17.3081H245.069C245.069 17.1627 245.084 17.0173 245.084 16.8718C245.084 14.3916 243.364 12.1104 240.599 12.1104ZM240.599 12.9754C242.381 12.9754 243.94 14.2078 244.14 16.4125H236.843C237.027 14.4069 238.533 12.9754 240.599 12.9754ZM248.118 14.0777V12.3017H247.212V21.3577H248.118V16.3283C248.118 14.0088 249.585 13.0519 251.152 13.0519V12.1869C249.916 12.1792 248.733 12.6539 248.118 14.0777ZM253.241 14.6748C253.241 13.5878 254.24 12.9754 255.423 12.9754C256.421 12.9754 257.366 13.4117 257.75 14.3533L258.51 13.9169C258.019 12.8146 256.897 12.1104 255.423 12.1104C253.572 12.1104 252.335 13.251 252.335 14.6825C252.335 17.9435 257.834 16.5273 257.834 18.9923C257.834 20.1329 256.767 20.6917 255.492 20.6917C254.132 20.6917 253.149 20.0793 252.827 19.0994L252.043 19.5511C252.481 20.707 253.679 21.5567 255.492 21.5567C257.435 21.5567 258.741 20.4697 258.741 18.9846C258.741 15.6776 253.241 17.1015 253.241 14.6748Z" fill="white"/>
<path fill-rule="evenodd" clip-rule="evenodd" d="M11.6069 57.7495C12.1292 58.7217 12.0063 61.4928 15.1784 62.7483C17.7822 63.7817 19.879 61.799 22.4597 64.1109C24.1341 65.6189 24.3415 67.5097 27.3293 67.9307C30.801 68.4207 31.2081 65.994 34.4877 66.1241C37.2989 66.239 37.9978 68.5891 41.4234 67.8695C44.4189 67.2418 44.465 65.1596 46.2546 63.8736C49.3653 61.6383 53.2133 64.8917 55.8478 60.5053C56.5314 59.3647 56.4546 57.9409 56.9001 57.206C58.4285 53.3555 61.8465 54.5956 63.7359 51.901C66.1707 48.4256 62.5761 45.6545 65.4564 42.3858C66.4011 41.3141 70.4566 38.5582 67.3228 34.1795C63.9279 29.4487 67.246 28.7597 67.1001 24.6184C66.7237 21.0511 63.2904 20.6454 62.0538 18.8464C60.9401 17.2312 61.3319 16.5423 61.1091 14.3682C61.0016 13.2965 60.5177 12.2478 59.8725 11.4746L58.9816 10.7933C57.768 10.2345 58.6436 9.91296 55.5406 9.61441C52.2302 9.2929 51.5927 7.14182 50.6787 5.2893C50.2179 4.34772 49.3576 3.5516 48.3975 3.07698C45.2868 1.54597 43.4665 4.00324 40.5862 3.20712C38.0823 2.51051 37.4986 0.244604 34.6798 0.0226074C31.3387 -0.24532 30.6627 2.13541 28.3585 3.01574C24.81 4.37834 22.3676 0.688598 18.8114 3.94966C16.6838 5.89405 17.3521 8.79532 13.3811 9.5149C12.6822 9.64503 11.9679 9.62972 11.2766 9.79813C10.6929 9.94358 10.2167 10.2345 9.59454 10.4029C9.40252 10.778 8.63445 11.2679 8.26577 11.7808C6.43776 14.3529 8.02767 15.9452 6.55297 18.5096C5.03219 21.1583 2.16728 20.2932 1.29936 24.427C1.21487 27.6421 2.18265 27.3053 2.49755 29.6018C2.78174 31.6457 2.18265 32.7251 1.15343 34.08C0.231743 35.2972 -0.390395 37.1344 0.270146 39.0941C0.853881 40.8241 1.9215 41.2222 2.94304 42.3781C5.7465 45.5626 2.16728 49.0074 4.91698 52.1996C6.6605 54.2282 11.3457 54.2282 11.6069 57.7495ZM9.51773 50.2858C9.77888 51.2427 9.11065 53.654 11.6376 55.3994C13.7114 56.8309 15.9619 55.5142 17.7591 58.071C18.9266 59.7322 18.7269 61.4392 21.2615 62.4114C24.2109 63.5444 25.0635 61.4928 27.9207 62.2736C30.3632 62.9396 30.5015 65.152 33.6582 65.2055C36.4156 65.2591 36.8841 63.4372 38.7198 62.6717C41.9073 61.3397 44.6263 64.9759 47.8368 61.6536C48.674 60.7886 48.8891 59.5255 49.4344 58.9667C51.562 55.8893 54.3117 57.673 56.5237 55.6903C59.3733 53.1258 56.7772 49.9643 59.9724 47.6831C61.0169 46.9329 65.1492 45.3253 63.2828 40.8548C61.2627 36.0091 64.3197 36.078 65.034 32.4036C65.4334 29.1961 62.4993 28.1397 61.7773 26.3101C61.1245 24.6643 61.616 24.1361 61.8618 22.184C61.9847 21.2195 61.7773 20.2014 61.3703 19.3899L60.7251 18.6091C59.7727 17.8742 60.6022 17.7671 57.937 16.8791C55.0951 15.9298 54.9722 13.9013 54.5421 12.0947C54.327 11.176 53.7356 10.3034 52.9906 9.69096C50.5635 7.71595 48.4667 9.50724 46.101 8.22884C44.0426 7.1112 43.9888 4.9984 41.554 4.2329C38.6737 3.32194 37.5908 5.27399 35.3941 5.58784C31.9992 6.06246 30.6013 2.33444 26.8147 4.47786C24.5489 5.75626 24.5489 8.43553 20.9082 8.26712C20.2707 8.2365 19.6409 8.0834 19.0034 8.09105C18.4581 8.09871 17.9819 8.25946 17.4058 8.28243C17.16 8.57332 16.3843 8.84891 15.9542 9.224C13.8266 11.1148 14.9019 12.8372 13.0816 14.7892C11.2075 16.8102 8.86487 15.4705 7.2596 18.9306C6.52993 21.74 7.44394 21.6405 7.2596 23.7227C7.09062 25.5752 6.34559 26.4096 5.17044 27.3895C4.11051 28.2698 3.18882 29.7626 3.37316 31.6151C3.53445 33.2533 4.39469 33.8197 5.04755 35.0446C6.8602 38.4128 3.01216 40.717 4.77873 44.0775C5.89243 46.1903 10.0016 47.1396 9.51773 50.2858Z" fill="white"/>
<path fill-rule="evenodd" clip-rule="evenodd" d="M11.8134 48.3264C12.0361 49.1914 11.3986 51.3502 13.6568 52.9501C15.5078 54.2667 17.5432 53.1108 19.1254 55.4303C20.147 56.9384 19.9473 58.4694 22.2208 59.3727C24.8553 60.4291 25.6464 58.5919 28.204 59.3344C30.3931 59.9621 30.4929 61.9524 33.3271 62.0443C35.808 62.1285 36.2458 60.498 37.9048 59.832C40.7851 58.6761 43.1814 61.9754 46.1078 59.0282C46.8682 58.2627 47.0833 57.1297 47.5748 56.6398C49.5257 53.8993 51.9759 55.5375 53.9882 53.7845C56.5843 51.5186 54.2878 48.6403 57.1911 46.627C58.1435 45.9686 61.8763 44.5754 60.2557 40.5259C58.5045 36.1472 61.2465 36.2467 61.9378 32.955C62.3372 30.0767 59.7104 29.0969 59.0882 27.4357C58.5275 25.9506 58.973 25.4837 59.2188 23.723C59.3417 22.858 59.165 21.9394 58.8117 21.2045L58.2433 20.5002C57.3908 19.8266 58.1435 19.7424 55.7625 18.908C53.2201 18.02 53.1357 16.1981 52.7747 14.5675C52.5903 13.7408 52.0757 12.9447 51.4075 12.3858C49.2569 10.5793 47.3444 12.1639 45.2322 10.985C43.3965 9.95919 43.3811 8.06073 41.1998 7.34116C38.6191 6.49144 37.6283 8.22914 35.6467 8.48176C32.5897 8.86451 31.3839 5.49628 27.9506 7.37178C25.8998 8.48942 25.8614 10.9008 22.5894 10.7017C22.0134 10.6635 21.4527 10.518 20.8766 10.5257C20.3928 10.5257 19.955 10.6635 19.4327 10.6711C19.2099 10.9314 18.511 11.161 18.1193 11.4979C16.1837 13.1667 17.1208 14.736 15.4694 16.466C13.7566 18.2573 11.6751 17.0248 10.1851 20.1098C9.49382 22.6283 10.3233 22.5441 10.1236 24.412C9.95466 26.0731 9.27107 26.8157 8.19577 27.6807C7.23568 28.4615 6.38312 29.7858 6.52906 31.4623C6.65195 32.9397 7.42002 33.4603 7.99607 34.5626C9.5783 37.6093 6.09894 39.6302 7.64276 42.677C8.60285 44.5984 12.2896 45.5017 11.8134 48.3264ZM11.6137 42.0492C11.6291 42.853 10.6382 44.6214 12.2896 46.4892C13.6491 48.0202 15.6768 47.4155 16.5908 49.7732C17.1822 51.3042 16.6983 52.6056 18.5033 53.8687C20.6078 55.3308 21.6754 53.8763 23.7723 55.0399C25.5696 56.0351 25.247 57.8034 27.7202 58.4541C29.8784 59.0282 30.6004 57.6886 32.198 57.4359C34.9631 56.9996 36.3994 60.3908 39.5715 58.3928C40.401 57.8723 40.8158 56.9154 41.3534 56.5862C43.6269 54.5729 45.4396 56.5097 47.5671 55.3767C50.3092 53.9146 48.8805 50.9215 51.8376 49.7349C52.8054 49.3445 56.3692 48.8776 55.7701 44.9965C55.125 40.7938 57.5137 41.4368 58.7887 38.681C59.7257 36.2314 57.6212 34.8382 57.4061 33.2536C57.2141 31.8297 57.698 31.5082 58.2741 30.0231C58.5582 29.2882 58.589 28.4462 58.4277 27.7266L58.0667 26.9917C57.4599 26.2262 58.1358 26.3028 56.2079 25.0933C54.1572 23.7996 54.4491 22.1767 54.4644 20.6686C54.4721 19.9031 54.1802 19.0993 53.7117 18.4793C52.1909 16.4507 50.1863 17.4612 48.5733 15.999C47.1677 14.7206 47.5364 13.0518 45.7699 11.9801C43.673 10.7094 42.4518 12.0414 40.6545 11.8576C37.8894 11.5744 37.5131 8.37459 34.1182 9.32382C32.0905 9.89029 31.5682 12.0031 28.734 11.1687C28.2348 11.0232 27.7739 10.7783 27.267 10.6635C26.8369 10.5639 26.4298 10.5946 25.969 10.5027C25.7232 10.6864 25.055 10.7477 24.6402 10.962C22.5971 12.0414 23.104 13.603 21.2991 14.7895C19.4327 16.0144 17.8504 14.514 15.9072 16.9253C14.7858 18.9998 15.5309 19.0917 14.9778 20.6916C14.4863 22.1154 13.7336 22.6283 12.6199 23.1718C11.6137 23.6618 10.5998 24.6569 10.3848 26.1573C10.1928 27.4816 10.7611 28.0941 11.0376 29.1811C11.8134 32.1819 8.33403 33.2536 9.07138 36.239C9.55526 38.1222 12.6122 39.6685 11.6137 42.0492Z" fill="white"/>
<path fill-rule="evenodd" clip-rule="evenodd" d="M15.377 41.6359C15.4154 42.3172 14.632 43.8482 16.0836 45.3716C17.2818 46.627 18.9793 46.0529 19.8241 48.0202C20.3771 49.2986 20.0008 50.4163 21.5753 51.4267C23.4034 52.598 24.2636 51.3349 26.0762 52.2611C27.6277 53.0496 27.4127 54.5577 29.5249 55.0323C31.3759 55.4533 31.9443 54.2974 33.2884 54.0295C35.6157 53.5778 36.9368 56.4025 39.5636 54.6113C40.2472 54.1443 40.5698 53.3252 41.0152 53.0267C42.8817 51.2507 44.4792 52.8353 46.2381 51.8095C48.5116 50.4852 47.2136 47.9973 49.6868 46.9026C50.4932 46.5428 53.4964 46.0376 52.8743 42.7689C52.1984 39.2322 54.2414 39.6992 55.2399 37.3261C55.9542 35.221 54.1339 34.111 53.9035 32.7713C53.6961 31.5695 54.0955 31.2863 54.541 30.0079C54.756 29.3725 54.7637 28.6606 54.6024 28.0558L54.2798 27.4434C53.7422 26.8157 54.3182 26.8616 52.6515 25.8894C50.8696 24.856 51.0693 23.4781 51.0386 22.1997C51.0232 21.549 50.7467 20.883 50.3319 20.3625C48.9801 18.6937 47.3134 19.6123 45.9002 18.4181C44.6713 17.377 44.9324 15.9532 43.4039 15.0958C41.5913 14.0853 40.5928 15.2489 39.072 15.1494C36.7217 14.9963 36.307 12.294 33.4574 13.205C31.7523 13.7485 31.3759 15.5551 28.9488 14.935C28.5264 14.8279 28.127 14.6365 27.6892 14.5523C27.3205 14.4834 26.9826 14.5217 26.5832 14.4528C26.3758 14.6135 25.8151 14.6901 25.4771 14.8891C23.7797 15.8613 24.2636 17.1703 22.7659 18.2344C21.222 19.329 19.8395 18.1042 18.265 20.2094C17.3817 22.0007 18.0115 22.0542 17.5967 23.4322C17.2281 24.657 16.6059 25.1086 15.6765 25.6062C14.8394 26.0502 14.0098 26.9305 13.8793 28.2013C13.7564 29.3266 14.2556 29.8241 14.5244 30.7428C15.2695 33.2613 12.3585 34.2717 13.0805 36.7826C13.5106 38.3749 16.1451 39.5844 15.377 41.6359ZM16.1451 36.8974C16.0452 37.5022 15.0391 38.6887 16.0068 40.3269C16.8056 41.6665 18.4109 41.5058 18.7565 43.4119C18.9793 44.6444 18.4262 45.5553 19.6014 46.7572C20.9686 48.158 21.9824 47.2241 23.3803 48.3953C24.5862 49.4058 24.0869 50.6842 25.8458 51.5263C27.382 52.2688 28.1193 51.3655 29.3559 51.4114C31.4988 51.488 32.0826 54.2362 34.7478 53.1951C35.4467 52.9271 35.8922 52.2688 36.3454 52.1004C38.3423 50.9215 39.4253 52.6362 41.1842 52.0851C43.4577 51.3808 42.8125 48.9312 45.2089 48.4719C45.9923 48.3188 48.7344 48.4872 48.8496 45.4788C48.9725 42.233 50.6776 43.0598 52.0371 41.1766C53.097 39.4772 51.7222 38.1222 51.7913 36.9051C51.8527 35.8104 52.2675 35.642 52.9127 34.6009C53.2353 34.088 53.3812 33.4603 53.3658 32.9015L53.2045 32.2967C52.8589 31.6384 53.3581 31.7915 52.0831 30.605C50.7313 29.3342 51.1845 28.163 51.4149 27.0377C51.5301 26.4636 51.4303 25.8205 51.1691 25.2847C50.3166 23.547 48.6729 24.0139 47.6744 22.682C46.8065 21.5184 47.3288 20.3242 46.1536 19.2601C44.7711 18.0047 43.6497 18.8238 42.3363 18.4334C40.3009 17.821 40.4853 15.3637 37.797 15.5857C36.1917 15.7235 35.4928 17.2316 33.4881 16.1905C33.1348 16.0067 32.8276 15.7618 32.4589 15.601C32.1517 15.4632 31.8445 15.4326 31.5065 15.2948C31.2914 15.3943 30.7845 15.3484 30.4466 15.4479C28.7568 15.9608 28.9104 17.2086 27.382 17.8363C25.7997 18.487 24.832 17.132 23.027 18.6631C21.8902 20.0563 22.4279 20.2323 21.7827 21.3576C21.2067 22.3604 20.5692 22.6284 19.6552 22.881C18.8333 23.103 17.927 23.7077 17.543 24.7948C17.205 25.7593 17.543 26.3028 17.5967 27.1525C17.7427 29.5179 14.9776 29.8165 15.1005 32.1666C15.1696 33.6517 17.2357 35.2516 16.1451 36.8974Z" fill="white"/>
<path d="M43.1584 47.4691H39.6483V44.9812C39.6483 43.7334 39.4102 42.5316 38.934 41.3603C38.4578 40.1968 37.7742 39.1557 36.8833 38.2447C36.6068 37.9691 36.169 37.6017 35.5699 37.15C33.9416 36.0401 32.1673 35.4889 30.2395 35.4889V31.9599C32.0291 31.9599 33.7803 32.335 35.5084 33.0852C35.8694 32.8249 36.2535 32.4805 36.6682 32.0441C37.4977 31.1332 38.1352 30.0844 38.573 28.8826C39.0108 27.6884 39.2259 26.4023 39.2259 25.0397H28.7264V47.4614H25.1855V21.5107H42.7744V25.0397C42.7744 26.9994 42.4134 28.852 41.6837 30.605C40.9617 32.358 39.9402 33.8431 38.6345 35.0679C40.0631 36.2774 41.1768 37.7395 41.9679 39.4695C42.759 41.1996 43.1584 43.0368 43.1584 44.9735V47.4691Z" fill="white"/>
</g>
<defs>
<clipPath id="clip0_84_137">
<rect width="260" height="68" fill="white"/>
</clipPath>
</defs>
</svg>
