<svg width="175" height="46" viewBox="0 0 175 46" fill="none" xmlns="http://www.w3.org/2000/svg">
<path fill-rule="evenodd" clip-rule="evenodd" d="M54.176 17.2263V18.2075C54.4913 17.8615 54.8377 17.5775 55.2047 17.34C56.1663 16.7357 57.2778 16.4982 58.4099 16.4982H58.9372V17.0249V18.3934V18.9202H58.4099C57.2261 18.9202 56.0887 19.3075 55.2978 20.1596C54.6154 20.9032 54.176 22.0083 54.176 23.5472V31.4638V31.9906H53.6487H52.2219H51.6946V31.4638V17.2263V16.6996H52.2219H53.6487H54.176V17.2263ZM72.4506 18.8117V17.2263V16.6996H72.9779H74.4305H74.9578V17.2263V31.4638V31.9906H74.4305H72.9779H72.4506V31.4638V29.8784C71.9439 30.4413 71.3494 30.9216 70.6826 31.3037C69.5763 31.9389 68.2787 32.3004 66.8467 32.3004C64.66 32.3004 62.6697 31.4225 61.2325 29.9765C59.816 28.5564 58.9372 26.5837 58.9372 24.3477C58.9372 22.1116 59.816 20.1389 61.2325 18.7136C62.6697 17.2625 64.6651 16.3898 66.8467 16.3898C68.2787 16.3898 69.5763 16.7512 70.6826 17.3864C71.3494 17.7686 71.9388 18.2488 72.4506 18.8117ZM63.0419 28.2827C64.0344 29.2742 65.4096 29.8836 66.9604 29.8836C68.5062 29.8836 69.8761 29.2794 70.8583 28.2879C71.8457 27.2912 72.4454 25.9021 72.4454 24.3477C72.4454 22.7933 71.8457 21.4041 70.8583 20.4074C69.8761 19.4159 68.5062 18.8117 66.9604 18.8117C65.4096 18.8117 64.0344 19.4211 63.0419 20.4126C62.0493 21.4093 61.4445 22.7984 61.4445 24.3477C61.4445 25.9021 62.0493 27.286 63.0419 28.2827ZM80.7116 13.818C80.4118 14.1175 79.993 14.3086 79.5329 14.3086C79.0728 14.3086 78.6593 14.1227 78.3543 13.818C78.0544 13.5185 77.8631 13.1002 77.8631 12.6406C77.8631 12.1965 78.0544 11.7782 78.3594 11.4787C78.6593 11.1843 79.0728 10.9984 79.5278 10.9984C79.9827 10.9984 80.3963 11.1843 80.6961 11.4787C81.0063 11.7782 81.1975 12.1913 81.1975 12.6406C81.2027 13.1002 81.0166 13.5185 80.7116 13.818ZM80.2463 31.9957H78.8195H78.2922V31.469V17.2263V16.6996H78.8195H80.2463H80.7736V17.2263V31.4638V31.9906H80.2463V31.9957ZM87.8508 17.2263C88.8175 16.6531 89.9445 16.3898 91.1646 16.3898C93.0049 16.3898 94.5093 17.0043 95.5691 18.0939C96.6288 19.1887 97.2233 20.7431 97.2233 22.6125V31.469V31.9957H96.696H95.2434H94.7161V31.469V22.6125C94.7161 21.4248 94.3801 20.4539 93.7442 19.7981C93.1342 19.168 92.2243 18.8117 91.0508 18.8117C89.7377 18.8117 88.5797 19.2507 87.7785 20.1596C87.0392 21.0013 86.5895 22.2562 86.5895 23.95V31.469V31.9957H86.0621H84.6353H84.108V31.469V17.2263V16.6996H84.6353H86.0621H86.5895V17.2263V18.2488C86.972 17.8357 87.3907 17.5 87.8508 17.2263ZM105.872 28.5513L110.38 17.0404L110.509 16.7048H110.866H112.406H113.182L112.898 17.4226L106.741 32.9717C106.151 34.459 105.267 35.7087 104.187 36.5505C103.132 37.3716 101.897 37.8002 100.563 37.6917L100.077 37.6504V37.165V35.8275V35.2543L100.651 35.3059C101.416 35.3731 102.103 35.1355 102.688 34.6707C103.37 34.1337 103.933 33.3022 104.363 32.2952L104.59 31.7323L98.128 17.4432L97.792 16.6996H98.6088H100.149H100.491L100.63 17.0094L105.872 28.5513ZM126.447 18.8479V11.5303V11.0036H126.974H128.401H128.929V11.5303V31.4638V31.9906H128.401H126.974H126.447V31.4638V29.8474C125.951 30.4155 125.367 30.9009 124.71 31.2882C123.604 31.9441 122.296 32.3107 120.843 32.3107C118.646 32.3107 116.656 31.438 115.224 29.992C113.807 28.5667 112.934 26.5889 112.934 24.3528C112.934 22.1168 113.807 20.1389 115.224 18.7136C116.661 17.2677 118.646 16.3949 120.843 16.3949C122.296 16.3949 123.604 16.7616 124.71 17.4174C125.367 17.7944 125.951 18.2798 126.447 18.8479ZM117.013 28.2827C118.005 29.2742 119.38 29.8836 120.931 29.8836C122.482 29.8836 123.857 29.2742 124.85 28.2827C125.842 27.286 126.447 25.8969 126.447 24.3477C126.447 22.7933 125.842 21.4093 124.85 20.4126C123.857 19.4211 122.482 18.8117 120.931 18.8117C119.38 18.8117 118.005 19.4211 117.013 20.4126C116.02 21.4093 115.415 22.7984 115.415 24.3477C115.415 25.9021 116.02 27.286 117.013 28.2827ZM144.81 18.8117V17.2263V16.6996H145.337H146.79H147.317V17.2263V31.4638V31.9906H146.79H145.337H144.81V31.4638V29.8784C144.303 30.4413 143.708 30.9216 143.042 31.3037C141.935 31.9389 140.638 32.3004 139.206 32.3004C137.019 32.3004 135.029 31.4225 133.592 29.9765C132.175 28.5513 131.296 26.5786 131.296 24.3425C131.296 22.1064 132.175 20.1337 133.592 18.7084C135.029 17.2573 137.024 16.3846 139.206 16.3846C140.638 16.3846 141.935 16.7461 143.042 17.3813C143.708 17.7686 144.298 18.2488 144.81 18.8117ZM135.401 28.2827C136.388 29.2742 137.769 29.8836 139.319 29.8836C140.865 29.8836 142.235 29.2794 143.217 28.2879C144.205 27.2912 144.804 25.9021 144.804 24.3477C144.804 22.7933 144.205 21.4041 143.217 20.4074C142.235 19.4159 140.865 18.8117 139.319 18.8117C137.769 18.8117 136.393 19.4211 135.401 20.4126C134.408 21.4093 133.804 22.7984 133.804 24.3477C133.804 25.9021 134.408 27.286 135.401 28.2827ZM156.617 28.5513L161.125 17.0404L161.254 16.7048H161.611H163.151H163.927L163.642 17.4226L157.485 32.9717C156.896 34.459 156.012 35.7087 154.932 36.5505C153.877 37.3716 152.642 37.8002 151.308 37.6917L150.822 37.6504V37.165V35.8275V35.2543L151.396 35.3059C152.161 35.3731 152.848 35.1355 153.433 34.6707C154.115 34.1337 154.678 33.3022 155.107 32.2952L155.335 31.7323L148.873 17.4432L148.537 16.6996H149.354H150.894H151.235L151.375 17.0094L156.617 28.5513ZM167.096 19.4469C166.641 19.8032 166.362 20.3093 166.362 20.9548C166.362 22.3078 168.006 22.7313 169.779 23.1806C172.281 23.8209 175 24.5181 175 27.7302C175 29.0728 174.406 30.2399 173.372 31.0558C172.389 31.8356 171.004 32.3004 169.37 32.3004C167.902 32.3004 166.667 31.9647 165.69 31.3967C164.614 30.7667 163.86 29.8578 163.462 28.7991L163.306 28.386L163.689 28.1639L164.914 27.4513L165.473 27.126L165.679 27.7405C165.896 28.3912 166.341 28.9282 166.956 29.2949C167.587 29.6719 168.409 29.8836 169.37 29.8836C170.316 29.8836 171.169 29.6719 171.754 29.2484C172.229 28.9024 172.524 28.3963 172.524 27.7302C172.524 26.3358 170.849 25.9021 169.055 25.4373C166.563 24.7918 163.885 24.0998 163.885 20.9497C163.885 19.6431 164.459 18.4709 165.457 17.6395C166.393 16.8597 167.706 16.3794 169.262 16.3794C170.497 16.3794 171.593 16.6738 172.493 17.2057C173.434 17.7582 174.152 18.5587 174.592 19.5399L174.783 19.9736L174.369 20.2112L173.17 20.8929L172.648 21.1924L172.42 20.6347C172.183 20.0459 171.774 19.607 171.268 19.3075C170.694 18.9666 169.991 18.8014 169.257 18.8014C168.404 18.8066 167.633 19.0286 167.096 19.4469Z" fill="#0000A7"/>
<path d="M140.312 9.89847C140.312 9.16516 140.984 8.75203 141.78 8.75203C142.452 8.75203 143.088 9.04639 143.346 9.68157L143.858 9.38722C143.527 8.64359 142.773 8.16849 141.78 8.16849C140.534 8.16849 139.702 8.93794 139.702 9.90363C139.702 12.1035 143.403 11.1482 143.403 12.811C143.403 13.5805 142.685 13.9575 141.827 13.9575C140.912 13.9575 140.25 13.5443 140.028 12.8833L139.5 13.188C139.795 13.9678 140.601 14.541 141.821 14.541C143.129 14.541 144.008 13.8077 144.008 12.8059C144.013 10.575 140.312 11.5355 140.312 9.89847ZM150.687 8.30275V9.68157C150.175 8.76753 149.235 8.16849 148.061 8.16849C146.324 8.16849 144.897 9.54731 144.897 11.3547C144.897 13.1622 146.329 14.541 148.061 14.541C149.235 14.541 150.175 13.942 150.687 13.0279V14.4067H151.313V8.30275H150.687ZM148.108 13.9523C146.655 13.9523 145.518 12.8059 145.518 11.3496C145.518 9.89847 146.655 8.74687 148.108 8.74687C149.56 8.74687 150.687 9.8933 150.687 11.3496C150.687 12.8059 149.565 13.9523 148.108 13.9523ZM157.677 8.30275L155.366 13.7716L153.07 8.30275H152.409L154.999 14.4067H155.743L158.323 8.30275H157.677ZM161.941 8.16849C160.07 8.16849 158.778 9.55764 158.778 11.3547C158.778 13.1983 160.111 14.541 161.993 14.541C163.203 14.541 164.154 13.9936 164.656 13.1622L164.118 12.8472C163.761 13.4927 163.006 13.9575 162.004 13.9575C160.613 13.9575 159.558 13.0537 159.414 11.6749H164.95C164.95 11.5768 164.961 11.4787 164.961 11.3806C164.961 9.7074 163.803 8.16849 161.941 8.16849ZM161.941 8.75203C163.141 8.75203 164.19 9.58346 164.325 11.0707H159.414C159.538 9.71772 160.551 8.75203 161.941 8.75203ZM167.003 9.49567V8.29759H166.393V14.4067H167.003V11.0139C167.003 9.44919 167.99 8.80367 169.045 8.80367V8.22013C168.212 8.21496 167.416 8.53514 167.003 9.49567ZM170.451 9.89847C170.451 9.16516 171.123 8.75203 171.919 8.75203C172.591 8.75203 173.227 9.04639 173.485 9.68157L173.997 9.38722C173.666 8.64359 172.911 8.16849 171.919 8.16849C170.673 8.16849 169.841 8.93794 169.841 9.90363C169.841 12.1035 173.542 11.1482 173.542 12.811C173.542 13.5805 172.824 13.9575 171.965 13.9575C171.05 13.9575 170.389 13.5443 170.172 12.8833L169.644 13.188C169.939 13.9678 170.745 14.541 171.965 14.541C173.273 14.541 174.152 13.8077 174.152 12.8059C174.152 10.575 170.451 11.5355 170.451 9.89847Z" fill="#0000A7"/>
<path fill-rule="evenodd" clip-rule="evenodd" d="M7.81546 38.9567C8.16699 39.6126 8.08428 41.482 10.2193 42.3289C11.9718 43.026 13.3831 41.6885 15.1201 43.2481C16.2471 44.2654 16.3867 45.541 18.3976 45.825C20.7343 46.1555 21.0083 44.5185 23.2157 44.6063C25.1078 44.6837 25.5782 46.2691 27.8839 45.7837C29.9 45.3602 29.931 43.9556 31.1356 43.088C33.2293 41.5801 35.8192 43.7748 37.5924 40.8158C38.0525 40.0463 38.0008 39.0858 38.3006 38.5901C39.3294 35.9925 41.6299 36.8291 42.9016 35.0113C44.5404 32.6668 42.121 30.7974 44.0596 28.5923C44.6955 27.8693 47.425 26.0103 45.3158 23.0564C43.0308 19.865 45.2641 19.4002 45.1659 16.6064C44.9126 14.1999 42.6018 13.9262 41.7695 12.7127C41.0199 11.623 41.2835 11.1583 41.1336 9.69165C41.0612 8.96868 40.7355 8.26119 40.3013 7.73962L39.7016 7.28001C38.8848 6.90303 39.4741 6.68614 37.3856 6.48474C35.1575 6.26785 34.7284 4.81673 34.1133 3.56701C33.8031 2.93182 33.2241 2.39476 32.5779 2.07458C30.4842 1.04176 29.259 2.69944 27.3204 2.16237C25.6351 1.69244 25.2422 0.163857 23.345 0.0140981C21.0962 -0.166646 20.6413 1.43939 19.0904 2.03327C16.702 2.95248 15.0581 0.463376 12.6645 2.66329C11.2326 3.97498 11.6823 5.93218 9.00964 6.4176C8.5392 6.50539 8.05843 6.49507 7.59316 6.60868C7.20027 6.70679 6.87976 6.90303 6.46102 7.01664C6.33178 7.26968 5.81482 7.60019 5.56668 7.94618C4.33631 9.68133 5.40642 10.7555 4.41385 12.4854C3.39027 14.2722 1.46201 13.6887 0.87784 16.4773C0.820974 18.6462 1.47234 18.419 1.6843 19.9682C1.87557 21.3471 1.47234 22.0752 0.779617 22.9893C0.159264 23.8104 -0.259474 25.0497 0.185112 26.3718C0.578002 27.5388 1.29658 27.8074 1.98414 28.5872C3.87104 30.7354 1.46201 33.0593 3.31273 35.2127C4.48623 36.5812 7.63969 36.5812 7.81546 38.9567ZM6.40932 33.9217C6.58509 34.5672 6.13533 36.1939 7.83613 37.3713C9.23193 38.337 10.7466 37.4488 11.9563 39.1736C12.7421 40.2942 12.6077 41.4458 14.3137 42.1017C16.2988 42.8659 16.8726 41.482 18.7957 42.0087C20.4396 42.458 20.5327 43.9504 22.6574 43.9866C24.5133 44.0227 24.8286 42.7937 26.0642 42.2772C28.2096 41.3787 30.0396 43.8316 32.2005 41.5904C32.764 41.0069 32.9087 40.1548 33.2758 39.7778C34.7078 37.7018 36.5585 38.9051 38.0473 37.5676C39.9653 35.8376 38.2179 33.7048 40.3685 32.1659C41.0716 31.6598 43.8528 30.5753 42.5966 27.5595C41.237 24.2906 43.2945 24.3371 43.7753 21.8583C44.0441 19.6946 42.0693 18.9819 41.5833 17.7477C41.1439 16.6374 41.4748 16.2811 41.6402 14.9642C41.7229 14.3135 41.5833 13.6267 41.3094 13.0793L40.8751 12.5526C40.2341 12.0568 40.7924 11.9845 38.9985 11.3855C37.0858 10.7451 37.0031 9.37664 36.7136 8.15791C36.5688 7.53822 36.1708 6.94951 35.6693 6.53638C34.0357 5.20404 32.6244 6.41244 31.0322 5.55003C29.6467 4.79607 29.6105 3.37077 27.9718 2.85436C26.0332 2.23983 25.3042 3.55668 23.8257 3.76841C21.5408 4.08859 20.5999 1.57366 18.0513 3.01961C16.5262 3.88202 16.5262 5.68946 14.0759 5.57585C13.6468 5.5552 13.2229 5.45191 12.7938 5.45708C12.4267 5.46224 12.1062 5.57069 11.7185 5.58618C11.5531 5.78242 11.031 5.96833 10.7415 6.22137C9.30947 7.4969 10.0332 8.65883 8.80802 9.97568C7.54664 11.339 5.96991 10.4353 4.88946 12.7695C4.39834 14.6647 5.01353 14.5976 4.88946 16.0022C4.77573 17.2519 4.27427 17.8148 3.48332 18.4758C2.76992 19.0697 2.14956 20.0767 2.27363 21.3264C2.3822 22.4315 2.96119 22.8137 3.40061 23.6399C4.62064 25.9121 2.03066 27.4665 3.21967 29.7336C3.96927 31.1589 6.73501 31.7992 6.40932 33.9217Z" fill="#0000A7"/>
<path fill-rule="evenodd" clip-rule="evenodd" d="M7.95442 32.5999C8.10434 33.1835 7.67527 34.6397 9.19513 35.719C10.441 36.6073 11.811 35.8275 12.8759 37.3922C13.5635 38.4096 13.429 39.4424 14.9592 40.0517C16.7324 40.7644 17.2649 39.525 18.9864 40.0259C20.4597 40.4494 20.5269 41.7921 22.4345 41.854C24.1043 41.9108 24.399 40.8109 25.5156 40.3616C27.4542 39.5818 29.0671 41.8075 31.0367 39.8194C31.5485 39.303 31.6933 38.5387 32.0241 38.2082C33.3372 36.3594 34.9863 37.4645 36.3408 36.2819C38.0881 34.7534 36.5424 32.8117 38.4965 31.4535C39.1375 31.0094 41.6499 30.0695 40.5592 27.3377C39.3805 24.3838 41.226 24.4509 41.6913 22.2304C41.9601 20.2887 40.1921 19.6277 39.7734 18.507C39.396 17.5052 39.6958 17.1902 39.8613 16.0024C39.944 15.4189 39.8251 14.7992 39.5873 14.3035L39.2047 13.8284C38.6309 13.3739 39.1375 13.3171 37.5349 12.7542C35.8238 12.1552 35.7669 10.9261 35.524 9.82616C35.3999 9.26844 35.0535 8.73137 34.6038 8.35439C33.1563 7.13566 31.869 8.20463 30.4474 7.40936C29.2119 6.71737 29.2015 5.43666 27.7334 4.95124C25.9964 4.37802 25.3295 5.55027 23.9957 5.72069C21.9382 5.9789 21.1266 3.70668 18.8158 4.97189C17.4355 5.72585 17.4096 7.35255 15.2074 7.21828C14.8197 7.19246 14.4423 7.09435 14.0546 7.09951C13.7289 7.09951 13.4342 7.19246 13.0827 7.19763C12.9328 7.37321 12.4623 7.52813 12.1987 7.75535C10.8959 8.88113 11.5266 9.93977 10.4152 11.1069C9.26233 12.3153 7.86137 11.4838 6.85847 13.565C6.3932 15.264 6.95152 15.2072 6.81711 16.4672C6.70338 17.5878 6.24328 18.0888 5.51954 18.6723C4.87334 19.199 4.29951 20.0924 4.39773 21.2234C4.48045 22.22 4.99741 22.5712 5.38513 23.3148C6.45007 25.3702 4.10823 26.7335 5.14733 28.7888C5.79353 30.085 8.27494 30.6944 7.95442 32.5999ZM7.82001 28.3653C7.83035 28.9076 7.16347 30.1005 8.27494 31.3605C9.18996 32.3934 10.5547 31.9854 11.1699 33.5759C11.568 34.6088 11.2423 35.4867 12.4572 36.3387C13.8736 37.3251 14.5922 36.3439 16.0035 37.1289C17.2132 37.8002 16.9961 38.9931 18.6607 39.4321C20.1133 39.8194 20.5993 38.9156 21.6746 38.7452C23.5356 38.4509 24.5023 40.7386 26.6374 39.3907C27.1957 39.0396 27.4749 38.3941 27.8367 38.172C29.367 36.8138 30.587 38.1204 32.019 37.3561C33.8645 36.3697 32.903 34.3506 34.8933 33.5501C35.5446 33.2868 37.9433 32.9717 37.5401 30.3535C37.1059 27.5184 38.7136 27.9522 39.5718 26.0931C40.2025 24.4406 38.786 23.5007 38.6412 22.4318C38.512 21.4712 38.8377 21.2544 39.2254 20.2525C39.4167 19.7568 39.4374 19.1887 39.3288 18.7033L39.0858 18.2075C38.6774 17.6911 39.1323 17.7428 37.8348 16.9268C36.4545 16.0541 36.6509 14.9593 36.6613 13.942C36.6664 13.4256 36.47 12.8833 36.1546 12.465C35.1311 11.0965 33.7818 11.7782 32.6962 10.7919C31.7501 9.92945 31.9983 8.80367 30.8093 8.08069C29.398 7.22345 28.576 8.122 27.3663 7.99807C25.5053 7.80699 25.2519 5.64839 22.967 6.28874C21.6022 6.67089 21.2507 8.09618 19.3431 7.5333C19.0071 7.43518 18.6969 7.26993 18.3557 7.19246C18.0662 7.12533 17.7922 7.14599 17.482 7.08402C17.3166 7.20796 16.8668 7.24927 16.5877 7.39386C15.2126 8.122 15.5538 9.17548 14.3389 9.97592C13.0827 10.8022 12.0177 9.79002 10.7098 11.4167C9.95506 12.8162 10.4565 12.8782 10.0843 13.9575C9.75345 14.918 9.24683 15.264 8.49723 15.6306C7.82001 15.9611 7.13763 16.6325 6.99288 17.6446C6.86364 18.538 7.24619 18.9512 7.43229 19.6845C7.95442 21.7088 5.61259 22.4318 6.10887 24.4458C6.43456 25.7162 8.49206 26.7593 7.82001 28.3653Z" fill="#0000A7"/>
<path fill-rule="evenodd" clip-rule="evenodd" d="M10.3529 28.0865C10.3787 28.5461 9.85142 29.5789 10.8285 30.6065C11.6349 31.4535 12.7774 31.0662 13.3461 32.3933C13.7183 33.2557 13.465 34.0097 14.5247 34.6914C15.7551 35.4815 16.3341 34.6294 17.5541 35.2542C18.5984 35.7862 18.4536 36.8035 19.8753 37.1237C21.1212 37.4077 21.5037 36.6279 22.4084 36.4472C23.9748 36.1425 24.864 38.048 26.632 36.8396C27.0921 36.5246 27.3092 35.9721 27.609 35.7707C28.8652 34.5726 29.9405 35.6416 31.1244 34.9496C32.6546 34.0562 31.7809 32.3778 33.4455 31.6394C33.9883 31.3967 36.0096 31.0558 35.5909 28.8507C35.136 26.4649 36.5111 26.7799 37.1831 25.1791C37.6639 23.7589 36.4387 23.0101 36.2836 22.1064C36.144 21.2956 36.4129 21.1046 36.7127 20.2422C36.8575 19.8135 36.8626 19.3333 36.7541 18.9253L36.5369 18.5122C36.1751 18.0887 36.5628 18.1197 35.441 17.4639C34.2416 16.7667 34.376 15.8372 34.3554 14.9748C34.345 14.5358 34.1589 14.0865 33.8798 13.7354C32.9699 12.6096 31.8481 13.2293 30.8969 12.4237C30.0698 11.7214 30.2455 10.7608 29.2168 10.1825C27.9967 9.5008 27.3247 10.2858 26.3011 10.2186C24.7192 10.1153 24.4401 8.2924 22.5221 8.90693C21.3745 9.27358 21.1212 10.4923 19.4876 10.074C19.2032 10.0017 18.9344 9.87262 18.6398 9.81582C18.3916 9.76934 18.1641 9.79516 17.8953 9.74868C17.7557 9.85713 17.3784 9.90877 17.1509 10.043C16.0084 10.6989 16.3341 11.5819 15.326 12.2998C14.2869 13.0382 13.3564 12.212 12.2966 13.6321C11.7021 14.8405 12.126 14.8766 11.8469 15.8062C11.5987 16.6324 11.18 16.9371 10.5545 17.2728C9.99099 17.5723 9.43268 18.1662 9.34479 19.0234C9.26208 19.7826 9.5981 20.1182 9.77904 20.7379C10.2805 22.4369 8.32121 23.1186 8.80715 24.8124C9.09665 25.8865 10.8698 26.7025 10.3529 28.0865ZM10.8698 24.8899C10.8026 25.2978 10.1254 26.0983 10.7768 27.2034C11.3144 28.1071 12.3949 27.9987 12.6275 29.2845C12.7774 30.116 12.4052 30.7305 13.1962 31.5413C14.1163 32.4863 14.7987 31.8563 15.7396 32.6464C16.5512 33.328 16.2152 34.1904 17.399 34.7585C18.433 35.2594 18.9292 34.6501 19.7616 34.681C21.2039 34.7327 21.5968 36.5866 23.3906 35.8843C23.8611 35.7035 24.1609 35.2594 24.4659 35.1458C25.81 34.3505 26.5389 35.5073 27.7228 35.1355C29.253 34.6604 28.8187 33.0079 30.4316 32.698C30.9589 32.5947 32.8045 32.7083 32.882 30.6788C32.9647 28.4893 34.1124 29.047 35.0274 27.7766C35.7408 26.6302 34.8155 25.7161 34.862 24.895C34.9033 24.1566 35.1825 24.043 35.6167 23.3406C35.8339 22.9946 35.9321 22.5712 35.9218 22.1942L35.8132 21.7862C35.5806 21.3421 35.9166 21.4454 35.0584 20.645C34.1486 19.7877 34.4536 18.9976 34.6087 18.2385C34.6862 17.8512 34.619 17.4174 34.4432 17.0559C33.8694 15.8837 32.7631 16.1987 32.0911 15.3001C31.5069 14.5152 31.8584 13.7096 31.0675 12.9917C30.137 12.1448 29.3822 12.6974 28.4982 12.434C27.1283 12.0209 27.2523 10.3632 25.443 10.513C24.3625 10.6059 23.8921 11.6233 22.5428 10.9209C22.305 10.797 22.0982 10.6317 21.8501 10.5233C21.6433 10.4303 21.4365 10.4097 21.209 10.3167C21.0643 10.3839 20.7231 10.3529 20.4956 10.42C19.3583 10.766 19.4617 11.6078 18.433 12.0312C17.368 12.4702 16.7167 11.5561 15.5018 12.5889C14.7367 13.5288 15.0986 13.6476 14.6643 14.4067C14.2766 15.0832 13.8475 15.264 13.2323 15.4344C12.6792 15.5841 12.0692 15.9921 11.8107 16.7254C11.5832 17.3761 11.8107 17.7427 11.8469 18.316C11.9451 19.9117 10.084 20.1131 10.1668 21.6984C10.2133 22.7003 11.6039 23.7796 10.8698 24.8899Z" fill="#0000A7"/>
<path d="M29.0515 32.0215H26.689V30.3432C26.689 29.5014 26.5287 28.6907 26.2082 27.9006C25.8877 27.1156 25.4276 26.4133 24.8279 25.7988C24.6418 25.6129 24.3471 25.365 23.9439 25.0603C22.8479 24.3115 21.6538 23.9397 20.3562 23.9397V21.559C21.5607 21.559 22.7394 21.8121 23.9025 22.3182C24.1455 22.1426 24.404 21.9102 24.6832 21.6158C25.2415 21.0013 25.6706 20.2938 25.9652 19.4831C26.2599 18.6775 26.4046 17.8099 26.4046 16.8907H19.3378V32.0164H16.9546V14.51H28.793V16.8907C28.793 18.2127 28.55 19.4624 28.0589 20.645C27.573 21.8276 26.8854 22.8294 26.0066 23.6557C26.9681 24.4716 27.7177 25.4579 28.2502 26.625C28.7827 27.7921 29.0515 29.0315 29.0515 30.338V32.0215Z" fill="#0000A7"/>
</svg>
