<svg width="275" height="196" viewBox="0 0 275 196" fill="none" xmlns="http://www.w3.org/2000/svg">
<mask id="mask0_1425_2" style="mask-type:alpha" maskUnits="userSpaceOnUse" x="0" y="0" width="275" height="196">
<rect x="0.5" y="0.5" width="274" height="195" rx="7.5" fill="#FDFEFF" stroke="#D2E3FF"/>
</mask>
<g mask="url(#mask0_1425_2)">
<circle cx="259.37" cy="176.5" r="77" stroke="#263959" stroke-width="7"/>
<circle cx="259.37" cy="176.5" r="41.5" fill="#D2E3FF"/>
</g>
<circle cx="185.87" cy="160" r="21" transform="rotate(-45 185.87 160)" fill="#E0ECFF" stroke="#FBFCFF" stroke-width="4"/>
<path fill-rule="evenodd" clip-rule="evenodd" d="M201.043 159.475C200.309 163.278 198.441 166.881 195.572 169.75C192.637 172.685 189.034 174.553 185.298 175.22C184.497 175.354 183.697 174.953 183.43 174.153C181.495 169.016 182.229 163.612 185.832 160.009C189.368 156.473 194.772 155.739 199.976 157.607C200.709 157.941 201.176 158.675 201.043 159.475Z" fill="#22B573"/>
<path d="M184.564 158.741C186.885 156.42 186.885 152.656 184.564 150.335C182.243 148.014 178.479 148.014 176.158 150.335C173.836 152.656 173.836 156.42 176.158 158.741C178.479 161.063 182.243 161.063 184.564 158.741Z" fill="#FFE47D"/>
<circle cx="239.87" cy="102" r="21" transform="rotate(-30 239.87 102)" fill="#E0ECFF" stroke="#FBFCFF" stroke-width="4"/>
<path fill-rule="evenodd" clip-rule="evenodd" d="M254.698 105.399C253.005 108.883 250.268 111.879 246.755 113.908C243.16 115.983 239.196 116.855 235.415 116.533C234.607 116.454 233.937 115.86 233.887 115.018C233.347 109.555 235.455 104.525 239.867 101.978C244.198 99.4775 249.608 100.167 254.151 103.319C254.773 103.831 255.035 104.66 254.698 105.399Z" fill="#3779DC"/>
<path d="M238.971 100.426C241.814 98.7846 242.788 95.1492 241.147 92.3062C239.506 89.4632 235.87 88.4891 233.027 90.1305C230.184 91.7719 229.21 95.4073 230.851 98.2503C232.493 101.093 236.128 102.067 238.971 100.426Z" fill="#00A3FF"/>
</svg>
