<svg width="182" height="123" viewBox="0 0 182 123" fill="none" xmlns="http://www.w3.org/2000/svg">
<path d="M172.595 123.553C173.284 122.695 173.775 122.059 174.042 121.713C174.359 122.005 174.959 122.554 175.807 123.294C176.225 123.662 176.705 124.08 177.239 124.539C176.381 125.044 175.439 125.607 174.435 126.224C173.338 125.791 172.313 125.401 171.378 125.051C171.833 124.495 172.241 123.994 172.595 123.553Z" fill="#8ADB63"/>
<path d="M183.906 123.586C184.256 124.023 184.656 124.517 185.104 125.062C184.169 125.409 183.144 125.799 182.054 126.228C181.047 125.611 180.105 125.044 179.243 124.535C179.784 124.07 180.271 123.648 180.697 123.276C181.524 122.55 182.115 122.013 182.44 121.717C182.7 122.063 183.198 122.709 183.906 123.586Z" fill="#8ADB63"/>
<path d="M176.576 119.912C177.391 119.06 177.972 118.428 178.29 118.082C178.6 118.425 179.188 119.064 180.022 119.933C180.437 120.367 180.91 120.857 181.437 121.395C180.473 121.853 179.416 122.37 178.29 122.929C177.16 122.366 176.103 121.853 175.139 121.392C175.673 120.847 176.153 120.349 176.576 119.912Z" fill="#8ADB63"/>
<path d="M176.323 123.915C175.688 124.232 175.035 124.564 174.37 124.911C173.652 124.687 172.952 124.474 172.27 124.272C172.945 123.611 173.573 122.987 174.15 122.402C174.818 122.875 175.543 123.38 176.323 123.915Z" fill="#8ADB63"/>
<path d="M184.306 124.272C183.627 124.474 182.927 124.687 182.213 124.911C181.545 124.564 180.892 124.232 180.253 123.911C181.029 123.38 181.754 122.875 182.426 122.402C183.003 122.983 183.631 123.611 184.306 124.272Z" fill="#8ADB63"/>
<path d="M167.96 120.976C168.617 119.994 169.083 119.273 169.335 118.872C169.7 119.154 170.389 119.68 171.36 120.391C171.84 120.745 172.392 121.146 173.002 121.582C172.132 122.203 171.18 122.896 170.166 123.647C168.957 123.29 167.827 122.972 166.798 122.687C167.231 122.055 167.621 121.481 167.96 120.976Z" fill="#8ADB63"/>
<path d="M159.66 123.539C160.14 122.456 160.472 121.662 160.652 121.226C161.06 121.439 161.829 121.836 162.908 122.366C163.442 122.63 164.052 122.925 164.73 123.25C163.98 124.015 163.16 124.863 162.291 125.78C161.038 125.643 159.873 125.524 158.812 125.427C159.129 124.73 159.411 124.095 159.66 123.539Z" fill="#8ADB63"/>
<path d="M181.155 116.4C182.105 115.57 182.783 114.95 183.155 114.61C183.454 115.004 184.025 115.74 184.833 116.747C185.234 117.245 185.692 117.815 186.204 118.44C185.133 118.84 183.96 119.288 182.704 119.782C181.552 119.075 180.473 118.429 179.484 117.851C180.109 117.314 180.668 116.826 181.155 116.4Z" fill="#8ADB63"/>
<path d="M180.513 120.645C179.805 120.927 179.08 121.219 178.337 121.526C177.593 121.219 176.864 120.927 176.157 120.645C176.936 120.003 177.665 119.396 178.337 118.826C179.008 119.396 179.733 120.003 180.513 120.645Z" fill="#8ADB63"/>
<path d="M175.204 122.828L174.269 123.221L173.27 122.994L174.179 122.258L175.204 122.828Z" fill="#8ADB63"/>
<path d="M183.393 122.991L182.407 123.215L181.462 122.818L182.483 122.251L183.393 122.991Z" fill="#8ADB63"/>
<path d="M171.963 121.024C171.313 121.424 170.649 121.839 169.971 122.272C169.184 122.103 168.415 121.94 167.672 121.789C168.329 121.02 168.942 120.295 169.505 119.616C170.267 120.06 171.086 120.529 171.963 121.024Z" fill="#8ADB63"/>
<path d="M163.608 122.9C163.038 123.409 162.454 123.936 161.862 124.481C161.057 124.452 160.274 124.427 159.512 124.409C160.028 123.535 160.508 122.712 160.949 121.947C161.768 122.247 162.659 122.568 163.608 122.9Z" fill="#8ADB63"/>
<path d="M171.869 116.732C172.663 115.747 173.226 115.018 173.533 114.617C173.898 114.953 174.583 115.577 175.551 116.425C176.031 116.848 176.579 117.324 177.193 117.851C176.204 118.432 175.125 119.082 173.973 119.789C172.717 119.294 171.545 118.851 170.473 118.454C170.992 117.818 171.462 117.241 171.869 116.732Z" fill="#8ADB63"/>
<path d="M162.778 118.692C163.392 117.584 163.821 116.769 164.052 116.317C164.467 116.584 165.25 117.079 166.351 117.743C166.896 118.075 167.52 118.447 168.213 118.858C167.34 119.605 166.387 120.432 165.377 121.33C164.056 121.067 162.821 120.832 161.695 120.63C162.1 119.912 162.46 119.262 162.778 118.692Z" fill="#8ADB63"/>
<path d="M154.156 122.215C154.568 121.017 154.853 120.136 155.005 119.656C155.459 119.844 156.318 120.194 157.516 120.656C158.112 120.887 158.79 121.143 159.541 121.425C158.809 122.312 158.015 123.294 157.17 124.359C155.824 124.33 154.568 124.319 153.424 124.316C153.698 123.536 153.944 122.832 154.156 122.215Z" fill="#8ADB63"/>
<path d="M185.291 117.548C184.512 117.783 183.711 118.025 182.888 118.285C182.123 117.888 181.372 117.509 180.643 117.144C181.534 116.534 182.368 115.953 183.137 115.408C183.801 116.076 184.519 116.794 185.291 117.548Z" fill="#8ADB63"/>
<path d="M179.426 119.382L178.391 119.714L177.348 119.382L178.383 118.678L179.426 119.382Z" fill="#8ADB63"/>
<path d="M170.671 119.987L169.711 120.496L168.621 120.352L169.523 119.479L170.671 119.987Z" fill="#8ADB63"/>
<path d="M161.288 122.791L160.19 122.842L160.93 121.824L162.15 122.124L161.288 122.791Z" fill="#8ADB63"/>
<path d="M176.139 117.155C175.41 117.523 174.663 117.902 173.897 118.302C173.075 118.046 172.27 117.804 171.49 117.573C172.263 116.816 172.984 116.097 173.648 115.43C174.414 115.967 175.247 116.548 176.139 117.155Z" fill="#8ADB63"/>
<path d="M167.048 118.374C166.394 118.861 165.72 119.37 165.037 119.894C164.182 119.785 163.348 119.688 162.54 119.598C163.172 118.717 163.76 117.883 164.301 117.107C165.146 117.508 166.066 117.934 167.048 118.374Z" fill="#8ADB63"/>
<path d="M158.303 121.172C157.74 121.767 157.166 122.384 156.581 123.023C155.722 123.066 154.881 123.117 154.069 123.171C154.542 122.193 154.975 121.269 155.376 120.41C156.278 120.652 157.256 120.908 158.303 121.172Z" fill="#8ADB63"/>
<path d="M176.434 112.571C177.373 111.593 178.041 110.871 178.405 110.471C178.762 110.86 179.434 111.593 180.39 112.589C180.863 113.084 181.404 113.643 182.007 114.26C180.899 114.791 179.686 115.379 178.394 116.025C177.102 115.383 175.89 114.798 174.785 114.271C175.399 113.647 175.954 113.073 176.434 112.571Z" fill="#8ADB63"/>
<path d="M166.553 113.809C167.307 112.683 167.845 111.853 168.134 111.398C168.552 111.72 169.343 112.322 170.454 113.134C171.006 113.539 171.634 113.993 172.335 114.495C171.335 115.21 170.241 116.004 169.079 116.866C167.693 116.462 166.401 116.097 165.221 115.776C165.719 115.051 166.167 114.39 166.553 113.809Z" fill="#8ADB63"/>
<path d="M157.029 116.765C157.581 115.523 157.964 114.614 158.173 114.112C158.642 114.358 159.523 114.809 160.757 115.415C161.37 115.715 162.067 116.054 162.843 116.426C161.98 117.306 161.038 118.277 160.042 119.331C158.61 119.176 157.271 119.042 156.051 118.934C156.419 118.133 156.747 117.404 157.029 116.765Z" fill="#8ADB63"/>
<path d="M148.15 121.345C148.479 120.027 148.703 119.064 148.822 118.533C149.323 118.692 150.273 118.984 151.593 119.36C152.25 119.547 152.997 119.76 153.824 119.988C153.124 121.005 152.366 122.128 151.561 123.34C150.121 123.438 148.778 123.546 147.559 123.651C147.786 122.799 147.981 122.023 148.15 121.345Z" fill="#8ADB63"/>
<path d="M155.336 120.298L156.661 120.5L155.805 121.294L154.64 121.453L155.336 120.298Z" fill="#8ADB63"/>
<path d="M174.854 115.932L173.782 116.387L172.634 116.13L173.677 115.282L174.854 115.932Z" fill="#8ADB63"/>
<path d="M164.583 118.046L163.41 117.996L164.294 116.981L165.564 117.415L164.583 118.046Z" fill="#8ADB63"/>
<path d="M180.949 113.42C180.137 113.745 179.303 114.08 178.452 114.434C177.6 114.084 176.763 113.752 175.951 113.431C176.846 112.695 177.683 111.998 178.455 111.345C179.22 111.994 180.054 112.687 180.949 113.42Z" fill="#8ADB63"/>
<path d="M171.14 113.874C170.397 114.332 169.632 114.812 168.852 115.31C167.95 115.115 167.069 114.935 166.214 114.762C166.972 113.881 167.676 113.047 168.322 112.271C169.195 112.773 170.133 113.311 171.14 113.874Z" fill="#8ADB63"/>
<path d="M161.551 116.039C160.897 116.624 160.226 117.227 159.54 117.851C158.62 117.819 157.718 117.793 156.848 117.775C157.444 116.776 157.992 115.83 158.497 114.953C159.439 115.296 160.461 115.66 161.551 116.039Z" fill="#8ADB63"/>
<path d="M150.799 121.987C149.886 122.117 148.995 122.251 148.132 122.384C148.547 121.298 148.926 120.273 149.276 119.32C150.265 119.494 151.334 119.67 152.47 119.851C151.922 120.54 151.366 121.255 150.799 121.987Z" fill="#8ADB63"/>
<path d="M181.693 108.558C182.783 107.602 183.566 106.894 183.992 106.501C184.335 106.952 184.984 107.793 185.912 108.944C186.37 109.515 186.897 110.164 187.482 110.879C186.251 111.341 184.905 111.857 183.465 112.427C182.148 111.622 180.91 110.882 179.776 110.222C180.491 109.608 181.133 109.049 181.693 108.558Z" fill="#8ADB63"/>
<path d="M171.039 108.958C171.952 107.829 172.598 106.992 172.952 106.533C173.367 106.916 174.154 107.63 175.265 108.601C175.814 109.081 176.445 109.63 177.145 110.229C176.012 110.897 174.771 111.644 173.45 112.456C172.01 111.893 170.664 111.384 169.437 110.933C170.032 110.204 170.57 109.54 171.039 108.958Z" fill="#8ADB63"/>
<path d="M160.605 111.221C161.309 109.947 161.803 109.012 162.074 108.5C162.551 108.803 163.449 109.37 164.709 110.128C165.333 110.507 166.048 110.932 166.842 111.398C165.838 112.257 164.745 113.206 163.583 114.238C162.067 113.939 160.652 113.675 159.364 113.444C159.826 112.622 160.244 111.874 160.605 111.221Z" fill="#8ADB63"/>
<path d="M150.709 115.278C151.186 113.903 151.51 112.896 151.687 112.344C152.211 112.56 153.192 112.957 154.564 113.484C155.246 113.744 156.022 114.04 156.884 114.361C156.043 115.379 155.127 116.509 154.159 117.725C152.615 117.696 151.175 117.682 149.865 117.682C150.182 116.794 150.464 115.985 150.709 115.278Z" fill="#8ADB63"/>
<path d="M141.651 121.006C141.882 119.569 142.033 118.523 142.113 117.945C142.665 118.064 143.704 118.288 145.144 118.562C145.862 118.7 146.678 118.855 147.584 119.017C146.931 120.168 146.22 121.435 145.476 122.807C143.95 123.048 142.528 123.29 141.232 123.518C141.391 122.587 141.531 121.746 141.651 121.006Z" fill="#8ADB63"/>
<path d="M149.204 119.216L150.641 119.306L149.796 120.234L148.565 120.511L149.204 119.216Z" fill="#8ADB63"/>
<path d="M158.469 114.831L159.862 115.17L158.877 115.939L157.617 115.997L158.469 114.831Z" fill="#8ADB63"/>
<path d="M179.694 111.994L178.506 112.376L177.308 111.997L178.499 111.192L179.694 111.994Z" fill="#8ADB63"/>
<path d="M168.542 113.294L167.296 113.131L168.332 112.128L169.646 112.709L168.542 113.294Z" fill="#8ADB63"/>
<path d="M186.428 109.886C185.533 110.153 184.613 110.439 183.671 110.735C182.794 110.283 181.935 109.847 181.098 109.432C182.123 108.731 183.079 108.064 183.963 107.439C184.721 108.201 185.544 109.02 186.428 109.886Z" fill="#8ADB63"/>
<path d="M175.926 109.454C175.089 109.876 174.23 110.313 173.353 110.771C172.411 110.479 171.487 110.204 170.592 109.941C171.48 109.071 172.31 108.248 173.075 107.479C173.952 108.097 174.905 108.757 175.926 109.454Z" fill="#8ADB63"/>
<path d="M165.492 110.868C164.741 111.427 163.965 112.012 163.182 112.615C162.204 112.495 161.244 112.384 160.316 112.282C161.042 111.272 161.72 110.316 162.341 109.428C163.312 109.879 164.366 110.362 165.492 110.868Z" fill="#8ADB63"/>
<path d="M153.474 116.209C152.489 116.263 151.525 116.321 150.59 116.382C151.132 115.26 151.637 114.202 152.095 113.221C153.135 113.495 154.257 113.787 155.452 114.087C154.806 114.773 154.145 115.48 153.474 116.209Z" fill="#8ADB63"/>
<path d="M144.516 121.446C143.553 121.67 142.614 121.897 141.701 122.124C142.044 120.926 142.358 119.797 142.64 118.75C143.711 118.84 144.866 118.927 146.101 119.013C145.584 119.8 145.054 120.612 144.516 121.446Z" fill="#8ADB63"/>
<path d="M176.276 104.202C177.355 103.08 178.124 102.25 178.542 101.795C178.95 102.242 179.722 103.08 180.816 104.217C181.357 104.783 181.978 105.422 182.667 106.129C181.397 106.736 180.004 107.418 178.517 108.158C177.034 107.425 175.648 106.757 174.377 106.158C175.085 105.433 175.724 104.78 176.276 104.202Z" fill="#8ADB63"/>
<path d="M164.936 105.642C165.806 104.35 166.423 103.401 166.755 102.878C167.235 103.246 168.141 103.935 169.412 104.863C170.043 105.325 170.765 105.845 171.566 106.418C170.415 107.238 169.159 108.151 167.824 109.143C166.236 108.681 164.752 108.266 163.399 107.902C163.976 107.064 164.489 106.307 164.936 105.642Z" fill="#8ADB63"/>
<path d="M154.001 109.046C154.636 107.624 155.08 106.581 155.318 106.007C155.856 106.285 156.867 106.801 158.281 107.494C158.985 107.837 159.786 108.223 160.674 108.645C159.682 109.652 158.599 110.771 157.455 111.98C155.809 111.803 154.275 111.655 152.875 111.532C153.297 110.612 153.676 109.778 154.001 109.046Z" fill="#8ADB63"/>
<path d="M143.805 114.307C144.188 112.799 144.444 111.694 144.581 111.088C145.159 111.268 146.245 111.6 147.757 112.03C148.508 112.243 149.367 112.485 150.316 112.744C149.511 113.91 148.638 115.199 147.714 116.588C146.061 116.704 144.523 116.826 143.123 116.953C143.379 115.971 143.61 115.083 143.805 114.307Z" fill="#8ADB63"/>
<path d="M134.656 121.269C134.772 119.717 134.837 118.588 134.869 117.967C135.469 118.043 136.598 118.18 138.164 118.335C138.944 118.414 139.828 118.501 140.81 118.588C140.218 119.876 139.576 121.294 138.904 122.825C137.295 123.229 135.797 123.619 134.44 123.987C134.523 122.98 134.595 122.07 134.656 121.269Z" fill="#8ADB63"/>
<path d="M142.539 118.652L144.08 118.612L143.264 119.681L141.976 120.092L142.539 118.652Z" fill="#8ADB63"/>
<path d="M152.03 113.102L153.553 113.333L152.568 114.246L151.229 114.426L152.03 113.102Z" fill="#8ADB63"/>
<path d="M162.32 109.29L163.778 109.784L162.652 110.51L161.302 110.456L162.32 109.29Z" fill="#8ADB63"/>
<path d="M173.208 108.591L171.895 108.302L173.093 107.331L174.443 108.071L173.208 108.591Z" fill="#8ADB63"/>
<path d="M181.441 105.184C180.509 105.555 179.549 105.942 178.571 106.349C177.593 105.952 176.633 105.57 175.702 105.205C176.731 104.361 177.694 103.56 178.579 102.812C179.463 103.552 180.416 104.346 181.441 105.184Z" fill="#8ADB63"/>
<path d="M170.184 105.721C169.329 106.248 168.452 106.797 167.557 107.367C166.524 107.147 165.51 106.941 164.532 106.746C165.402 105.736 166.21 104.779 166.957 103.892C167.95 104.462 169.029 105.075 170.184 105.721Z" fill="#8ADB63"/>
<path d="M156.863 110.297C155.806 110.261 154.773 110.236 153.77 110.214C154.452 109.07 155.087 107.987 155.668 106.98C156.751 107.37 157.92 107.785 159.169 108.218C158.418 108.886 157.646 109.579 156.863 110.297Z" fill="#8ADB63"/>
<path d="M146.822 115.046C145.772 115.194 144.751 115.35 143.758 115.505C144.235 114.26 144.675 113.083 145.076 111.993C146.209 112.188 147.436 112.39 148.742 112.596C148.114 113.386 147.472 114.205 146.822 115.046Z" fill="#8ADB63"/>
<path d="M137.735 121.475C136.724 121.807 135.743 122.135 134.793 122.463C135.05 121.153 135.281 119.923 135.486 118.782C136.638 118.775 137.883 118.761 139.207 118.735C138.724 119.616 138.233 120.533 137.735 121.475Z" fill="#8ADB63"/>
<path d="M182.306 99.6145C183.559 98.521 184.457 97.7053 184.948 97.2578C185.342 97.7739 186.085 98.7375 187.146 100.051C187.673 100.704 188.272 101.448 188.943 102.264C187.529 102.794 185.98 103.386 184.327 104.043C182.815 103.122 181.397 102.282 180.098 101.524C180.921 100.82 181.66 100.178 182.306 99.6145Z" fill="#8ADB63"/>
<path d="M170.075 100.094C171.122 98.7987 171.869 97.8423 172.273 97.3154C172.75 97.7521 173.652 98.5714 174.922 99.6794C175.554 100.228 176.276 100.852 177.077 101.538C175.774 102.307 174.348 103.162 172.833 104.093C171.183 103.454 169.639 102.873 168.228 102.357C168.917 101.52 169.538 100.758 170.075 100.094Z" fill="#8ADB63"/>
<path d="M158.097 102.704C158.906 101.246 159.48 100.174 159.786 99.5859C160.331 99.9324 161.364 100.578 162.807 101.448C163.525 101.878 164.345 102.368 165.254 102.899C164.103 103.881 162.843 104.971 161.508 106.154C159.768 105.812 158.148 105.512 156.665 105.252C157.199 104.307 157.679 103.455 158.097 102.704Z" fill="#8ADB63"/>
<path d="M146.729 107.363C147.278 105.789 147.656 104.635 147.859 104.003C148.458 104.248 149.587 104.703 151.161 105.306C151.944 105.605 152.835 105.941 153.824 106.305C152.857 107.475 151.803 108.767 150.692 110.164C148.92 110.131 147.267 110.12 145.762 110.124C146.123 109.099 146.447 108.175 146.729 107.363Z" fill="#8ADB63"/>
<path d="M136.32 113.939C136.591 112.293 136.764 111.095 136.854 110.435C137.486 110.572 138.677 110.821 140.333 111.135C141.156 111.29 142.095 111.467 143.13 111.651C142.376 112.968 141.561 114.423 140.705 115.992C138.951 116.27 137.32 116.552 135.833 116.815C136.021 115.751 136.183 114.783 136.32 113.939Z" fill="#8ADB63"/>
<path d="M127.19 122.221C127.172 120.558 127.135 119.345 127.114 118.685C127.76 118.71 128.98 118.746 130.669 118.768C131.506 118.778 132.462 118.786 133.516 118.786C133 120.215 132.448 121.785 131.87 123.477C130.189 124.058 128.626 124.618 127.208 125.138C127.204 124.055 127.197 123.077 127.19 122.221Z" fill="#8ADB63"/>
<path d="M144.971 111.882L146.621 111.983L145.654 113.044L144.239 113.365L144.971 111.882Z" fill="#8ADB63"/>
<path d="M155.614 106.847L157.217 107.233L156.08 108.113L154.636 108.182L155.614 106.847Z" fill="#8ADB63"/>
<path d="M166.943 103.739L168.452 104.403L167.185 105.071L165.752 104.887L166.943 103.739Z" fill="#8ADB63"/>
<path d="M178.625 104.01L177.247 103.581L178.618 102.653L179.986 103.57L178.625 104.01Z" fill="#8ADB63"/>
<path d="M187.72 101.145C186.691 101.455 185.634 101.776 184.551 102.119C183.544 101.603 182.559 101.109 181.599 100.632C182.776 99.8274 183.876 99.0622 184.891 98.3477C185.764 99.221 186.71 100.159 187.72 101.145Z" fill="#8ADB63"/>
<path d="M175.663 100.668C174.703 101.152 173.714 101.653 172.707 102.18C171.624 101.848 170.567 101.534 169.538 101.235C170.559 100.239 171.512 99.293 172.393 98.416C173.4 99.1162 174.493 99.8741 175.663 100.668Z" fill="#8ADB63"/>
<path d="M161.031 104.306C159.905 104.169 158.808 104.046 157.74 103.931C158.577 102.772 159.353 101.679 160.068 100.661C161.183 101.177 162.395 101.729 163.687 102.307C162.821 102.946 161.933 103.613 161.031 104.306Z" fill="#8ADB63"/>
<path d="M149.876 108.434C148.743 108.496 147.638 108.564 146.566 108.64C147.191 107.355 147.768 106.143 148.299 105.017C149.49 105.331 150.778 105.663 152.153 106.002C151.41 106.785 150.648 107.597 149.876 108.434Z" fill="#8ADB63"/>
<path d="M139.587 114.443C138.479 114.703 137.399 114.963 136.356 115.223C136.75 113.852 137.111 112.56 137.439 111.361C138.67 111.462 139.998 111.563 141.413 111.657C140.814 112.552 140.204 113.483 139.587 114.443Z" fill="#8ADB63"/>
<path d="M136.988 118.497L136.216 119.713L134.877 120.273L135.343 118.685L136.988 118.497Z" fill="#8ADB63"/>
<path d="M130.474 122.145C129.427 122.593 128.406 123.037 127.42 123.477C127.572 122.059 127.706 120.727 127.821 119.489C129.052 119.374 130.38 119.24 131.791 119.085C131.358 120.074 130.918 121.095 130.474 122.145Z" fill="#8ADB63"/>
<path d="M176.074 94.6554C177.312 93.3706 178.196 92.4178 178.68 91.8945C179.149 92.407 180.033 93.3634 181.285 94.6627C181.906 95.3087 182.617 96.0413 183.411 96.8461C181.949 97.5427 180.351 98.3222 178.644 99.174C176.944 98.3367 175.348 97.5751 173.894 96.8894C174.706 96.0702 175.439 95.3159 176.074 94.6554Z" fill="#8ADB63"/>
<path d="M163.052 96.3191C164.052 94.8394 164.759 93.7495 165.146 93.1504C165.694 93.5726 166.734 94.3558 168.195 95.4169C168.921 95.9438 169.747 96.5393 170.667 97.1925C169.347 98.1345 167.903 99.1775 166.369 100.314C164.547 99.7874 162.843 99.3182 161.288 98.8996C161.948 97.9504 162.54 97.0806 163.052 96.3191Z" fill="#8ADB63"/>
<path d="M150.497 100.231C151.229 98.6034 151.738 97.4088 152.016 96.752C152.633 97.0695 153.792 97.6614 155.416 98.4482C156.221 98.838 157.141 99.2819 158.162 99.7619C157.022 100.917 155.777 102.198 154.459 103.584C152.572 103.385 150.811 103.219 149.205 103.079C149.685 102.025 150.118 101.068 150.497 100.231Z" fill="#8ADB63"/>
<path d="M138.782 106.273C139.222 104.544 139.518 103.281 139.677 102.588C140.337 102.794 141.586 103.173 143.322 103.66C144.185 103.902 145.17 104.176 146.26 104.472C145.332 105.807 144.329 107.283 143.268 108.875C141.37 109.008 139.605 109.153 137.995 109.297C138.291 108.175 138.555 107.161 138.782 106.273Z" fill="#8ADB63"/>
<path d="M128.265 114.252C128.402 112.477 128.474 111.181 128.514 110.474C129.203 110.56 130.495 110.715 132.296 110.892C133.188 110.983 134.205 111.08 135.335 111.177C134.653 112.653 133.913 114.278 133.141 116.028C131.293 116.49 129.575 116.941 128.012 117.363C128.113 116.212 128.196 115.169 128.265 114.252Z" fill="#8ADB63"/>
<path d="M119.271 123.939C119.098 122.167 118.95 120.882 118.863 120.179C119.556 120.143 120.859 120.067 122.667 119.93C123.562 119.861 124.584 119.778 125.713 119.681C125.295 121.251 124.847 122.976 124.389 124.834C122.646 125.614 121.029 126.357 119.56 127.043C119.459 125.888 119.361 124.849 119.271 123.939Z" fill="#8ADB63"/>
<path d="M119.672 120.962C120.975 120.724 122.382 120.457 123.876 120.161C123.504 121.255 123.126 122.384 122.75 123.543C121.671 124.117 120.624 124.687 119.61 125.246C119.643 123.723 119.661 122.29 119.672 120.962Z" fill="#8ADB63"/>
<path d="M148.201 104.884L149.948 105.147L148.815 106.19L147.281 106.4L148.201 104.884Z" fill="#8ADB63"/>
<path d="M160.021 100.51L161.692 101.073L160.4 101.906L158.852 101.845L160.021 100.51Z" fill="#8ADB63"/>
<path d="M172.393 98.2539L173.941 99.102L172.526 99.6975L171.018 99.3655L172.393 98.2539Z" fill="#8ADB63"/>
<path d="M181.982 95.7892C180.914 96.2151 179.809 96.659 178.687 97.1245C177.565 96.6698 176.464 96.2367 175.396 95.8181C176.579 94.8508 177.684 93.9341 178.701 93.0752C179.712 93.9269 180.809 94.8328 181.982 95.7892Z" fill="#8ADB63"/>
<path d="M166.034 98.3043C164.846 98.0517 163.688 97.8171 162.558 97.5969C163.558 96.4384 164.489 95.3449 165.348 94.3271C166.492 94.984 167.73 95.6842 169.054 96.4204C168.073 97.0231 167.062 97.6511 166.034 98.3043Z" fill="#8ADB63"/>
<path d="M153.752 101.668C152.539 101.628 151.352 101.6 150.201 101.578C150.987 100.268 151.716 99.0263 152.388 97.875C153.629 98.3225 154.972 98.7953 156.405 99.2861C155.542 100.051 154.654 100.845 153.752 101.668Z" fill="#8ADB63"/>
<path d="M142.218 107.114C141.012 107.287 139.836 107.464 138.699 107.644C139.247 106.219 139.753 104.873 140.215 103.624C141.517 103.844 142.925 104.075 144.423 104.31C143.704 105.216 142.965 106.15 142.218 107.114Z" fill="#8ADB63"/>
<path d="M139.067 111.199L138.129 112.423L136.649 112.895L137.295 111.246L139.067 111.199Z" fill="#8ADB63"/>
<path d="M131.777 114.48C130.618 114.859 129.489 115.238 128.395 115.613C128.691 114.115 128.958 112.704 129.196 111.398C130.521 111.39 131.946 111.369 133.469 111.34C132.914 112.354 132.347 113.404 131.777 114.48Z" fill="#8ADB63"/>
<path d="M129.373 119.046L128.662 120.41L127.283 121.136L127.637 119.4L129.373 119.046Z" fill="#8ADB63"/>
<path d="M182.982 89.4154C184.422 88.1594 185.454 87.2283 186.017 86.7158C186.468 87.3041 187.323 88.4085 188.536 89.9134C189.139 90.6605 189.828 91.5086 190.597 92.4434C188.973 93.0497 187.193 93.7318 185.295 94.4825C183.559 93.4322 181.931 92.4686 180.441 91.6025C181.39 90.794 182.242 90.0614 182.982 89.4154Z" fill="#8ADB63"/>
<path d="M168.939 89.9781C170.144 88.4948 170.999 87.3976 171.465 86.7949C172.014 87.2966 173.046 88.2313 174.504 89.4981C175.229 90.1261 176.056 90.8406 176.976 91.6238C175.478 92.5044 173.843 93.4825 172.1 94.5543C170.205 93.8217 168.433 93.1613 166.813 92.573C167.607 91.6094 168.318 90.7396 168.939 89.9781Z" fill="#8ADB63"/>
<path d="M155.177 92.9775C156.109 91.3102 156.765 90.0831 157.119 89.4082C157.747 89.8052 158.931 90.5451 160.587 91.5339C161.41 92.0248 162.349 92.5842 163.395 93.1941C162.071 94.3201 160.623 95.5688 159.09 96.9222C157.094 96.5324 155.232 96.1932 153.532 95.8936C154.145 94.8145 154.697 93.8365 155.177 92.9775Z" fill="#8ADB63"/>
<path d="M142.12 98.3257C142.752 96.5212 143.185 95.2039 143.42 94.4785C144.105 94.76 145.401 95.2797 147.209 95.9618C148.108 96.3011 149.129 96.6872 150.266 97.1023C149.154 98.4412 147.945 99.9209 146.664 101.52C144.629 101.487 142.73 101.476 141.001 101.48C141.42 100.311 141.795 99.2533 142.12 98.3257Z" fill="#8ADB63"/>
<path d="M130.159 105.858C130.47 103.974 130.672 102.603 130.777 101.849C131.502 102.004 132.87 102.289 134.772 102.646C135.717 102.823 136.793 103.022 137.984 103.235C137.118 104.743 136.179 106.41 135.194 108.204C133.18 108.525 131.304 108.847 129.6 109.15C129.813 107.933 130.001 106.825 130.159 105.858Z" fill="#8ADB63"/>
<path d="M119.665 115.346C119.647 113.441 119.607 112.058 119.582 111.297C120.325 111.322 121.722 111.365 123.663 111.387C124.627 111.398 125.721 111.405 126.937 111.405C126.345 113.04 125.706 114.841 125.042 116.775C123.111 117.443 121.314 118.085 119.686 118.681C119.683 117.447 119.675 116.328 119.665 115.346Z" fill="#8ADB63"/>
<path d="M110.949 126.505C110.602 124.636 110.321 123.283 110.166 122.543C110.905 122.438 112.291 122.236 114.208 121.918C115.16 121.76 116.243 121.576 117.438 121.366C117.135 123.077 116.817 124.957 116.496 126.975C114.706 127.967 113.046 128.913 111.541 129.782C111.328 128.566 111.129 127.465 110.949 126.505Z" fill="#8ADB63"/>
<path d="M115.496 122.037C115.2 123.235 114.901 124.473 114.608 125.744C113.511 126.458 112.443 127.162 111.411 127.851C111.302 126.227 111.19 124.701 111.079 123.286C112.446 122.907 113.926 122.492 115.496 122.037Z" fill="#8ADB63"/>
<path d="M120.368 112.214C121.78 112.08 123.306 111.925 124.927 111.748C124.429 112.878 123.92 114.047 123.411 115.249C122.209 115.761 121.036 116.274 119.903 116.772C120.08 115.151 120.235 113.628 120.368 112.214Z" fill="#8ADB63"/>
<path d="M152.297 97.7275L154.134 98.1678L152.832 99.1748L151.171 99.2578L152.297 97.7275Z" fill="#8ADB63"/>
<path d="M165.311 94.1611L167.044 94.919L165.586 95.6841L163.94 95.4748L165.311 94.1611Z" fill="#8ADB63"/>
<path d="M178.719 92.9092L180.289 93.9594L178.726 94.4611L177.146 93.9702L178.719 92.9092Z" fill="#8ADB63"/>
<path d="M171.93 92.3717C170.689 91.9927 169.473 91.6354 168.292 91.2926C169.465 90.1521 170.563 89.0694 171.573 88.0625C172.732 88.8709 173.988 89.7335 175.33 90.6393C174.226 91.1915 173.089 91.769 171.93 92.3717Z" fill="#8ADB63"/>
<path d="M158.519 94.8107C157.227 94.6555 155.964 94.5148 154.741 94.3812C155.701 93.0567 156.596 91.8044 157.419 90.6387C158.7 91.2306 160.089 91.8585 161.573 92.519C160.577 93.2552 159.555 94.0203 158.519 94.8107Z" fill="#8ADB63"/>
<path d="M145.707 99.546C144.404 99.6182 143.138 99.6976 141.903 99.7806C142.622 98.3117 143.286 96.9222 143.896 95.6338C145.263 95.9911 146.743 96.37 148.32 96.7598C147.468 97.6585 146.595 98.586 145.707 99.546Z" fill="#8ADB63"/>
<path d="M141.965 103.606L140.849 104.826L139.229 105.19L140.07 103.49L141.965 103.606Z" fill="#8ADB63"/>
<path d="M133.884 106.428C132.614 106.724 131.372 107.024 130.174 107.323C130.629 105.753 131.044 104.274 131.423 102.902C132.834 103.018 134.36 103.13 135.984 103.238C135.295 104.267 134.595 105.331 133.884 106.428Z" fill="#8ADB63"/>
<path d="M130.896 111.069L130.008 112.462L128.471 113.105L129.008 111.286L130.896 111.069Z" fill="#8ADB63"/>
<path d="M121.267 120.334L120.632 121.853L119.224 122.752L119.441 120.875L121.267 120.334Z" fill="#8ADB63"/>
<path d="M175.807 83.7601C177.229 82.2913 178.246 81.2013 178.799 80.5986C179.336 81.1833 180.35 82.2768 181.79 83.7638C182.505 84.5036 183.321 85.3409 184.226 86.2612C182.548 87.0624 180.711 87.9538 178.752 88.9319C176.799 87.9755 174.969 87.1021 173.298 86.3226C174.233 85.377 175.074 84.518 175.807 83.7601Z" fill="#8ADB63"/>
<path d="M160.847 85.6769C161.998 83.9842 162.81 82.7355 163.254 82.0498C163.886 82.5334 165.081 83.4321 166.755 84.6411C167.585 85.2438 168.538 85.9259 169.592 86.673C168.072 87.7521 166.416 88.9467 164.651 90.2495C162.558 89.6504 160.602 89.1091 158.819 88.6363C159.577 87.5391 160.259 86.5467 160.847 85.6769Z" fill="#8ADB63"/>
<path d="M146.422 90.1621C147.263 88.2962 147.851 86.9284 148.169 86.1777C148.876 86.5422 150.208 87.2171 152.07 88.1158C152.994 88.5633 154.051 89.0686 155.224 89.6171C153.914 90.9417 152.485 92.4069 150.969 93.9913C148.8 93.7639 146.776 93.5762 144.935 93.4175C145.491 92.212 145.989 91.1185 146.422 90.1621Z" fill="#8ADB63"/>
<path d="M132.964 97.0813C133.473 95.1035 133.812 93.6563 133.996 92.8623C134.758 93.0969 136.187 93.5264 138.183 94.0894C139.172 94.3673 140.301 94.6813 141.553 95.0169C140.489 96.5471 139.334 98.2325 138.114 100.055C135.934 100.21 133.906 100.376 132.058 100.542C132.401 99.2611 132.704 98.099 132.964 97.0813Z" fill="#8ADB63"/>
<path d="M120.885 106.223C121.043 104.191 121.13 102.708 121.173 101.896C121.964 101.993 123.451 102.17 125.519 102.372C126.544 102.473 127.713 102.585 129.005 102.697C128.218 104.386 127.37 106.244 126.482 108.247C124.36 108.778 122.386 109.298 120.592 109.781C120.704 108.46 120.802 107.269 120.885 106.223Z" fill="#8ADB63"/>
<path d="M110.545 117.31C110.346 115.285 110.177 113.813 110.079 113.008C110.877 112.968 112.374 112.882 114.446 112.719C115.475 112.64 116.648 112.546 117.943 112.431C117.46 114.228 116.947 116.202 116.417 118.328C114.414 119.219 112.555 120.071 110.869 120.861C110.758 119.54 110.649 118.353 110.545 117.31Z" fill="#8ADB63"/>
<path d="M115.81 112.968C115.384 114.22 114.948 115.512 114.515 116.837C113.277 117.493 112.071 118.147 110.909 118.786C110.945 117.042 110.971 115.404 110.981 113.884C112.479 113.614 114.096 113.307 115.81 112.968Z" fill="#8ADB63"/>
<path d="M121.928 102.942C123.447 102.931 125.089 102.909 126.832 102.873C126.194 104.032 125.544 105.233 124.887 106.468C123.555 106.901 122.26 107.337 121.004 107.767C121.347 106.053 121.654 104.439 121.928 102.942Z" fill="#8ADB63"/>
<path d="M157.332 90.4688L159.256 91.1148L157.769 92.0676L155.99 91.999L157.332 90.4688Z" fill="#8ADB63"/>
<path d="M171.548 87.8848L173.324 88.852L171.696 89.5341L169.964 89.1588L171.548 87.8848Z" fill="#8ADB63"/>
<path d="M178.773 86.5894C177.485 86.0697 176.222 85.5716 174.991 85.0988C176.352 83.9909 177.619 82.9406 178.792 81.959C179.95 82.9262 181.21 83.9656 182.559 85.0591C181.332 85.55 180.066 86.0588 178.773 86.5894Z" fill="#8ADB63"/>
<path d="M164.24 87.9426C162.876 87.6575 161.544 87.3868 160.249 87.1342C161.396 85.8097 162.468 84.5573 163.453 83.3916C164.767 84.1423 166.189 84.9435 167.708 85.7844C166.582 86.4773 165.424 87.1955 164.24 87.9426Z" fill="#8ADB63"/>
<path d="M150.136 91.797C148.743 91.7537 147.379 91.7176 146.058 91.696C146.96 90.1946 147.801 88.7763 148.57 87.459C149.995 87.9679 151.536 88.5092 153.185 89.0722C152.189 89.9492 151.172 90.8587 150.136 91.797Z" fill="#8ADB63"/>
<path d="M145.762 95.7784L144.463 96.9766L142.698 97.2148L143.755 95.4824L145.762 95.7784Z" fill="#8ADB63"/>
<path d="M136.883 98.0375C135.501 98.236 134.148 98.4381 132.841 98.6438C133.473 97.0125 134.054 95.4715 134.584 94.0459C136.079 94.2985 137.695 94.562 139.417 94.8291C138.59 95.8612 137.742 96.9331 136.883 98.0375Z" fill="#8ADB63"/>
<path d="M133.26 102.707L132.185 104.107L130.485 104.652L131.228 102.761L133.26 102.707Z" fill="#8ADB63"/>
<path d="M122.126 111.687L121.307 113.253L119.723 114.079L120.13 112.094L122.126 111.687Z" fill="#8ADB63"/>
<path d="M112.699 122.449L112.162 124.127L110.743 125.217L110.797 123.196L112.699 122.449Z" fill="#8ADB63"/>
<path d="M183.711 77.769C185.364 76.3326 186.551 75.268 187.197 74.6797C187.717 75.3546 188.695 76.6141 190.092 78.3356C190.785 79.191 191.575 80.1618 192.459 81.2265C190.593 81.923 188.551 82.7026 186.371 83.5615C184.379 82.3597 182.509 81.2589 180.798 80.2701C181.885 79.3498 182.859 78.5089 183.711 77.769Z" fill="#8ADB63"/>
<path d="M167.579 78.4186C168.964 76.7187 169.95 75.4664 170.484 74.7734C171.112 75.3473 172.303 76.4155 173.974 77.8628C174.804 78.581 175.757 79.3966 176.81 80.2953C175.093 81.3022 173.212 82.4246 171.206 83.648C169.029 82.8108 166.994 82.0565 165.135 81.3816C166.052 80.2844 166.868 79.2919 167.579 78.4186Z" fill="#8ADB63"/>
<path d="M151.775 81.855C152.847 79.9458 153.601 78.5419 154.009 77.7695C154.727 78.2243 156.084 79.0652 157.989 80.202C158.935 80.765 160.014 81.4002 161.212 82.1004C159.689 83.3888 158.029 84.818 156.264 86.3699C153.973 85.9259 151.832 85.5362 149.88 85.1969C150.591 83.959 151.222 82.8366 151.775 81.855Z" fill="#8ADB63"/>
<path d="M136.775 87.9792C137.501 85.9148 138.002 84.4062 138.269 83.5762C139.06 83.8974 140.543 84.4893 142.622 85.2724C143.65 85.6622 144.827 86.0989 146.13 86.5753C144.852 88.1055 143.463 89.7981 141.99 91.6315C139.652 91.5954 137.472 91.581 135.487 91.5882C135.97 90.2529 136.4 89.0402 136.775 87.9792Z" fill="#8ADB63"/>
<path d="M123.036 96.6008C123.393 94.4462 123.624 92.8762 123.747 92.0137C124.58 92.1905 126.15 92.5189 128.334 92.9268C129.416 93.1289 130.654 93.3562 132.022 93.598C131.026 95.3268 129.951 97.2287 128.814 99.2859C126.5 99.654 124.346 100.022 122.39 100.372C122.635 98.9755 122.852 97.7087 123.036 96.6008Z" fill="#8ADB63"/>
<path d="M110.974 107.464C110.953 105.285 110.909 103.7 110.88 102.834C111.736 102.863 113.338 102.913 115.565 102.935C116.669 102.946 117.929 102.953 119.322 102.957C118.64 104.826 117.907 106.887 117.142 109.103C114.922 109.868 112.862 110.601 110.989 111.286C110.992 109.864 110.985 108.583 110.974 107.464Z" fill="#8ADB63"/>
<path d="M100.959 120.233C100.559 118.097 100.241 116.545 100.061 115.697C100.909 115.578 102.5 115.347 104.702 114.982C105.795 114.802 107.04 114.592 108.412 114.351C108.065 116.307 107.697 118.458 107.329 120.767C105.272 121.904 103.366 122.983 101.638 123.979C101.396 122.59 101.165 121.33 100.959 120.233Z" fill="#8ADB63"/>
<path d="M116.997 103.325C116.424 104.621 115.843 105.956 115.254 107.331C113.872 107.919 112.526 108.501 111.227 109.074C111.429 107.219 111.606 105.473 111.761 103.856C113.381 103.701 115.135 103.527 116.997 103.325Z" fill="#8ADB63"/>
<path d="M124.454 93.2012C126.074 93.3311 127.828 93.461 129.694 93.5837C128.907 94.7603 128.099 95.9801 127.287 97.2361C125.825 97.5753 124.403 97.9182 123.024 98.2574C123.544 96.4637 124.021 94.7711 124.454 93.2012Z" fill="#8ADB63"/>
<path d="M163.381 83.2041L165.369 84.0703L163.695 84.9473L161.807 84.7055L163.381 83.2041Z" fill="#8ADB63"/>
<path d="M178.784 81.7715L180.589 82.9697L178.788 83.5471L176.976 82.9841L178.784 81.7715Z" fill="#8ADB63"/>
<path d="M170.985 81.1545C169.559 80.7215 168.163 80.31 166.806 79.9203C168.155 78.6138 169.411 77.3795 170.573 76.2246C171.902 77.1485 173.345 78.1338 174.89 79.1732C173.62 79.8084 172.317 80.4652 170.985 81.1545Z" fill="#8ADB63"/>
<path d="M155.578 83.9476C154.094 83.7708 152.644 83.6083 151.24 83.4568C152.344 81.941 153.369 80.5082 154.315 79.1729C155.787 79.8477 157.382 80.5695 159.086 81.3238C157.945 82.1684 156.772 83.0417 155.578 83.9476Z" fill="#8ADB63"/>
<path d="M150.547 87.7882L149.046 88.9395L147.14 89.0333L148.432 87.2793L150.547 87.7882Z" fill="#8ADB63"/>
<path d="M140.864 89.3651C139.37 89.4481 137.912 89.5384 136.497 89.6358C137.324 87.954 138.085 86.366 138.785 84.8936C140.355 85.305 142.055 85.7345 143.867 86.182C142.889 87.2033 141.882 88.268 140.864 89.3651Z" fill="#8ADB63"/>
<path d="M136.566 94.0098L135.285 95.4029L133.422 95.8215L134.39 93.8799L136.566 94.0098Z" fill="#8ADB63"/>
<path d="M123.851 102.549L122.83 104.14L121.065 104.877L121.682 102.798L123.851 102.549Z" fill="#8ADB63"/>
<path d="M112.79 113.145L112.061 114.884L110.447 115.913L110.696 113.765L112.79 113.145Z" fill="#8ADB63"/>
<path d="M105.142 119.334C103.879 120.15 102.655 120.958 101.471 121.745C101.349 119.887 101.219 118.14 101.089 116.523C102.662 116.09 104.362 115.613 106.163 115.094C105.824 116.465 105.481 117.88 105.142 119.334Z" fill="#8ADB63"/>
<path d="M175.435 71.3018C177.07 69.62 178.239 68.3749 178.874 67.6855C179.492 68.3568 180.661 69.6092 182.31 71.3054C183.129 72.1499 184.068 73.1099 185.111 74.1638C183.184 75.0768 181.072 76.0982 178.82 77.217C176.579 76.1235 174.475 75.1238 172.559 74.2323C173.63 73.1532 174.594 72.168 175.435 71.3018Z" fill="#8ADB63"/>
<path d="M158.256 73.4961C159.577 71.558 160.512 70.1325 161.021 69.3457C161.746 69.8979 163.114 70.9228 165.041 72.3087C165.997 72.998 167.087 73.7776 168.3 74.6329C166.557 75.8672 164.651 77.235 162.627 78.7256C160.223 78.0399 157.978 77.4227 155.928 76.8778C156.798 75.629 157.578 74.4922 158.256 73.4961Z" fill="#8ADB63"/>
<path d="M141.687 78.6285C142.654 76.4956 143.329 74.9329 143.693 74.0703C144.505 74.4854 146.032 75.2577 148.176 76.2863C149.237 76.7987 150.453 77.3762 151.796 78.0042C150.291 79.5199 148.649 81.1945 146.909 83.0099C144.419 82.75 142.095 82.5371 139.976 82.3567C140.615 80.9744 141.189 79.7257 141.687 78.6285Z" fill="#8ADB63"/>
<path d="M126.229 86.5431C126.81 84.2802 127.204 82.6236 127.417 81.7178C128.29 81.9848 129.932 82.4793 132.224 83.1181C133.361 83.4357 134.66 83.793 136.096 84.1791C134.873 85.9295 133.545 87.8603 132.145 89.9464C129.643 90.1232 127.312 90.3145 125.19 90.5058C125.58 89.0369 125.93 87.7088 126.229 86.5431Z" fill="#8ADB63"/>
<path d="M112.352 97.0017C112.533 94.6775 112.634 92.9812 112.684 92.0537C113.594 92.1656 115.301 92.3677 117.672 92.5987C118.849 92.7142 120.191 92.8405 121.678 92.9704C120.776 94.9012 119.801 97.0306 118.78 99.3223C116.34 99.9322 114.074 100.52 112.013 101.076C112.147 99.5641 112.259 98.1963 112.352 97.0017Z" fill="#8ADB63"/>
<path d="M100.479 109.683C100.252 107.366 100.057 105.685 99.9448 104.764C100.862 104.717 102.579 104.62 104.961 104.436C106.145 104.346 107.491 104.237 108.978 104.107C108.422 106.161 107.834 108.424 107.224 110.853C104.922 111.874 102.789 112.848 100.854 113.751C100.724 112.239 100.594 110.878 100.479 109.683Z" fill="#8ADB63"/>
<path d="M90.9689 124.21C90.3409 121.973 89.8573 120.352 89.583 119.468C90.478 119.262 92.1562 118.869 94.4769 118.274C95.6281 117.981 96.9382 117.638 98.3854 117.256C98.1978 119.371 98.0065 121.695 97.8296 124.189C95.7364 125.589 93.802 126.917 92.048 128.141C91.6546 126.679 91.2901 125.362 90.9689 124.21Z" fill="#8ADB63"/>
<path d="M119.159 93.1475C118.427 94.4756 117.68 95.847 116.929 97.2581C115.399 97.7562 113.912 98.2542 112.468 98.7415C112.858 96.7818 113.208 94.9375 113.526 93.2232C115.269 93.2124 117.156 93.1908 119.159 93.1475Z" fill="#8ADB63"/>
<path d="M128.059 83.0488C129.777 83.3376 131.632 83.6407 133.61 83.9475C132.661 85.1312 131.687 86.3547 130.701 87.6179C129.113 87.8452 127.561 88.0762 126.06 88.3108C126.782 86.4413 127.45 84.6837 128.059 83.0488Z" fill="#8ADB63"/>
<path d="M102.933 115.538L102.316 117.458L100.688 118.703L100.753 116.39L102.933 115.538Z" fill="#8ADB63"/>
<path d="M170.512 76.0156L172.551 77.1272L170.686 77.9068L168.693 77.4737L170.512 76.0156Z" fill="#8ADB63"/>
<path d="M178.813 74.5396C177.334 73.9441 175.879 73.3775 174.472 72.8325C176.031 71.5657 177.489 70.3639 178.835 69.2451C180.167 70.3531 181.614 71.5405 183.162 72.7928C181.747 73.3486 180.297 73.9296 178.813 74.5396Z" fill="#8ADB63"/>
<path d="M162.122 76.0838C160.555 75.7554 159.025 75.4486 157.538 75.1563C158.855 73.6405 160.086 72.2077 161.216 70.876C162.724 71.7349 164.359 72.6516 166.106 73.6152C164.81 74.4056 163.479 75.2285 162.122 76.0838Z" fill="#8ADB63"/>
<path d="M156.394 79.7069L154.687 80.7969L152.648 80.7175L154.185 78.9707L156.394 79.7069Z" fill="#8ADB63"/>
<path d="M145.92 80.4865C144.318 80.436 142.755 80.3963 141.236 80.3674C142.272 78.6495 143.235 77.0291 144.119 75.5205C145.758 76.1052 147.53 76.7223 149.421 77.3683C148.277 78.3716 147.108 79.411 145.92 80.4865Z" fill="#8ADB63"/>
<path d="M140.9 85.0375L139.406 86.4053L137.378 86.6796L138.594 84.6982L140.9 85.0375Z" fill="#8ADB63"/>
<path d="M126.544 92.96L125.306 94.5624L123.354 95.1831L124.209 93.0249L126.544 92.96Z" fill="#8ADB63"/>
<path d="M113.757 103.23L112.818 105.017L111 105.966L111.465 103.696L113.757 103.23Z" fill="#8ADB63"/>
<path d="M105.019 109.117C103.597 109.871 102.215 110.615 100.88 111.347C100.923 109.352 100.948 107.479 100.959 105.743C102.681 105.429 104.536 105.079 106.506 104.692C106.016 106.122 105.517 107.601 105.019 109.117Z" fill="#8ADB63"/>
<path d="M95.3399 122.835C94.0695 123.821 92.8352 124.795 91.6443 125.744C91.3375 123.777 91.0343 121.929 90.7456 120.219C92.3877 119.612 94.1561 118.948 96.0364 118.227C95.7983 119.717 95.5637 121.258 95.3399 122.835Z" fill="#8ADB63"/>
<path d="M184.48 64.4483C186.382 62.8062 187.742 61.5863 188.486 60.915C189.081 61.6874 190.211 63.131 191.813 65.0979C192.607 66.076 193.517 67.1875 194.534 68.4074C192.394 69.2014 190.045 70.0964 187.54 71.0781C185.252 69.703 183.101 68.4435 181.138 67.3102C182.379 66.2528 183.502 65.2928 184.48 64.4483Z" fill="#8ADB63"/>
<path d="M165.951 65.1841C167.539 63.2424 168.672 61.806 169.285 61.0156C170.007 61.6725 171.371 62.8923 173.295 64.5525C174.251 65.3753 175.341 66.3101 176.554 67.335C174.58 68.4863 172.422 69.7711 170.119 71.1678C167.622 70.2114 165.279 69.3453 163.146 68.5729C164.197 67.3206 165.135 66.1838 165.951 65.1841Z" fill="#8ADB63"/>
<path d="M147.797 69.1112C149.028 66.9277 149.894 65.3217 150.36 64.4375C151.186 64.9572 152.745 65.9244 154.932 67.2201C156.019 67.8625 157.257 68.5951 158.635 69.3927C156.888 70.8688 154.979 72.5001 152.955 74.2757C150.324 73.7668 147.862 73.3193 145.621 72.9296C146.44 71.5148 147.166 70.2336 147.797 69.1112Z" fill="#8ADB63"/>
<path d="M130.572 76.1124C131.405 73.7521 131.979 72.0234 132.286 71.0742C133.192 71.4423 134.899 72.1208 137.284 73.0195C138.468 73.4634 139.818 73.9687 141.316 74.5136C139.847 76.264 138.252 78.2021 136.562 80.2953C133.877 80.252 131.373 80.2376 129.092 80.2412C129.651 78.7109 130.146 77.3251 130.572 76.1124Z" fill="#8ADB63"/>
<path d="M114.796 85.9721C115.208 83.5072 115.471 81.7099 115.612 80.7246C116.572 80.9303 118.373 81.3021 120.881 81.7712C122.126 82.0058 123.548 82.2657 125.118 82.5436C123.978 84.5177 122.74 86.6975 121.437 89.047C118.777 89.4693 116.305 89.8879 114.057 90.2849C114.338 88.6861 114.587 87.2389 114.796 85.9721Z" fill="#8ADB63"/>
<path d="M100.948 98.3908C100.923 95.897 100.873 94.0853 100.836 93.0928C101.818 93.1289 103.662 93.183 106.217 93.2083C107.488 93.2227 108.935 93.2335 110.534 93.2335C109.751 95.3737 108.91 97.7304 108.036 100.264C105.488 101.137 103.121 101.978 100.97 102.758C100.97 101.137 100.963 99.6756 100.948 98.3908Z" fill="#8ADB63"/>
<path d="M89.4502 112.997C88.9918 110.55 88.6237 108.778 88.418 107.807C89.3924 107.673 91.2186 107.406 93.7485 106.991C95.0045 106.786 96.4336 106.544 98.0108 106.27C97.6102 108.507 97.1915 110.968 96.7693 113.614C94.4054 114.913 92.2183 116.147 90.2333 117.288C89.9518 115.693 89.6883 114.253 89.4502 112.997Z" fill="#8ADB63"/>
<path d="M80.6512 129.338C79.7706 127.014 79.0993 125.336 78.7275 124.415C79.6659 124.116 81.4235 123.539 83.8451 122.69C85.047 122.272 86.4148 121.788 87.927 121.243C87.9234 123.513 87.9378 126.003 87.9847 128.674C85.8806 130.36 83.9354 131.955 82.1742 133.416C81.6184 131.904 81.1059 130.536 80.6512 129.338Z" fill="#8ADB63"/>
<path d="M122.418 82.4976C121.516 83.8438 120.588 85.2369 119.654 86.6733C117.975 87.0594 116.341 87.4528 114.76 87.839C115.359 85.7855 115.904 83.8474 116.402 82.0537C118.261 82.2053 120.274 82.3533 122.418 82.4976Z" fill="#8ADB63"/>
<path d="M132.852 72.5547C134.656 73.0239 136.609 73.5219 138.691 74.0308C137.569 75.2037 136.414 76.42 135.245 77.6723C133.527 77.7661 131.852 77.8672 130.228 77.9791C131.174 76.0591 132.051 74.2437 132.852 72.5547Z" fill="#8ADB63"/>
<path d="M92.6148 118.963L92.1384 121.067L90.5144 122.543L90.3628 120.074L92.6148 118.963Z" fill="#8ADB63"/>
<path d="M103.02 104.862L102.186 106.851L100.331 108.027L100.613 105.57L103.02 104.862Z" fill="#8ADB63"/>
<path d="M178.788 69.0176L180.859 70.389L178.795 71.0495L176.712 70.3998L178.788 69.0176Z" fill="#8ADB63"/>
<path d="M169.83 68.303C168.192 67.805 166.586 67.3358 165.03 66.8847C166.579 65.3941 168.022 63.9794 169.354 62.6621C170.881 63.7196 172.541 64.8492 174.313 66.0402C172.855 66.7656 171.357 67.5199 169.83 68.303Z" fill="#8ADB63"/>
<path d="M163.384 71.6344L161.461 72.6377L159.292 72.3634L161.1 70.6455L163.384 71.6344Z" fill="#8ADB63"/>
<path d="M152.138 71.4898C150.435 71.284 148.771 71.0964 147.154 70.9268C148.421 69.1908 149.598 67.5523 150.68 66.0293C152.373 66.8052 154.206 67.6317 156.162 68.4943C154.852 69.4543 153.51 70.454 152.138 71.4898Z" fill="#8ADB63"/>
<path d="M146.361 75.8789L144.639 77.1962L142.452 77.3009L143.935 75.2979L146.361 75.8789Z" fill="#8ADB63"/>
<path d="M130.308 82.9885L128.842 84.5801L126.702 85.0601L127.814 82.8369L130.308 82.9885Z" fill="#8ADB63"/>
<path d="M115.713 92.7471L114.543 94.566L112.519 95.4069L113.226 93.0286L115.713 92.7471Z" fill="#8ADB63"/>
<path d="M105.846 98.2114C104.258 98.8827 102.713 99.5504 101.219 100.204C101.45 98.0815 101.652 96.0821 101.829 94.2306C103.691 94.0574 105.705 93.8553 107.841 93.6279C107.188 95.1112 106.517 96.6379 105.846 98.2114Z" fill="#8ADB63"/>
<path d="M94.2388 111.936C92.7916 112.871 91.3841 113.792 90.0235 114.694C89.8791 112.568 89.7312 110.569 89.5796 108.717C91.3877 108.223 93.3366 107.681 95.4082 107.086C95.022 108.656 94.6286 110.276 94.2388 111.936Z" fill="#8ADB63"/>
<path d="M85.1876 127.437C83.9208 128.603 82.6937 129.754 81.51 130.877C80.9975 128.809 80.4994 126.871 80.0303 125.077C81.7265 124.28 83.5563 123.41 85.4943 122.468C85.3861 124.077 85.2814 125.738 85.1876 127.437Z" fill="#8ADB63"/>
<path d="M174.933 57.0357C176.81 55.112 178.149 53.6865 178.878 52.9033C179.585 53.6684 180.928 55.1012 182.826 57.0501C183.768 58.0173 184.844 59.1145 186.046 60.3235C183.833 61.3701 181.408 62.5358 178.824 63.8134C176.247 62.5611 173.833 61.417 171.627 60.3957C172.862 59.1542 173.97 58.0281 174.933 57.0357Z" fill="#8ADB63"/>
<path d="M155.206 59.533C156.722 57.317 157.794 55.6858 158.379 54.7871C159.212 55.4187 160.786 56.5952 162.998 58.1832C164.095 58.97 165.351 59.865 166.744 60.8431C164.741 62.2542 162.558 63.8169 160.23 65.5204C157.469 64.7336 154.889 64.0262 152.536 63.4019C153.532 61.9691 154.427 60.6698 155.206 59.533Z" fill="#8ADB63"/>
<path d="M136.179 65.3902C137.287 62.9504 138.06 61.1604 138.478 60.1787C139.41 60.6551 141.167 61.5393 143.628 62.7195C144.848 63.3041 146.241 63.9682 147.79 64.69C146.061 66.4223 144.177 68.3387 142.181 70.4139C139.319 70.1144 136.652 69.869 134.22 69.6596C134.952 68.0753 135.609 66.6461 136.179 65.3902Z" fill="#8ADB63"/>
<path d="M118.43 74.4349C119.098 71.8436 119.549 69.9525 119.787 68.9131C120.79 69.2199 122.678 69.7865 125.312 70.5191C126.619 70.8836 128.109 71.295 129.762 71.7353C128.358 73.7347 126.835 75.9435 125.229 78.329C122.357 78.5312 119.679 78.7477 117.243 78.9642C117.69 77.2896 118.087 75.7666 118.43 74.4349Z" fill="#8ADB63"/>
<path d="M102.504 86.3911C102.709 83.7312 102.825 81.7932 102.879 80.7285C103.922 80.8584 105.882 81.0894 108.61 81.3565C109.964 81.49 111.505 81.6344 113.212 81.786C112.176 83.9947 111.061 86.4308 109.891 89.0509C107.091 89.7439 104.489 90.4188 102.121 91.054C102.273 89.3216 102.399 87.7589 102.504 86.3911Z" fill="#8ADB63"/>
<path d="M88.8759 100.896C88.6161 98.2434 88.3887 96.3198 88.2588 95.2659C89.309 95.2118 91.2868 95.0999 94.0224 94.8942C95.3794 94.7895 96.9277 94.6668 98.6384 94.5225C98.0032 96.8719 97.3283 99.4596 96.6317 102.239C93.9899 103.404 91.5394 104.516 89.3162 105.548C89.161 103.816 89.0131 102.26 88.8759 100.896Z" fill="#8ADB63"/>
<path d="M77.9692 117.505C77.2474 114.943 76.688 113.092 76.374 112.077C77.4026 111.843 79.3298 111.392 81.9933 110.717C83.3142 110.381 84.8192 109.991 86.4793 109.555C86.2628 111.973 86.0462 114.633 85.8477 117.487C83.4441 119.09 81.221 120.606 79.2107 122.002C78.756 120.331 78.3409 118.823 77.9692 117.505Z" fill="#8ADB63"/>
<path d="M126.887 71.4391C125.797 72.7925 124.682 74.1928 123.548 75.6364C121.722 75.8927 119.943 76.1597 118.218 76.4232C119.048 74.2866 119.813 72.2728 120.51 70.4033C122.48 70.739 124.613 71.089 126.887 71.4391Z" fill="#8ADB63"/>
<path d="M138.941 61.8096C140.821 62.4809 142.856 63.1882 145.029 63.9281C143.723 65.0757 142.376 66.2631 141.012 67.4902C139.172 67.4288 137.374 67.3819 135.635 67.3494C136.826 65.3897 137.93 63.5347 138.941 61.8096Z" fill="#8ADB63"/>
<path d="M91.6948 107.555L90.9911 109.753L89.1216 111.175L89.1902 108.529L91.6948 107.555Z" fill="#8ADB63"/>
<path d="M104.11 93.4834L103.034 95.5297L100.945 96.6124L101.479 94.0139L104.11 93.4834Z" fill="#8ADB63"/>
<path d="M178.781 60.7272C177.077 60.0451 175.41 59.3919 173.793 58.7675C175.583 57.3203 177.254 55.9489 178.799 54.6641C180.329 55.9344 181.993 57.2951 183.772 58.7278C182.148 59.3666 180.481 60.0307 178.781 60.7272Z" fill="#8ADB63"/>
<path d="M171.595 63.6793L169.452 64.5671L167.164 64.0726L169.25 62.4053L171.595 63.6793Z" fill="#8ADB63"/>
<path d="M159.613 62.4745C157.816 62.0956 156.058 61.7419 154.351 61.4062C155.863 59.6739 157.274 58.0354 158.57 56.5088C160.302 57.4941 162.179 58.5443 164.186 59.6486C162.699 60.5545 161.172 61.4965 159.613 62.4745Z" fill="#8ADB63"/>
<path d="M153.041 66.614L151.085 67.8592L148.739 67.7653L150.508 65.7695L153.041 66.614Z" fill="#8ADB63"/>
<path d="M135.256 72.6981L133.542 74.2608L131.217 74.5712L132.607 72.3047L135.256 72.6981Z" fill="#8ADB63"/>
<path d="M118.781 81.7461L117.362 83.5795L115.121 84.2868L116.099 81.8147L118.781 81.7461Z" fill="#8ADB63"/>
<path d="M107.744 86.6547C105.99 87.2213 104.279 87.788 102.626 88.3474C103.07 86.1062 103.471 83.9949 103.832 82.0352C105.835 82.0243 108 81.9991 110.303 81.9521C109.466 83.4716 108.607 85.0415 107.744 86.6547Z" fill="#8ADB63"/>
<path d="M94.0841 100.21C92.4529 101.069 90.8649 101.925 89.3311 102.758C89.378 100.477 89.4032 98.3299 89.4177 96.345C91.3918 95.9877 93.5211 95.5907 95.784 95.1504C95.2246 96.7853 94.6544 98.4743 94.0841 100.21Z" fill="#8ADB63"/>
<path d="M82.9826 115.899C81.5246 117.025 80.1062 118.136 78.742 119.223C78.3883 116.971 78.0383 114.856 77.7026 112.9C79.5866 112.21 81.6184 111.449 83.773 110.626C83.506 112.333 83.2389 114.094 82.9826 115.899Z" fill="#8ADB63"/>
<path d="M185.274 49.1857C187.453 47.309 189.016 45.9159 189.868 45.1436C190.554 46.0278 191.849 47.6771 193.69 49.9327C194.603 51.0515 195.65 52.3255 196.815 53.7222C194.358 54.6317 191.665 55.6494 188.789 56.7718C186.158 55.1947 183.689 53.7511 181.434 52.4555C182.866 51.25 184.151 50.1529 185.274 49.1857Z" fill="#8ADB63"/>
<path d="M163.998 50.0051C165.821 47.782 167.117 46.1435 167.824 45.2412C168.654 45.9919 170.22 47.3922 172.433 49.2942C173.53 50.2361 174.786 51.308 176.179 52.4809C173.912 53.7982 171.433 55.2635 168.795 56.8623C165.926 55.7651 163.237 54.7691 160.783 53.8848C161.985 52.4484 163.064 51.1492 163.998 50.0051Z" fill="#8ADB63"/>
<path d="M143.16 54.4797C144.571 51.9823 145.56 50.1453 146.098 49.1348C147.047 49.7303 148.837 50.8382 151.352 52.3251C152.601 53.065 154.023 53.8987 155.607 54.8154C153.601 56.5008 151.414 58.3703 149.089 60.3949C146.065 59.8103 143.243 59.2942 140.666 58.8467C141.601 57.2298 142.434 55.7646 143.16 54.4797Z" fill="#8ADB63"/>
<path d="M123.386 62.471C124.338 59.7714 124.995 57.7936 125.349 56.7109C126.388 57.1332 128.352 57.9127 131.091 58.9413C132.452 59.4538 134.003 60.0276 135.721 60.6556C134.04 62.6586 132.206 64.871 130.268 67.2674C127.182 67.2132 124.31 67.1952 121.689 67.1988C122.332 65.4448 122.895 63.8604 123.386 62.471Z" fill="#8ADB63"/>
<path d="M105.283 73.7339C105.752 70.9153 106.051 68.8581 106.21 67.7285C107.311 67.9631 109.379 68.3926 112.263 68.9303C113.692 69.1974 115.323 69.4969 117.131 69.8181C115.821 72.0774 114.403 74.5712 112.909 77.2564C109.855 77.7364 107.019 78.2128 104.435 78.6675C104.759 76.8413 105.041 75.1848 105.283 73.7339Z" fill="#8ADB63"/>
<path d="M89.3957 87.9323C89.3633 85.0812 89.3019 83.006 89.2622 81.8691C90.3882 81.9088 92.5067 81.9738 95.4445 82.0099C96.9025 82.0279 98.5627 82.0388 100.4 82.0424C99.5046 84.4893 98.541 87.1852 97.5377 90.0833C94.6108 91.0794 91.8932 92.0394 89.4282 92.9308C89.4246 91.0758 89.4102 89.4012 89.3957 87.9323Z" fill="#8ADB63"/>
<path d="M76.2087 104.631C75.6782 101.831 75.256 99.8024 75.0142 98.6908C76.133 98.5356 78.2334 98.2361 81.1351 97.7633C82.5751 97.5287 84.2172 97.2544 86.0289 96.9404C85.5742 99.5028 85.0942 102.318 84.6142 105.342C81.9038 106.826 79.3883 108.237 77.111 109.54C76.7898 107.717 76.483 106.071 76.2087 104.631Z" fill="#8ADB63"/>
<path d="M66.1246 123.326C65.1141 120.666 64.3382 118.742 63.9087 117.692C64.9842 117.349 67.0016 116.689 69.7842 115.725C71.1628 115.245 72.7364 114.693 74.4687 114.072C74.4687 116.667 74.4868 119.522 74.5409 122.579C72.1265 124.506 69.8925 126.325 67.875 128C67.2362 126.26 66.6479 124.694 66.1246 123.326Z" fill="#8ADB63"/>
<path d="M132.682 60.0634C131.394 61.406 130.073 62.7919 128.731 64.2283C126.76 64.3329 124.836 64.4484 122.974 64.5711C124.057 62.3696 125.06 60.2944 125.977 58.3672C128.048 58.9085 130.293 59.4788 132.682 60.0634Z" fill="#8ADB63"/>
<path d="M146.44 50.918C148.385 51.8094 150.489 52.755 152.738 53.7474C151.236 54.8482 149.692 55.9887 148.122 57.1724C146.166 56.9342 144.253 56.7177 142.398 56.5192C143.849 54.5378 145.199 52.6611 146.44 50.918Z" fill="#8ADB63"/>
<path d="M79.8536 111.424L79.3086 113.831L77.4464 115.516L77.2695 112.694L79.8536 111.424Z" fill="#8ADB63"/>
<path d="M91.7779 95.2979L90.8215 97.5752L88.6958 98.9213L89.017 96.1063L91.7779 95.2979Z" fill="#8ADB63"/>
<path d="M106.333 81.4502L104.994 83.5326L102.667 84.4926L103.475 81.7714L106.333 81.4502Z" fill="#8ADB63"/>
<path d="M181.094 55.9564L178.723 56.707L176.33 55.9636L178.708 54.3828L181.094 55.9564Z" fill="#8ADB63"/>
<path d="M168.427 53.5523C166.543 52.982 164.702 52.4407 162.912 51.9246C164.688 50.2175 166.344 48.6043 167.867 47.0957C169.625 48.3083 171.527 49.604 173.566 50.9682C171.899 51.7947 170.181 52.6572 168.427 53.5523Z" fill="#8ADB63"/>
<path d="M161.032 57.3566L158.827 58.5042L156.336 58.183L158.408 56.2197L161.032 57.3566Z" fill="#8ADB63"/>
<path d="M141.496 62.1892L139.522 63.6941L137.01 63.8096L138.706 61.5215L141.496 62.1892Z" fill="#8ADB63"/>
<path d="M123.076 70.3018L121.394 72.1208L118.936 72.6694L120.21 70.125L123.076 70.3018Z" fill="#8ADB63"/>
<path d="M110.848 74.5067C108.924 74.947 107.047 75.3945 105.229 75.8348C105.911 73.4853 106.539 71.2694 107.105 69.2158C109.245 69.3891 111.555 69.5659 114.013 69.7319C112.977 71.2694 111.92 72.8646 110.848 74.5067Z" fill="#8ADB63"/>
<path d="M95.0113 87.6902C93.1888 88.4553 91.4167 89.2168 89.7061 89.9639C89.9695 87.535 90.1969 85.2505 90.3954 83.1284C92.5355 82.9335 94.8453 82.7061 97.2995 82.4463C96.5452 84.1425 95.7801 85.8929 95.0113 87.6902Z" fill="#8ADB63"/>
<path d="M81.7086 103.386C80.0485 104.451 78.4316 105.504 76.8725 106.537C76.7065 104.101 76.5297 101.816 76.3564 99.6975C78.4316 99.1381 80.6692 98.5174 83.044 97.8389C82.6001 99.6326 82.1525 101.484 81.7086 103.386Z" fill="#8ADB63"/>
<path d="M71.3365 121.11C69.8857 122.445 68.4781 123.759 67.1211 125.04C66.5293 122.673 65.9554 120.457 65.4141 118.403C67.3629 117.494 69.4598 116.501 71.6829 115.426C71.5602 117.266 71.4411 119.165 71.3365 121.11Z" fill="#8ADB63"/>
<path d="M174.269 40.6647C176.42 38.4668 177.958 36.8355 178.792 35.9404C179.607 36.8174 181.148 38.4595 183.332 40.6935C184.414 41.8015 185.652 43.0611 187.031 44.4433C184.49 45.6379 181.711 46.9696 178.745 48.4277C175.785 46.9877 173.014 45.6776 170.48 44.5047C171.891 43.0863 173.161 41.7979 174.269 40.6647Z" fill="#8ADB63"/>
<path d="M151.623 43.4908C153.359 40.9572 154.59 39.0914 155.257 38.0664C156.214 38.7918 158.022 40.138 160.566 41.9569C161.829 42.8592 163.269 43.8842 164.872 45.0066C162.576 46.6162 160.068 48.4063 157.401 50.3516C154.232 49.4457 151.266 48.6337 148.562 47.9155C149.703 46.2806 150.732 44.7973 151.623 43.4908Z" fill="#8ADB63"/>
<path d="M129.788 50.1711C131.058 47.3813 131.943 45.335 132.419 44.209C133.491 44.7576 135.508 45.7717 138.334 47.1215C139.738 47.7928 141.337 48.5543 143.113 49.3807C141.131 51.3585 138.973 53.5492 136.681 55.9239C133.397 55.5774 130.329 55.2887 127.54 55.0505C128.384 53.2424 129.135 51.6075 129.788 50.1711Z" fill="#8ADB63"/>
<path d="M109.426 60.4965C110.188 57.5335 110.704 55.368 110.978 54.1807C112.129 54.5343 114.298 55.184 117.323 56.0285C118.824 56.4471 120.535 56.9199 122.433 57.4288C120.827 59.7169 119.08 62.2432 117.236 64.9681C113.937 65.1954 110.862 65.4372 108.065 65.6826C108.582 63.759 109.036 62.0195 109.426 60.4965Z" fill="#8ADB63"/>
<path d="M91.1569 74.1569C91.3879 71.1109 91.5178 68.8913 91.5792 67.6787C92.7774 67.8267 95.0294 68.0938 98.1584 68.4041C99.7103 68.5593 101.482 68.7289 103.442 68.9022C102.258 71.4285 100.977 74.2147 99.6381 77.2138C96.4225 78.0042 93.4342 78.7729 90.7202 79.4947C90.8934 77.5133 91.0378 75.7232 91.1569 74.1569Z" fill="#8ADB63"/>
<path d="M75.5336 90.7362C75.2305 87.701 74.967 85.4958 74.8154 84.2904C76.0245 84.2327 78.2909 84.1064 81.4308 83.8718C82.9899 83.7563 84.7655 83.6191 86.7288 83.4531C86.0034 86.1419 85.2311 89.1013 84.4335 92.2808C81.4019 93.6126 78.5905 94.8829 76.0389 96.0595C75.8657 94.0853 75.6924 92.2989 75.5336 90.7362Z" fill="#8ADB63"/>
<path d="M63.0357 109.735C62.2056 106.804 61.5596 104.678 61.1987 103.52C62.3789 103.253 64.5912 102.74 67.6481 101.968C69.1639 101.586 70.8926 101.145 72.7982 100.644C72.5527 103.412 72.3109 106.458 72.0836 109.72C69.3263 111.55 66.7783 113.282 64.4685 114.881C63.9452 112.968 63.4652 111.243 63.0357 109.735Z" fill="#8ADB63"/>
<path d="M54.0384 130.57C52.703 127.827 51.6961 125.853 51.1367 124.774C52.2555 124.308 54.3524 123.42 57.2252 122.139C58.6543 121.504 60.2784 120.771 62.0721 119.948C62.3175 122.713 62.6098 125.748 62.9563 129C60.5599 131.273 58.3476 133.417 56.3518 135.384C55.5 133.594 54.7241 131.981 54.0384 130.57Z" fill="#8ADB63"/>
<path d="M139.926 48.4713C138.428 49.7813 136.887 51.1383 135.324 52.5422C133.213 52.4701 131.152 52.4123 129.149 52.3726C130.51 50.1278 131.773 48.0057 132.932 46.0352C135.093 46.8039 137.432 47.6231 139.926 48.4713Z" fill="#8ADB63"/>
<path d="M155.455 40.001C157.444 41.1306 159.602 42.3396 161.908 43.6064C160.205 44.6386 158.451 45.7141 156.664 46.8293C154.6 46.3926 152.579 45.9848 150.619 45.5986C152.351 43.6208 153.968 41.7441 155.455 40.001Z" fill="#8ADB63"/>
<path d="M67.5825 116.596L67.2289 119.205L65.4027 121.176L64.9443 118.184L67.5825 116.596Z" fill="#8ADB63"/>
<path d="M78.785 98.3232L77.9802 100.839L75.8364 102.463L75.9122 99.4348L78.785 98.3232Z" fill="#8ADB63"/>
<path d="M93.0118 82.2373L91.7776 84.576L89.3848 85.8102L89.9911 82.84L93.0118 82.2373Z" fill="#8ADB63"/>
<path d="M109.83 68.8262L108.206 70.9194L105.633 71.7242L106.752 68.8984L109.83 68.8262Z" fill="#8ADB63"/>
<path d="M178.661 44.862C176.705 44.0789 174.792 43.3282 172.93 42.61C174.984 40.9571 176.9 39.3871 178.669 37.9219C180.43 39.3799 182.339 40.939 184.385 42.5847C182.523 43.3138 180.61 44.0717 178.661 44.862Z" fill="#8ADB63"/>
<path d="M170.415 48.2295L167.957 49.2473L165.33 48.6734L167.722 46.7715L170.415 48.2295Z" fill="#8ADB63"/>
<path d="M149.129 51.5604L146.88 52.9823L144.191 52.8705L146.216 50.5859L149.129 51.5604Z" fill="#8ADB63"/>
<path d="M128.723 58.4938L126.76 60.2803L124.089 60.634L125.685 58.0391L128.723 58.4938Z" fill="#8ADB63"/>
<path d="M115.291 61.8354C113.197 62.1278 111.155 62.4273 109.173 62.7268C110.123 60.2835 110.996 57.981 111.79 55.8408C114.053 56.227 116.503 56.6276 119.113 57.0354C117.864 58.5873 116.586 60.1861 115.291 61.8354Z" fill="#8ADB63"/>
<path d="M97.1697 74.4243C95.1559 75.0703 93.1962 75.7164 91.2979 76.3552C91.8031 73.7891 92.2615 71.3711 92.6693 69.1299C94.9682 69.1191 97.4549 69.0938 100.097 69.0469C99.1403 70.7828 98.1586 72.5765 97.1697 74.4243Z" fill="#8ADB63"/>
<path d="M81.517 89.9214C79.6439 90.9031 77.825 91.8775 76.0674 92.8303C76.1179 90.2173 76.1432 87.7632 76.154 85.4859C78.4205 85.0817 80.8638 84.6306 83.4623 84.1289C82.8163 86.002 82.1666 87.9364 81.517 89.9214Z" fill="#8ADB63"/>
<path d="M68.7992 107.859C67.1246 109.147 65.5042 110.417 63.9342 111.655C63.5228 109.078 63.1186 106.657 62.7324 104.416C64.8942 103.629 67.2257 102.763 69.6978 101.824C69.3947 103.78 69.0915 105.794 68.7992 107.859Z" fill="#8ADB63"/>
<path d="M59.412 127.694C57.99 129.249 56.6114 130.776 55.2832 132.266C54.4279 129.801 53.605 127.488 52.8291 125.351C54.8213 124.204 56.9687 122.951 59.2423 121.602C59.282 123.576 59.3398 125.611 59.412 127.694Z" fill="#8ADB63"/>
<path d="M186.092 31.6606C188.594 29.5168 190.384 27.9216 191.358 27.041C192.145 28.0552 193.635 29.9463 195.754 32.534C196.804 33.8188 198.009 35.2732 199.348 36.8792C196.526 37.915 193.44 39.0771 190.142 40.3547C187.121 38.543 184.284 36.8865 181.689 35.3995C183.332 34.0209 184.808 32.7649 186.092 31.6606Z" fill="#8ADB63"/>
<path d="M161.677 32.5629C163.767 30.0222 165.25 28.1455 166.059 27.1133C167.011 27.9758 168.812 29.5819 171.357 31.7581C172.616 32.8408 174.06 34.0679 175.662 35.4141C173.064 36.919 170.223 38.59 167.196 40.4162C163.897 39.153 160.811 38.0126 157.996 36.9912C159.368 35.3599 160.602 33.8694 161.677 32.5629Z" fill="#8ADB63"/>
<path d="M137.764 37.6479C139.377 34.7895 140.514 32.6891 141.127 31.5342C142.217 32.2163 144.278 33.4867 147.165 35.1937C148.598 36.0419 150.237 37.0019 152.052 38.0485C149.753 39.9757 147.245 42.1086 144.581 44.4256C141.109 43.7508 137.868 43.1589 134.913 42.6392C135.977 40.795 136.934 39.1204 137.764 37.6479Z" fill="#8ADB63"/>
<path d="M115.081 46.7646C116.171 43.6753 116.922 41.4124 117.326 40.1709C118.521 40.6545 120.773 41.5495 123.92 42.7333C125.483 43.3216 127.262 43.982 129.24 44.7038C127.312 46.9956 125.216 49.5255 122.992 52.2612C119.452 52.1962 116.15 52.1673 113.147 52.1673C113.876 50.1643 114.522 48.3526 115.081 46.7646Z" fill="#8ADB63"/>
<path d="M94.3218 59.6304C94.8523 56.4039 95.1988 54.0508 95.3757 52.7588C96.6388 53.0295 99.0172 53.5239 102.327 54.1483C103.969 54.4586 105.842 54.8015 107.917 55.1732C106.419 57.7573 104.795 60.6084 103.085 63.6833C99.5838 64.2247 96.3248 64.766 93.3618 65.2821C93.7263 63.1853 94.0475 61.2905 94.3218 59.6304Z" fill="#8ADB63"/>
<path d="M76.1108 75.8572C76.0711 72.591 75.9954 70.2162 75.9448 68.917C77.2369 68.9675 79.6657 69.0433 83.0402 69.0866C84.7148 69.1083 86.6203 69.1263 88.728 69.1335C87.7031 71.9341 86.6023 75.0163 85.4582 78.3366C82.1018 79.4734 78.9836 80.5669 76.1541 81.5811C76.1505 79.4554 76.1325 77.5354 76.1108 75.8572Z" fill="#8ADB63"/>
<path d="M61.0071 94.9524C60.3935 91.7475 59.9027 89.4233 59.6284 88.1529C60.9132 87.9797 63.3205 87.6368 66.6516 87.0991C68.3045 86.832 70.1884 86.5217 72.2672 86.168C71.7475 89.0985 71.2026 92.3214 70.6576 95.7824C67.5466 97.4787 64.6666 99.0883 62.0537 100.575C61.6747 98.4856 61.3247 96.6017 61.0071 94.9524Z" fill="#8ADB63"/>
<path d="M49.4652 116.336C48.2994 113.286 47.408 111.085 46.9136 109.883C48.1515 109.49 50.4685 108.739 53.6516 107.642C55.236 107.097 57.0369 106.465 59.0255 105.758C59.0291 108.732 59.058 111.994 59.1265 115.495C56.3584 117.696 53.7996 119.779 51.4862 121.688C50.7464 119.696 50.0643 117.902 49.4652 116.336Z" fill="#8ADB63"/>
<path d="M148.735 36.7852C147.014 38.0412 145.245 39.3476 143.444 40.701C141.2 40.4267 139.005 40.1741 136.876 39.9431C138.536 37.6731 140.084 35.5293 141.503 33.5371C143.737 34.5549 146.155 35.6448 148.735 36.7852Z" fill="#8ADB63"/>
<path d="M166.088 29.1992C168.105 30.5923 170.292 32.0792 172.634 33.6455C170.718 34.5875 168.751 35.5728 166.741 36.5941C164.579 35.9373 162.464 35.3129 160.411 34.7174C162.443 32.7686 164.341 30.9207 166.088 29.1992Z" fill="#8ADB63"/>
<path d="M65.2189 102.69L64.5981 105.444L62.4652 107.375L62.2559 104.138L65.2189 102.69Z" fill="#8ADB63"/>
<path d="M78.8719 84.248L77.7784 86.8538L75.3423 88.3912L75.7032 85.1647L78.8719 84.248Z" fill="#8ADB63"/>
<path d="M95.5456 68.4189L94.0118 70.8009L91.3447 71.8944L92.2686 68.7798L95.5456 68.4189Z" fill="#8ADB63"/>
<path d="M114.735 55.682L112.807 57.7644L109.989 58.3851L111.443 55.4727L114.735 55.682Z" fill="#8ADB63"/>
<path d="M181.278 39.3736L178.56 40.2253L175.814 39.3699L178.542 37.5654L181.278 39.3736Z" fill="#8ADB63"/>
<path d="M158.26 40.9361L155.733 42.2425L152.875 41.8744L155.246 39.626L158.26 40.9361Z" fill="#8ADB63"/>
<path d="M135.851 46.4286L133.592 48.1501L130.708 48.2764L132.654 45.6562L135.851 46.4286Z" fill="#8ADB63"/>
<path d="M121.213 48.7389C118.954 48.8544 116.745 48.9843 114.605 49.1214C115.843 46.6023 116.991 44.2276 118.041 42.0225C120.419 42.6468 122.992 43.3037 125.739 43.9822C124.263 45.5124 122.747 47.1004 121.213 48.7389Z" fill="#8ADB63"/>
<path d="M100.71 60.4757C98.5015 60.9773 96.3505 61.4826 94.2681 61.9842C95.0476 59.2919 95.7586 56.7584 96.4082 54.4053C98.8624 54.611 101.515 54.8131 104.337 55.0116C103.15 56.7728 101.937 58.5954 100.71 60.4757Z" fill="#8ADB63"/>
<path d="M82.5673 75.5425C80.4776 76.4158 78.4457 77.282 76.4824 78.1373C76.7784 75.3548 77.0346 72.7382 77.2584 70.313C79.7125 70.0928 82.3615 69.8402 85.1802 69.5479C84.3212 71.4823 83.4442 73.4853 82.5673 75.5425Z" fill="#8ADB63"/>
<path d="M67.3303 93.4867C65.4247 94.7029 63.5769 95.9083 61.7904 97.0849C61.5919 94.2951 61.3898 91.6785 61.1841 89.2497C63.566 88.6109 66.1321 87.9071 68.8533 87.1348C68.348 89.1919 67.8355 91.3104 67.3303 93.4867Z" fill="#8ADB63"/>
<path d="M55.4671 113.767C53.8033 115.293 52.1937 116.795 50.6382 118.26C49.9561 115.549 49.292 113.005 48.6641 110.656C50.8981 109.62 53.3017 108.483 55.8533 107.256C55.7125 109.364 55.5826 111.54 55.4671 113.767Z" fill="#8ADB63"/>
<path d="M173.418 21.8441C175.883 19.3286 177.64 17.4664 178.6 16.4414C179.539 17.4483 181.311 19.3286 183.819 21.891C185.064 23.1614 186.486 24.605 188.07 26.193C185.158 27.5536 181.971 29.073 178.571 30.7368C175.172 29.0838 171.988 27.5753 169.08 26.2255C170.696 24.6123 172.151 23.1398 173.418 21.8441Z" fill="#8ADB63"/>
<path d="M147.436 25.0376C149.425 22.1396 150.832 20.0066 151.594 18.8301C152.695 19.6602 154.77 21.2084 157.693 23.2981C159.144 24.3375 160.801 25.5104 162.638 26.8024C160.007 28.643 157.134 30.6857 154.073 32.9053C150.432 31.8623 147.032 30.9276 143.925 30.0975C145.242 28.228 146.415 26.5281 147.436 25.0376Z" fill="#8ADB63"/>
<path d="M122.397 32.6424C123.847 29.4484 124.858 27.1061 125.403 25.8213C126.634 26.4493 128.951 27.615 132.199 29.1705C133.808 29.9428 135.649 30.8162 137.688 31.769C135.418 34.0318 132.946 36.5365 130.322 39.2469C126.551 38.8463 123.035 38.507 119.831 38.2255C120.791 36.1576 121.65 34.2845 122.397 32.6424Z" fill="#8ADB63"/>
<path d="M99.0533 44.4298C99.9231 41.0373 100.508 38.5579 100.822 37.1973C102.143 37.6051 104.633 38.3522 108.105 39.3266C109.826 39.8102 111.793 40.3516 113.969 40.9398C112.129 43.5564 110.133 46.4472 108.022 49.5654C104.236 49.8181 100.71 50.0923 97.5015 50.363C98.0861 48.1651 98.6058 46.1729 99.0533 44.4298Z" fill="#8ADB63"/>
<path d="M78.1176 60.0344C78.3774 56.5481 78.5218 54.0073 78.5904 52.6143C79.9654 52.7875 82.5495 53.0979 86.1405 53.4588C87.9233 53.6392 89.9552 53.8341 92.2036 54.0398C90.8503 56.9307 89.3886 60.1174 87.8584 63.5496C84.1699 64.4483 80.745 65.3217 77.6304 66.1445C77.8216 63.878 77.9841 61.8317 78.1176 60.0344Z" fill="#8ADB63"/>
<path d="M60.224 78.9936C59.8703 75.5181 59.5636 72.9918 59.3867 71.6095C60.7726 71.5446 63.3711 71.4038 66.9765 71.144C68.763 71.0141 70.8021 70.8589 73.0541 70.6748C72.2277 73.7533 71.347 77.1386 70.4412 80.7801C66.9657 82.2995 63.7428 83.7467 60.8195 85.0893C60.6066 82.8264 60.4081 80.7837 60.224 78.9936Z" fill="#8ADB63"/>
<path d="M45.9175 100.723C44.9575 97.3631 44.2141 94.9306 43.7954 93.6025C45.1524 93.2993 47.6932 92.7147 51.1939 91.8377C52.9335 91.4046 54.9148 90.8993 57.1019 90.3291C56.8276 93.5014 56.5533 96.9842 56.3007 100.723C53.1428 102.813 50.2195 104.794 47.5741 106.617C46.9678 104.43 46.412 102.452 45.9175 100.723Z" fill="#8ADB63"/>
<path d="M35.6354 124.564C34.098 121.421 32.9395 119.158 32.2935 117.92C33.5747 117.389 35.9747 116.379 39.2733 114.913C40.9118 114.188 42.7741 113.351 44.8312 112.416C45.1163 115.585 45.4592 119.06 45.8634 122.785C43.1169 125.383 40.5834 127.834 38.2989 130.082C37.3208 128.032 36.4258 126.181 35.6354 124.564Z" fill="#8ADB63"/>
<path d="M159.223 25.1393C157.271 26.3194 155.261 27.5465 153.218 28.8205C150.85 28.3188 148.533 27.846 146.281 27.3985C148.266 25.1357 150.114 22.9919 151.814 20.9961C154.098 22.2953 156.574 23.6848 159.223 25.1393Z" fill="#8ADB63"/>
<path d="M178.438 18.668C180.459 20.339 182.653 22.1326 185.003 24.0238C182.873 24.8502 180.679 25.7164 178.442 26.6187C176.197 25.7164 173.999 24.8538 171.862 24.0274C174.215 22.1326 176.413 20.339 178.438 18.668Z" fill="#8ADB63"/>
<path d="M63.9919 87.6436L63.0752 90.52L60.6211 92.3786L60.7005 88.9103L63.9919 87.6436Z" fill="#8ADB63"/>
<path d="M80.2759 69.2451L78.8684 71.923L76.1255 73.3342L76.8112 69.9272L80.2759 69.2451Z" fill="#8ADB63"/>
<path d="M99.537 53.917L97.6784 56.3134L94.7334 57.2301L96.0074 53.9964L99.537 53.917Z" fill="#8ADB63"/>
<path d="M121.191 42.1226L118.943 44.1653L115.879 44.5623L117.701 41.5957L121.191 42.1226Z" fill="#8ADB63"/>
<path d="M50.7825 111.539L48.6892 113.791L48.1587 110.362L51.1831 108.547L50.7825 111.539Z" fill="#8ADB63"/>
<path d="M168.993 30.4546L166.174 31.6131L163.161 30.9526L165.9 28.7764L168.993 30.4546Z" fill="#8ADB63"/>
<path d="M144.581 34.2223L142.008 35.8464L138.922 35.7128L141.239 33.1035L144.581 34.2223Z" fill="#8ADB63"/>
<path d="M128.748 35.3238C126.327 35.2336 123.959 35.1686 121.667 35.1145C123.223 32.5449 124.67 30.1196 125.995 27.8604C128.474 28.7482 131.159 29.6865 134.021 30.6682C132.303 32.1659 130.542 33.7178 128.748 35.3238Z" fill="#8ADB63"/>
<path d="M105.788 45.9234C103.388 46.2518 101.042 46.591 98.7754 46.9339C99.8581 44.1369 100.854 41.4987 101.764 39.0518C104.362 39.4993 107.17 39.9648 110.165 40.4376C108.736 42.2061 107.271 44.0358 105.788 45.9234Z" fill="#8ADB63"/>
<path d="M85.0287 60.3057C82.7189 61.042 80.4705 61.7782 78.2979 62.5036C78.8717 59.5659 79.3914 56.7978 79.857 54.2317C82.4952 54.2245 85.3463 54.2029 88.3779 54.1523C87.2807 56.1373 86.1583 58.1909 85.0287 60.3057Z" fill="#8ADB63"/>
<path d="M67.1061 78.0221C64.9624 79.1445 62.8763 80.2525 60.8589 81.3424C60.9094 78.3505 60.9347 75.5355 60.9419 72.9297C63.5404 72.4714 66.3446 71.9589 69.3221 71.3887C68.5894 73.536 67.846 75.7484 67.1061 78.0221Z" fill="#8ADB63"/>
<path d="M52.5582 98.547C50.6418 100.02 48.7832 101.47 46.9895 102.889C46.5131 99.9329 46.0439 97.1612 45.5928 94.5915C48.0722 93.6929 50.7429 92.7076 53.5759 91.6357C53.2331 93.8733 52.8902 96.1795 52.5582 98.547Z" fill="#8ADB63"/>
<path d="M41.8322 121.244C40.2045 123.023 38.6274 124.77 37.108 126.473C36.1191 123.647 35.1699 120.995 34.2749 118.544C36.5594 117.234 39.0172 115.805 41.6229 114.264C41.677 116.53 41.742 118.858 41.8322 121.244Z" fill="#8ADB63"/>
<path d="M186.941 11.5076C189.803 9.05702 191.856 7.23446 192.971 6.22754C193.877 7.38965 195.591 9.56228 198.028 12.5289C199.237 14.0014 200.619 15.6724 202.163 17.513C198.93 18.6931 195.389 20.0176 191.607 21.4757C188.135 19.3933 184.88 17.4913 181.902 15.7806C183.779 14.2071 185.468 12.7707 186.941 11.5076Z" fill="#8ADB63"/>
<path d="M158.934 12.4896C161.324 9.58436 163.023 7.43699 163.947 6.25684C165.044 7.24571 167.112 9.08993 170.036 11.591C171.487 12.8325 173.143 14.2436 174.984 15.7883C172.006 17.5062 168.751 19.4154 165.283 21.5014C161.497 20.0506 157.956 18.7333 154.723 17.5603C156.293 15.6872 157.704 13.9838 158.934 12.4896Z" fill="#8ADB63"/>
<path d="M131.513 18.2638C133.357 14.9941 134.657 12.5904 135.357 11.2695C136.609 12.0563 138.973 13.5143 142.29 15.4741C143.936 16.4485 145.816 17.5492 147.902 18.7583C145.271 20.9598 142.398 23.3995 139.345 26.0485C135.36 25.269 131.64 24.5796 128.247 23.9805C129.474 21.8656 130.568 19.9456 131.513 18.2638Z" fill="#8ADB63"/>
<path d="M105.517 28.6578C106.759 25.121 107.617 22.5333 108.076 21.1113C109.447 21.6671 112.031 22.6993 115.644 24.0599C117.438 24.7348 119.48 25.4999 121.75 26.3264C119.545 28.9465 117.142 31.841 114.601 34.97C110.541 34.887 106.751 34.8473 103.305 34.8401C104.138 32.552 104.878 30.4768 105.517 28.6578Z" fill="#8ADB63"/>
<path d="M81.7301 43.3501C82.3328 39.6545 82.7225 36.9585 82.9247 35.4824C84.3755 35.7964 87.1003 36.3666 90.9006 37.0884C92.7845 37.4457 94.9355 37.8463 97.3139 38.2722C95.5996 41.228 93.7445 44.4906 91.7884 48.0094C87.7716 48.6229 84.0362 49.2364 80.6401 49.8211C81.0588 47.4211 81.4197 45.2521 81.7301 43.3501Z" fill="#8ADB63"/>
<path d="M60.8771 61.9006C60.823 58.1616 60.7327 55.4404 60.6714 53.9463C62.1547 54.004 64.9409 54.1015 68.8098 54.1556C70.7298 54.1845 72.9168 54.2097 75.3349 54.2206C74.1656 57.4254 72.9096 60.955 71.6031 64.7553C67.7559 66.051 64.1794 67.2961 60.9385 68.4546C60.9276 66.0221 60.906 63.8242 60.8771 61.9006Z" fill="#8ADB63"/>
<path d="M43.59 83.7422C42.879 80.0682 42.3124 77.4047 41.9912 75.9467C43.4637 75.7518 46.2318 75.362 50.0466 74.7557C51.9413 74.4561 54.1031 74.1025 56.4887 73.6982C55.9004 77.0546 55.2833 80.7467 54.6625 84.7094C51.0968 86.6438 47.7981 88.4844 44.8026 90.1807C44.366 87.7915 43.9581 85.6297 43.59 83.7422Z" fill="#8ADB63"/>
<path d="M30.3989 108.212C29.0527 104.718 28.0277 102.192 27.4575 100.813C28.8723 100.366 31.5249 99.514 35.1845 98.258C36.9998 97.6373 39.0642 96.9191 41.3451 96.1143C41.3559 99.5212 41.3956 103.26 41.4786 107.27C38.3063 109.785 35.3757 112.164 32.7267 114.351C31.875 112.066 31.0918 110.009 30.3989 108.212Z" fill="#8ADB63"/>
<path d="M17.5 127.787C18.8173 127.105 21.2823 125.809 24.6639 123.947C26.3421 123.023 28.2513 121.962 30.3554 120.778C30.9617 124.128 31.6582 127.805 32.4486 131.735C29.7671 134.756 27.2985 137.6 25.0717 140.206C23.8339 138.105 22.7006 136.218 21.7009 134.565C19.7593 131.356 18.3048 129.05 17.5 127.787Z" fill="#8ADB63"/>
<path d="M171.494 13.6983C169.3 14.7738 167.044 15.8962 164.745 17.0655C162.266 16.3076 159.837 15.5858 157.48 14.9001C159.808 12.6697 161.977 10.5584 163.98 8.58789C166.293 10.1867 168.805 11.8974 171.494 13.6983Z" fill="#8ADB63"/>
<path d="M64.0893 71.4746L62.8406 74.4593L60.0508 76.2133L60.4586 72.5212L64.0893 71.4746Z" fill="#8ADB63"/>
<path d="M83.1736 53.3721L81.4196 56.0969L78.3628 57.3456L79.4166 53.7799L83.1736 53.3721Z" fill="#8ADB63"/>
<path d="M105.149 38.8242L102.944 41.2062L99.7139 41.9099L101.378 38.5752L105.149 38.8242Z" fill="#8ADB63"/>
<path d="M129.348 28.2645L126.757 30.2314L123.451 30.3722L125.674 27.373L129.348 28.2645Z" fill="#8ADB63"/>
<path d="M47.7691 95.7317L45.3294 97.9405L45.084 94.2304L48.4765 92.5811L47.7691 95.7317Z" fill="#8ADB63"/>
<path d="M36.6642 119.269L34.6468 121.861L33.7554 118.252L36.805 116.043L36.6642 119.269Z" fill="#8ADB63"/>
<path d="M181.419 20.281L178.304 21.2518L175.153 20.2665L178.279 18.2021L181.419 20.281Z" fill="#8ADB63"/>
<path d="M155.03 22.0203L152.131 23.5144L148.854 23.0814L151.568 20.5117L155.03 22.0203Z" fill="#8ADB63"/>
<path d="M138.042 21.7178C135.465 21.3966 132.95 21.1042 130.506 20.8336C132.408 18.2387 134.173 15.7845 135.797 13.5C138.36 14.6765 141.135 15.9325 144.098 17.2426C142.127 18.679 140.103 20.1695 138.042 21.7178Z" fill="#8ADB63"/>
<path d="M112.562 30.8811C109.971 31.0074 107.441 31.1517 104.987 31.3033C106.402 28.4197 107.712 25.7021 108.91 23.1758C111.638 23.894 114.594 24.6555 117.741 25.4386C116.052 27.189 114.32 29.0044 112.562 30.8811Z" fill="#8ADB63"/>
<path d="M89.0779 44.2812C86.548 44.8514 84.0794 45.4252 81.6938 45.9991C82.5817 42.9169 83.3937 40.0153 84.1299 37.3193C86.945 37.5575 89.9874 37.7993 93.2247 38.0303C91.8677 40.0478 90.4818 42.1338 89.0779 44.2812Z" fill="#8ADB63"/>
<path d="M68.3081 61.5067C65.9153 62.5028 63.5875 63.4916 61.3354 64.4661C61.6675 61.2793 61.9562 58.2802 62.2088 55.5012C65.0239 55.2558 68.0591 54.9707 71.2892 54.6387C70.3111 56.8582 69.3114 59.15 68.3081 61.5067Z" fill="#8ADB63"/>
<path d="M50.8764 82.0385C48.6965 83.428 46.578 84.803 44.5281 86.1492C44.2971 82.9516 44.0553 79.9525 43.8135 77.1699C46.5419 76.4445 49.4833 75.6397 52.6051 74.7627C52.0312 77.1158 51.4502 79.5447 50.8764 82.0385Z" fill="#8ADB63"/>
<path d="M37.3212 105.249C35.4192 106.992 33.5714 108.71 31.7921 110.384C31.0018 107.277 30.2366 104.361 29.5112 101.665C32.07 100.481 34.8273 99.1855 37.747 97.7852C37.5919 100.203 37.4475 102.697 37.3212 105.249Z" fill="#8ADB63"/>
<path d="M172.367 0.178663C175.186 -2.69774 177.2 -4.82706 178.297 -6C179.373 -4.84511 181.408 -2.6833 184.292 0.258061C185.721 1.71972 187.356 3.37626 189.178 5.19522C185.844 6.7471 182.191 8.48304 178.297 10.3814C174.396 8.47943 170.74 6.74349 167.401 5.19161C169.253 3.34378 170.917 1.65837 172.367 0.178663Z" fill="#8ADB63"/>
<path d="M142.582 3.78031C144.856 0.463609 146.462 -1.97971 147.335 -3.32227C148.598 -2.36948 150.984 -0.590229 154.337 1.80978C156 3.00076 157.902 4.35415 160.017 5.83385C157.004 7.93791 153.712 10.2693 150.212 12.8101C146.036 11.6047 142.131 10.5256 138.569 9.5692C140.07 7.42904 141.413 5.48377 142.582 3.78031Z" fill="#8ADB63"/>
<path d="M113.883 12.4389C115.539 8.7829 116.694 6.10139 117.315 4.62891C118.726 5.35071 121.386 6.69327 125.114 8.48335C126.962 9.37117 129.073 10.3745 131.416 11.4716C128.817 14.0593 125.988 16.9249 122.985 20.025C118.661 19.5559 114.626 19.1625 110.949 18.8341C112.049 16.4629 113.031 14.3192 113.883 12.4389Z" fill="#8ADB63"/>
<path d="M87.1401 25.8892C88.129 22.0059 88.793 19.1655 89.1503 17.6064C90.6661 18.0756 93.5245 18.9382 97.5089 20.0606C99.4866 20.6164 101.739 21.2443 104.24 21.9228C102.136 24.9183 99.8511 28.2242 97.4403 31.7935C93.0986 32.0751 89.0565 32.3782 85.3789 32.685C86.043 30.1695 86.6348 27.8886 87.1401 25.8892Z" fill="#8ADB63"/>
<path d="M63.169 43.7285C63.4613 39.7369 63.6165 36.8244 63.6923 35.2256C65.2694 35.4277 68.2325 35.7886 72.354 36.2109C74.3967 36.4202 76.7281 36.6512 79.3086 36.8893C77.7639 40.1988 76.0929 43.8476 74.3462 47.7778C70.12 48.7992 66.1934 49.7952 62.624 50.7264C62.8406 48.1315 63.021 45.7856 63.169 43.7285Z" fill="#8ADB63"/>
<path d="M42.6948 65.4115C42.2798 61.4271 41.9225 58.5326 41.7168 56.9483C43.3084 56.8761 46.293 56.7209 50.4182 56.4322C52.4681 56.2878 54.8031 56.1146 57.3872 55.9053C56.4453 59.4313 55.4419 63.311 54.4134 67.4794C50.4326 69.2118 46.737 70.8647 43.3878 72.3949C43.1424 69.8037 42.9078 67.4614 42.6948 65.4115Z" fill="#8ADB63"/>
<path d="M26.3385 90.282C25.2306 86.4276 24.3716 83.6414 23.8916 82.1148C25.4435 81.7719 28.3524 81.1078 32.3692 80.1118C34.3614 79.6173 36.6315 79.0471 39.1398 78.3975C38.833 82.0318 38.5262 86.0233 38.2447 90.3073C34.6285 92.6964 31.2793 94.9593 28.2513 97.0417C27.5512 94.5298 26.9088 92.2634 26.3385 90.282Z" fill="#8ADB63"/>
<path d="M10.7549 109.958C12.2238 109.352 14.9702 108.201 18.7525 106.53C20.6292 105.7 22.7657 104.747 25.1188 103.679C25.4545 107.309 25.8551 111.294 26.3279 115.56C23.1844 118.533 20.2863 121.334 17.6698 123.907C16.5438 121.554 15.5116 119.432 14.6021 117.577C12.8337 113.975 11.4947 111.377 10.7549 109.958Z" fill="#8ADB63"/>
</svg>
