<svg width="101" height="114" viewBox="0 0 101 114" fill="none" xmlns="http://www.w3.org/2000/svg">
<path d="M50.5003 113.469C73.088 113.469 91.399 112.21 91.399 110.657C91.399 109.104 73.088 107.845 50.5003 107.845C27.9125 107.845 9.60156 109.104 9.60156 110.657C9.60156 112.21 27.9125 113.469 50.5003 113.469Z" fill="#829AC2"/>
<path d="M50.5006 110.657C49.2787 110.657 48.2891 109.668 48.2891 108.446V50.32C48.2891 49.0981 49.2787 48.1084 50.5006 48.1084C51.7225 48.1084 52.7122 49.0981 52.7122 50.32V108.446C52.7122 109.667 51.7214 110.657 50.5006 110.657Z" fill="#819DCD"/>
<path d="M21.2706 110.658C20.9366 110.658 20.5972 110.581 20.2787 110.421C19.1873 109.872 18.7472 108.543 19.2968 107.452L48.525 49.3261C49.0734 48.2347 50.4037 47.7945 51.494 48.3441C52.5854 48.8926 53.0244 50.2218 52.476 51.3132L23.2477 109.439C22.8596 110.212 22.08 110.658 21.2706 110.658Z" fill="#ADC0E0"/>
<path d="M79.7303 110.657C78.9208 110.657 78.1413 110.211 77.7531 109.438L48.5238 51.3127C47.9753 50.2213 48.4143 48.8921 49.5058 48.3436C50.5972 47.7952 51.9263 48.2342 52.4748 49.3256L81.703 107.451C82.2515 108.543 81.8125 109.872 80.7211 110.42C80.4026 110.582 80.0642 110.657 79.7303 110.657Z" fill="#ADC0E0"/>
<path d="M69.6519 83.4822L52.4767 49.3266C51.9283 48.2351 50.5991 47.7961 49.5077 48.3446C48.4163 48.8931 47.9762 50.2222 48.5258 51.3137L65.7186 85.5035C67.0721 84.9042 68.3857 84.2297 69.6519 83.4822Z" fill="#8FA8D3"/>
<path d="M51.4933 48.3436C50.4019 47.7952 49.0727 48.2342 48.5242 49.3256L31.3491 83.4823C32.6152 84.2298 33.9289 84.9054 35.2835 85.5037L52.4763 51.3138C53.0248 50.2224 52.5847 48.8921 51.4933 48.3436Z" fill="#8FA8D3"/>
<path d="M75.75 76.1523C89.6952 62.2072 89.6952 39.5975 75.75 25.6523C61.8048 11.7072 39.1952 11.7072 25.25 25.6523C11.3048 39.5975 11.3048 62.2072 25.25 76.1523C39.1952 90.0975 61.8048 90.0975 75.75 76.1523Z" fill="#E0ECFF"/>
<g style="mix-blend-mode:multiply">
<path d="M50.8522 50.5512C50.6576 50.3566 50.3424 50.3566 50.1489 50.5512C49.9543 50.7459 49.9543 51.061 50.1489 51.2545L75.383 76.4886C75.6207 76.2575 75.8552 76.0231 76.0863 75.7853L50.8522 50.5512Z" fill="#8686AE"/>
</g>
<path d="M70.6997 71.102C81.8556 59.9461 81.8556 41.8586 70.6997 30.7027C59.5437 19.5467 41.4563 19.5467 30.3003 30.7027C19.1443 41.8586 19.1443 59.9461 30.3003 71.102C41.4563 82.258 59.5437 82.258 70.6997 71.102Z" fill="#002055"/>
<g style="mix-blend-mode:multiply">
<path d="M50.8527 50.5512C50.658 50.3566 50.3429 50.3566 50.1494 50.5512C49.9548 50.7459 49.9548 51.061 50.1494 51.2545L70.3356 71.4407C70.5744 71.2107 70.8088 70.9752 71.0388 70.7374L50.8527 50.5512Z" fill="#8686AE"/>
</g>
<path d="M65.6511 66.0525C74.0183 57.6853 74.0183 44.1194 65.6511 35.7522C57.2839 27.385 43.718 27.385 35.3508 35.7522C26.9836 44.1194 26.9836 57.6853 35.3508 66.0525C43.718 74.4197 57.2839 74.4197 65.6511 66.0525Z" fill="#3E84ED"/>
<g style="mix-blend-mode:multiply">
<path d="M50.8532 50.5503C50.6585 50.3556 50.3434 50.3556 50.1499 50.5503C49.9553 50.7449 49.9553 51.06 50.1499 51.2535L65.2892 66.3929C65.5292 66.164 65.7636 65.9296 65.9925 65.6896L50.8532 50.5503Z" fill="#8686AE"/>
</g>
<path d="M64.5605 53.4145C65.9481 45.649 60.7778 38.229 53.0123 36.8414C45.2469 35.4538 37.8268 40.6241 36.4392 48.3895C35.0516 56.155 40.2219 63.5751 47.9874 64.9627C55.7529 66.3503 63.1729 61.18 64.5605 53.4145Z" fill="#FF2171"/>
<g style="mix-blend-mode:multiply">
<path d="M50.8527 50.5512C50.658 50.3566 50.3429 50.3566 50.1494 50.5512C49.9548 50.7459 49.9548 51.061 50.1494 51.2545L60.2375 61.3426C60.4797 61.1159 60.7152 60.8815 60.9408 60.6393L50.8527 50.5512Z" fill="#8686AE"/>
</g>
<path d="M57.4525 52.5559C58.3653 48.7183 55.9942 44.8673 52.1565 43.9545C48.3188 43.0417 44.4678 45.4128 43.5551 49.2505C42.6423 53.0882 45.0134 56.9392 48.8511 57.8519C52.6888 58.7647 56.5398 56.3936 57.4525 52.5559Z" fill="#FFE47D"/>
<g style="mix-blend-mode:multiply">
<path d="M50.8527 50.5512C50.658 50.3566 50.3429 50.3566 50.1494 50.5512C49.9548 50.7459 49.9548 51.061 50.1494 51.2545L55.1829 56.2881C55.4339 56.0702 55.6684 55.8347 55.8862 55.5848L50.8527 50.5512Z" fill="#8686AE"/>
</g>
<path d="M80.7165 15.6506L80.3339 16.0332C78.6387 17.7284 77.7375 20.0594 77.8514 22.4545L77.9012 23.5017L84.3468 17.0561C84.2606 15.2083 82.0236 14.3436 80.7165 15.6506Z" fill="#FF2171"/>
<path d="M85.7528 20.685L85.3702 21.0676C83.6751 22.7628 81.344 23.664 78.9489 23.5501L77.9028 23.5003L84.3485 17.0547C86.1951 17.142 87.0599 19.3791 85.7528 20.685Z" fill="#C51D67"/>
<path d="M84.8569 16.9891C84.7441 16.9891 84.6302 16.946 84.5439 16.8597C84.3714 16.6872 84.3714 16.4063 84.5439 16.2338L85.8974 14.8804C86.0699 14.7079 86.3497 14.7079 86.5233 14.8804C86.6958 15.0529 86.6958 15.3326 86.5233 15.5062L85.1698 16.8597C85.0836 16.946 84.9697 16.9891 84.8569 16.9891Z" fill="#32475B"/>
<path d="M50.501 51.3998C50.3739 51.3998 50.2467 51.3511 50.1494 51.2538C49.9548 51.0592 49.9548 50.744 50.1494 50.5505L84.5051 16.1948C84.6997 16.0002 85.0149 16.0002 85.2084 16.1948C85.403 16.3894 85.403 16.7046 85.2084 16.8981L50.8527 51.2538C50.7554 51.3511 50.6282 51.3998 50.501 51.3998Z" fill="white"/>
</svg>
